<?xml version="1.0" encoding="utf-8"?>
<!-- Generator: Adobe Illustrator 18.0.0, SVG Export Plug-In . SVG Version: 6.00 Build 0)  -->
<!DOCTYPE svg PUBLIC "-//W3C//DTD SVG 1.1//EN" "http://www.w3.org/Graphics/SVG/1.1/DTD/svg11.dtd">
<svg version="1.1" id="Shapes" xmlns="http://www.w3.org/2000/svg" xmlns:xlink="http://www.w3.org/1999/xlink" x="0px" y="0px"
	 width="517.3px" height="257.3px" viewBox="0 0 517.3 257.3" enable-background="new 0 0 517.3 257.3" xml:space="preserve">
<g opacity="0.15">
	<polygon fill="#56C2BC" points="486.3,257.3 362.3,133.3 366.5,257.3 	"/>
	<path fill="#FFFFFF" d="M238.3,243.2c0,3.9,1.6,7.4,4.1,10c2.6,2.6,6.1,4.1,10,4.1h57h57v-57v-57c0-3.9-1.6-7.4-4.1-10
		s-6.1-4.1-10-4.1h-50h-50c-3.9,0-7.4,1.6-10,4.1s-4.1,6.1-4.1,10v50V243.2z"/>
	<polygon fill="#F7922C" points="177.9,52.1 127.4,1.6 129.1,50.4 	"/>
	<polygon fill="#E8523A" points="80.3,48.8 130.7,99.2 129.1,50.4 	"/>
	<path fill="#FFFFFF" d="M179.5,56c0-1.5-0.6-2.9-1.6-3.9c-1-1-2.4-1.6-3.9-1.6h-22.4h-22.4v22.4v22.4c0,1.5,0.6,2.9,1.6,3.9
		c1,1,2.4,1.6,3.9,1.6h19.7h19.7c1.5,0,2.9-0.6,3.9-1.6s1.6-2.4,1.6-3.9V75.6V56z"/>
	<path fill="#56C2BC" d="M78.6,44.9c0,1.5,0.6,2.9,1.6,3.9s2.4,1.6,3.9,1.6h22.4h22.4V28V5.6c0-1.5-0.6-2.9-1.6-3.9S125,0,123.5,0
		l-19.7,0L84.2,0c-1.5,0-2.9,0.6-3.9,1.6S78.6,4,78.6,5.6v19.7V44.9z"/>
	<polygon fill="#FFC200" points="234.2,253.1 362.3,125 238.3,129.1 	"/>
	<polygon fill="#56C2BC" points="242.5,5.1 114.3,133.3 238.3,129.1 	"/>
	<path fill="#F7922C" d="M224.2,257.3c3.9,0,7.4-1.6,10-4.1s4.1-6.1,4.1-10v-57v-57h-57h-57c-3.9,0-7.4,1.6-10,4.1
		c-2.6,2.6-4.1,6.1-4.1,10v50v50c0,3.9,1.6,7.4,4.1,10c2.6,2.6,6.1,4.1,10,4.1h50H224.2z"/>
	<path fill="#E8523A" d="M252.4,1c-3.9,0-7.4,1.6-10,4.1s-4.1,6.1-4.1,10v57v57h57h57c3.9,0,7.4-1.6,10-4.1s4.1-6.1,4.1-10V65v-50
		c0-3.9-1.6-7.4-4.1-10s-6.1-4.1-10-4.1l-50,0H252.4z"/>
	<polygon fill="#FFC200" points="380.9,126.5 450.2,195.8 448,128.7 	"/>
	<polygon fill="#56C2BC" points="515.1,131 445.8,61.6 448,128.7 	"/>
	<path fill="#F7922C" d="M378.7,121.1c0,2.1,0.9,4,2.2,5.4c1.4,1.4,3.3,2.2,5.4,2.2h30.8H448V97.9V67c0-2.1-0.9-4-2.2-5.4
		c-1.4-1.4-3.3-2.2-5.4-2.2h-27h-27c-2.1,0-4,0.9-5.4,2.2c-1.4,1.4-2.2,3.3-2.2,5.4v27V121.1z"/>
	<path fill="#E8523A" d="M517.3,136.4c0-2.1-0.9-4-2.2-5.4c-1.4-1.4-3.3-2.2-5.4-2.2h-30.8H448v30.8v30.8c0,2.1,0.9,4,2.2,5.4
		c1.4,1.4,3.3,2.2,5.4,2.2h27h27c2.1,0,4-0.9,5.4-2.2c1.4-1.4,2.2-3.3,2.2-5.4v-27V136.4z"/>
	<polygon fill="#FFFFFF" points="1.6,127.5 52,177.9 50.4,129.1 	"/>
	<polygon fill="#56C2BC" points="99.2,130.8 48.8,80.3 50.4,129.1 	"/>
	<path fill="#E8523A" d="M0,123.6c0,1.5,0.6,2.9,1.6,3.9s2.4,1.6,3.9,1.6H28h22.4v-22.4V84.3c0-1.5-0.6-2.9-1.6-3.9
		s-2.4-1.6-3.9-1.6H25.2H5.6c-1.5,0-2.9,0.6-3.9,1.6S0,82.7,0,84.3l0,19.7L0,123.6z"/>
	<path fill="#FFC200" d="M100.8,134.7c0-1.5-0.6-2.9-1.6-3.9c-1-1-2.4-1.6-3.9-1.6H72.9H50.4v22.4V174c0,1.5,0.6,2.9,1.6,3.9
		c1,1,2.4,1.6,3.9,1.6h19.7h19.7c1.5,0,2.9-0.6,3.9-1.6c1-1,1.6-2.4,1.6-3.9v-19.7V134.7z"/>
	<polygon fill="#FFFFFF" points="175,257.3 107.9,190.2 110.2,257.3 	"/>
	<path fill="#56C2BC" d="M40.8,249.6c0,2.1,0.9,4,2.2,5.4c1.4,1.4,3.3,2.2,5.4,2.2h30.8h30.8v-30.8v-30.8c0-2.1-0.9-4-2.2-5.4
		c-1.4-1.4-3.3-2.2-5.4-2.2h-27h-27c-2.1,0-4,0.9-5.4,2.2s-2.2,3.3-2.2,5.4v27V249.6z"/>
</g>
</svg>
