<?xml version="1.0" standalone="no"?>
<!DOCTYPE svg PUBLIC "-//W3C//DTD SVG 1.1//EN" "http://www.w3.org/Graphics/SVG/1.1/DTD/svg11.dtd" >
<svg xmlns="http://www.w3.org/2000/svg" xmlns:xlink="http://www.w3.org/1999/xlink" version="1.1">
<metadata>
Created by FontForge 20150715 at Mon Jan  4 18:30:37 2016
 By Jimmy Wärting
Copyright (c) 1989, 1991 Adobe Systems Incorporated.  All Rights Reserved. Utopia is either a registered trademark or trademark of Adobe Systems Incorporated in the United States and/or other countries. Used under license. The Utopia fonts are freely available; see http://tug.org/fonts/utopia.

Copyright (c) 2008-2012 Andrey V. Panov (panov@canopus.iacp.dvo.ru).

</metadata>
<defs>
<font id="Heuristica-Regular" horiz-adv-x="0" >
  <font-face 
    font-family="Heuristica"
    font-weight="400"
    font-stretch="normal"
    units-per-em="1000"
    panose-1="2 2 6 3 5 7 5 2 2 4"
    ascent="750"
    descent="-250"
    x-height="490"
    cap-height="692"
    bbox="-500 -448 1158 1110"
    underline-thickness="50"
    underline-position="-100"
    stemh="35"
    stemv="99"
    unicode-range="U+0020-FB04"
  />
<missing-glyph horiz-adv-x="608" 
d="M90 0v692h428v-692h-428zM133 93l147 253l-147 254v-507zM153 43h302l-151 261zM153 649l151 -260l150 260h-301zM328 346l147 -253v507z" />
    <glyph glyph-name="igrave" unicode="i&#x300;" horiz-adv-x="291" 
d="M32 0v29c72 5 75 7 75 58v315c0 36 -6 41 -32 45l-38 5v25l157 25l7 -6v-409c0 -51 4 -53 75 -58v-29h-244zM5 680c0 20 24 43 39 43c17 0 34 -10 64 -41l119 -120l-15 -20l-151 84c-30 16 -56 33 -56 54z" />
    <glyph glyph-name="iacute" unicode="&#x456;&#x301;" horiz-adv-x="291" 
d="M32 0v29c72 5 75 7 75 58v315c0 36 -6 41 -32 45l-38 5v25l157 25l7 -6v-409c0 -51 4 -53 75 -58v-29h-244zM55 562l119 120c30 31 47 41 64 41c15 0 39 -23 39 -43c0 -21 -26 -38 -56 -54l-151 -84z" />
    <glyph glyph-name="icircumflex" unicode="i&#x302;" horiz-adv-x="291" 
d="M-3 562l118 133c13 14 24 25 36 25s24 -12 36 -25l117 -133l-19 -21l-103 77c-11 8 -22 15 -31 15c-8 0 -20 -7 -31 -15l-103 -77zM32 0v29c72 5 75 7 75 58v315c0 36 -6 41 -32 45l-38 5v25l157 25l7 -6v-409c0 -51 4 -53 75 -58v-29h-244z" />
    <glyph glyph-name="idieresis" unicode="i&#x308;" horiz-adv-x="291" 
d="M-19 627c0 29 22 56 61 56s60 -27 60 -56s-21 -57 -60 -57s-61 28 -61 57zM190 627c0 29 21 56 60 56c40 0 60 -27 60 -56s-20 -57 -60 -57c-39 0 -60 28 -60 57zM32 0v29c72 5 75 7 75 58v315c0 36 -6 41 -32 45l-38 5v25l157 25l7 -6v-409c0 -51 4 -53 75 -58v-29h-244
z" />
    <glyph glyph-name="Aogonek" unicode="A&#x328;" horiz-adv-x="635" 
d="M-29 0v29c63 3 72 15 93 69c35 91 77 211 108 298l105 296h74l212 -603c18 -52 29 -55 87 -60v-29h-92c-48 -40 -76 -82 -76 -132c0 -36 26 -54 58 -54c16 0 40 4 57 12l8 -21c-24 -21 -53 -35 -93 -35c-90 0 -104 60 -104 91c0 63 43 103 107 139h-121v29l45 4
c32 3 37 14 27 43l-67 191h-224c-23 -71 -44 -133 -61 -193c-8 -27 -5 -37 25 -40l52 -5v-29h-220zM188 305h199l-99 286h-3c-30 -88 -65 -186 -97 -286z" />
    <glyph glyph-name="imacron" unicode="i&#x304;" horiz-adv-x="291" 
d="M10 597v59h288v-59h-288zM32 0v29c72 5 75 7 75 58v315c0 36 -6 41 -32 45l-38 5v25l157 25l7 -6v-409c0 -51 4 -53 75 -58v-29h-244z" />
    <glyph glyph-name="ibreve" unicode="i&#x306;" horiz-adv-x="291" 
d="M17 704h24c2 -21 20 -71 113 -71s111 50 113 71h24c0 -63 -12 -136 -137 -136s-137 73 -137 136zM32 0v29c72 5 75 7 75 58v315c0 36 -6 41 -32 45l-38 5v25l157 25l7 -6v-409c0 -51 4 -53 75 -58v-29h-244z" />
    <glyph glyph-name="jcircumflex" unicode="j&#x302;" horiz-adv-x="280" 
d="M0 562l117 133c13 14 24 25 36 25s24 -12 36 -25l117 -133l-19 -21l-103 77c-11 8 -22 15 -31 15c-8 0 -20 -7 -31 -15l-103 -77zM-33 -218c61 15 95 36 113 71c21 41 26 111 26 183v366c0 34 -6 41 -32 45l-38 5v25l157 25l7 -6v-489c0 -125 -30 -212 -157 -240
c-28 -6 -56 -9 -74 -9z" />
    <glyph glyph-name="uni01D0" unicode="i&#x30c;" horiz-adv-x="291" 
d="M1 699l19 21l103 -77c11 -8 23 -15 31 -15c9 0 20 7 31 15l103 77l19 -21l-117 -133c-12 -13 -24 -25 -36 -25s-23 11 -36 25zM32 0v29c72 5 75 7 75 58v315c0 36 -6 41 -32 45l-38 5v25l157 25l7 -6v-409c0 -51 4 -53 75 -58v-29h-244z" />
    <glyph glyph-name="uni01F0" unicode="j&#x30c;" horiz-adv-x="280" 
d="M0 699l19 21l103 -77c11 -8 23 -15 31 -15c9 0 20 7 31 15l103 77l19 -21l-117 -133c-12 -13 -24 -25 -36 -25s-23 11 -36 25zM-33 -218c61 15 95 36 113 71c21 41 26 111 26 183v366c0 34 -6 41 -32 45l-38 5v25l157 25l7 -6v-489c0 -125 -30 -212 -157 -240
c-28 -6 -56 -9 -74 -9z" />
    <glyph glyph-name="f_b" unicode="fb" horiz-adv-x="917" 
d="M30 450v40h77v21c0 144 73 231 208 231c48 0 91 -12 119 -28l62 28l7 -6v-305c37 22 96 71 172 71c180 0 193 -184 193 -246c0 -204 -116 -268 -249 -268c-75 0 -117 19 -152 39l-40 -39l-18 8v634c-15 52 -59 77 -99 77c-49 0 -109 -28 -109 -184v-33h112v-40h-112v-364
c0 -51 6 -52 81 -57v-29h-250v29c72 5 75 7 75 58v363h-77zM503 163c0 -24 1 -45 7 -63c18 -50 57 -77 110 -77c99 0 144 80 144 227c0 174 -88 198 -129 198c-56 0 -98 -22 -122 -70c-8 -16 -10 -32 -10 -57v-158z" />
    <glyph glyph-name="f_h" unicode="fh" horiz-adv-x="926" 
d="M32 0v29c72 5 75 7 75 58v363h-77v40h77v21c0 78 19 133 54 169c37 39 93 62 158 62c48 0 91 -12 119 -28l62 28l7 -6v-310c63 42 108 76 181 76c93 0 148 -58 148 -159v-256c0 -49 6 -53 75 -58v-29h-244v29c70 5 75 9 75 58v236c0 87 -37 125 -105 125
c-53 0 -99 -33 -120 -73c-8 -15 -9 -29 -9 -54v-234c0 -49 6 -53 75 -58v-29h-244v29c69 5 75 7 75 58v543c-15 52 -60 77 -100 77c-54 0 -113 -28 -113 -184v-33h112v-40h-112v-364c0 -51 6 -52 75 -57v-29h-244z" />
    <glyph glyph-name="f_j" unicode="fj" horiz-adv-x="599" 
d="M32 0v29c72 5 75 7 75 58v363h-77v40h77v18c0 143 81 234 225 234c112 0 174 -48 174 -92c0 -32 -33 -46 -55 -46c-17 0 -24 8 -28 18c-19 54 -55 85 -102 85c-53 0 -120 -24 -120 -171v-46h145c80 0 140 9 173 12v-495c0 -125 -32 -212 -159 -240c-28 -6 -58 -9 -76 -9
l-2 24c61 15 97 35 115 70c21 41 28 112 28 184v368c0 35 -5 46 -31 46h-193v-364c0 -51 4 -53 85 -57v-29h-254z" />
    <glyph glyph-name="f_k" unicode="fk" horiz-adv-x="843" 
d="M30 450v40h77v21c0 137 75 231 212 231c48 0 91 -12 119 -28l62 28l8 -6v-468h2c23 34 122 158 151 193c20 24 29 29 63 29h103v-28c-58 -6 -83 -18 -117 -43s-66 -54 -114 -109c-10 -11 -8 -16 -3 -23c38 -54 116 -149 178 -210c31 -31 56 -46 86 -54v-28l-75 3
c-32 2 -71 14 -108 51c-52 53 -123 140 -164 205h-2v-167c0 -51 4 -53 75 -58v-29h-244v29c69 5 75 7 75 58v543c-15 52 -60 77 -100 77c-54 0 -113 -37 -113 -184v-33h112v-40h-112v-364c0 -51 6 -52 75 -57v-29h-244v29c72 5 75 7 75 58v363h-77z" />
    <glyph glyph-name="longs_b" unicode="&#x17f;b" horiz-adv-x="914" 
d="M25 0v29c69 5 72 7 72 58v413c0 149 69 242 213 242c49 0 92 -12 120 -28l63 28l7 -6v-305c37 22 96 71 172 71c180 0 193 -184 193 -246c0 -204 -116 -268 -249 -268c-75 0 -117 19 -152 39l-40 -39l-18 8v634c-15 52 -60 77 -101 77c-55 0 -114 -39 -114 -195v-426
c0 -51 4 -52 75 -57v-29h-241zM500 163c0 -24 1 -45 7 -63c18 -50 57 -77 110 -77c99 0 144 80 144 227c0 174 -88 198 -129 198c-56 0 -98 -22 -122 -70c-8 -16 -10 -32 -10 -57v-158z" />
    <glyph glyph-name="longs_h" unicode="&#x17f;h" horiz-adv-x="922" 
d="M25 0v29c69 5 72 7 72 58v413c0 149 69 242 215 242c51 0 94 -12 122 -28l62 28l7 -6v-310c63 42 108 76 181 76c93 0 148 -58 148 -159v-256c0 -49 6 -53 75 -58v-29h-244v29c70 5 75 9 75 58v236c0 87 -37 125 -105 125c-53 0 -99 -33 -120 -73c-8 -15 -9 -29 -9 -54
v-234c0 -49 6 -53 75 -58v-29h-240v29c68 5 71 7 71 58v543c-15 52 -60 77 -103 77c-57 0 -116 -39 -116 -195v-426c0 -51 4 -52 75 -57v-29h-241z" />
    <glyph glyph-name="longs_i" unicode="&#x17f;i" horiz-adv-x="594" 
d="M337 0v29c70 5 73 7 73 58v315c0 36 -6 41 -32 45l-38 5v25l157 25l7 -6v-409c0 -51 4 -53 75 -58v-29h-242zM25 0v29c69 5 72 7 72 58v421c0 142 81 234 224 234c111 0 173 -48 173 -92c0 -32 -33 -46 -55 -46c-17 0 -24 8 -28 18c-19 54 -55 85 -101 85
c-52 0 -119 -24 -119 -171v-449c0 -51 4 -53 73 -58v-29h-239z" />
    <glyph glyph-name="longs_k" unicode="&#x17f;k" horiz-adv-x="839" 
d="M25 0v29c69 5 72 7 72 58v413c0 149 69 242 215 242c51 0 94 -12 122 -28l63 28l7 -6v-468h2c23 34 122 158 151 193c20 24 29 29 63 29h103v-28c-58 -6 -83 -18 -117 -43s-66 -54 -114 -109c-10 -11 -8 -16 -3 -23c38 -54 116 -149 178 -210c31 -31 56 -46 86 -54v-28
l-75 3c-32 2 -71 14 -108 51c-52 53 -123 140 -164 205h-2v-167c0 -51 4 -53 75 -58v-29h-240v29c68 5 71 7 71 58v543c-15 52 -60 77 -103 77c-57 0 -116 -39 -116 -195v-426c0 -51 4 -52 75 -57v-29h-241z" />
    <glyph glyph-name="longs_l" unicode="&#x17f;l" horiz-adv-x="594" 
d="M25 0v29c69 5 72 7 72 58v419c0 70 19 138 54 174c37 39 93 62 161 62c51 0 94 -12 122 -28l63 28l7 -6v-649c0 -51 4 -53 75 -58v-29h-240v29c68 5 71 7 71 58v543c-15 52 -60 77 -103 77c-57 0 -116 -33 -116 -189v-432c0 -51 4 -52 75 -57v-29h-241z" />
    <glyph glyph-name="longs_longs" unicode="&#x17f;&#x17f;" horiz-adv-x="604" 
d="M25 0v29c69 5 72 7 72 58v431c0 65 9 113 32 148c25 38 69 61 121 61c74 0 118 -40 118 -73c0 -30 -26 -46 -46 -46c-15 0 -22 7 -27 17c-25 58 -47 67 -65 67c-13 0 -47 -11 -43 -103l4 -99v-403c0 -51 4 -53 73 -58v-29h-239zM329 0v29c67 5 70 7 70 58v438
c0 66 10 119 33 154c25 38 72 63 125 63c78 0 120 -41 120 -74c0 -30 -29 -47 -49 -47c-15 0 -22 7 -27 17c-25 58 -45 69 -66 69c-14 0 -51 -10 -47 -105l5 -112v-403c0 -51 4 -53 75 -58v-29h-239z" />
    <glyph glyph-name="longs_longs_i" unicode="&#x17f;&#x17f;i" horiz-adv-x="896" 
d="M25 0v29c69 5 72 7 72 58v431c0 65 9 113 32 148c25 38 69 61 121 61c74 0 118 -40 118 -73c0 -30 -26 -46 -46 -46c-15 0 -22 7 -27 17c-25 58 -47 67 -65 67c-13 0 -47 -11 -43 -103l4 -99v-403c0 -51 4 -53 73 -58v-29h-239zM329 0v29c67 5 70 7 70 58v421
c0 142 81 234 224 234c111 0 173 -48 173 -92c0 -32 -33 -46 -55 -46c-17 0 -24 8 -28 18c-19 54 -55 85 -101 85c-52 0 -119 -24 -119 -171v-449c0 -51 4 -53 73 -58v-29h-237zM639 0v29c70 5 73 7 73 58v315c0 36 -6 41 -32 45l-38 5v25l157 25l7 -6v-409
c0 -51 4 -53 75 -58v-29h-242z" />
    <glyph glyph-name="longs_longs_l" unicode="&#x17f;&#x17f;l" horiz-adv-x="896" 
d="M25 0v29c69 5 72 7 72 58v431c0 65 9 113 32 148c25 38 69 61 121 61c74 0 118 -40 118 -73c0 -30 -26 -46 -46 -46c-15 0 -22 7 -27 17c-25 58 -47 67 -65 67c-13 0 -47 -11 -43 -103l4 -99v-403c0 -51 4 -53 73 -58v-29h-239zM329 0v29c67 5 70 7 70 58v419
c0 70 19 138 54 174c37 39 93 62 161 62c51 0 94 -12 122 -28l63 28l7 -6v-649c0 -51 4 -53 75 -58v-29h-240v29c68 5 71 7 71 58v543c-15 52 -60 77 -103 77c-57 0 -116 -33 -116 -189v-432c0 -51 4 -52 75 -57v-29h-239z" />
    <glyph glyph-name="ff" unicode="ff" horiz-adv-x="638" 
d="M30 450v40h77v27c0 66 10 112 33 147c25 38 70 63 124 63c77 0 122 -40 122 -73c0 -30 -28 -45 -48 -45c-15 0 -22 7 -27 17c-25 58 -47 66 -67 66c-15 0 -51 -11 -47 -103l4 -99h225v35c0 66 10 119 33 154c25 38 72 63 127 63c80 0 122 -40 122 -73
c0 -30 -29 -47 -49 -47c-15 0 -22 7 -27 17c-25 58 -47 68 -68 68c-16 0 -51 -10 -48 -105l4 -112h122v-40h-122v-364c0 -51 4 -53 95 -57v-29h-264v29c72 5 75 7 75 58v363h-225v-364c0 -51 4 -53 85 -57v-29h-254v29c72 5 75 7 75 58v363h-77z" />
    <glyph glyph-name="fi" unicode="fi" horiz-adv-x="610" 
d="M30 450v40h77v18c0 68 18 125 54 166c37 42 98 68 173 68c114 0 176 -48 176 -92c0 -32 -33 -46 -55 -46c-17 0 -24 8 -28 18c-19 54 -55 85 -104 85c-55 0 -122 -24 -122 -171v-46h146c80 0 140 9 173 12v-415c0 -51 4 -53 75 -58v-29h-244v29c72 5 75 7 75 58v317
c0 35 -6 46 -32 46h-193v-364c0 -51 4 -53 85 -57v-29h-254v29c72 5 75 7 75 58v363h-77z" />
    <glyph glyph-name="fl" unicode="fl" horiz-adv-x="610" 
d="M30 450v40h77v21c0 78 19 133 54 169c37 39 93 62 164 62c54 0 97 -12 125 -28l63 28l7 -6v-649c0 -51 4 -53 75 -58v-29h-244v29c72 5 75 7 75 58v543c-15 52 -60 77 -106 77c-60 0 -119 -28 -119 -184v-33h122v-40h-122v-364c0 -51 4 -53 95 -57v-29h-264v29
c72 5 75 7 75 58v363h-77z" />
    <glyph glyph-name="ffi" unicode="ffi" horiz-adv-x="929" 
d="M30 450v40h77v27c0 66 10 112 33 147c25 38 70 63 124 63c77 0 122 -40 122 -73c0 -30 -28 -45 -48 -45c-15 0 -22 7 -27 17c-25 58 -47 66 -67 66c-15 0 -51 -11 -47 -103l4 -99h225v18c0 144 81 234 227 234c114 0 176 -48 176 -92c0 -32 -33 -46 -55 -46
c-17 0 -24 8 -28 18c-19 54 -55 85 -104 85c-55 0 -122 -24 -122 -171v-46h146c80 0 140 9 173 12v-415c0 -51 4 -53 75 -58v-29h-244v29c72 5 75 7 75 58v317c0 35 -6 46 -32 46h-193v-364c0 -51 4 -53 85 -57v-29h-254v29c72 5 75 7 75 58v363h-225v-364
c0 -51 4 -53 85 -57v-29h-254v29c72 5 75 7 75 58v363h-77z" />
    <glyph glyph-name="ffl" unicode="ffl" horiz-adv-x="929" 
d="M30 450v40h77v27c0 66 10 112 33 147c25 38 70 63 124 63c77 0 122 -40 122 -73c0 -30 -28 -45 -48 -45c-15 0 -22 7 -27 17c-25 58 -47 66 -67 66c-15 0 -51 -11 -47 -103l4 -99h225v21c0 78 19 133 54 169c37 39 93 62 164 62c54 0 97 -12 125 -28l63 28l7 -6v-649
c0 -51 4 -53 75 -58v-29h-244v29c72 5 75 7 75 58v543c-15 52 -60 77 -106 77c-60 0 -119 -28 -119 -184v-33h122v-40h-122v-364c0 -51 4 -53 95 -57v-29h-264v29c72 5 75 7 75 58v363h-225v-364c0 -51 4 -53 85 -57v-29h-254v29c72 5 75 7 75 58v363h-77z" />
    <glyph glyph-name="esh_i" unicode="&#x283;i" horiz-adv-x="641" 
d="M-28 -171c0 33 27 49 47 49c15 0 22 -7 27 -17c25 -58 47 -68 68 -68c14 0 45 10 40 105l-5 102v508c0 142 81 234 221 234c108 0 170 -48 170 -92c0 -32 -33 -46 -55 -46c-17 0 -24 8 -28 18c-19 54 -55 85 -98 85c-49 0 -116 -24 -116 -171v-561
c0 -66 -8 -119 -31 -154c-25 -38 -63 -63 -118 -63c-78 0 -122 39 -122 71zM382 0v29c72 5 75 7 75 58v315c0 36 -6 41 -32 45l-38 5v25l157 25l7 -6v-409c0 -51 4 -53 75 -58v-29h-244z" />
    <glyph glyph-name="esh_k" unicode="&#x283;k" horiz-adv-x="874" 
d="M-28 -171c0 33 27 49 47 49c15 0 22 -7 27 -17c25 -58 47 -68 68 -68c14 0 45 10 40 105l-5 102v506c0 70 12 129 48 171c35 41 96 65 155 65c51 0 95 -13 117 -28l63 28l7 -6v-468h2c23 34 122 158 151 193c20 24 29 29 63 29h103v-28c-58 -6 -83 -18 -117 -43
s-66 -54 -114 -109c-10 -11 -8 -16 -3 -23c38 -54 116 -149 178 -210c31 -31 56 -46 86 -54v-28l-75 3c-32 2 -71 14 -108 51c-52 53 -123 140 -164 205h-2v-167c0 -51 4 -53 75 -58v-29h-244v29c72 5 75 7 75 58v543c-14 54 -48 77 -98 77c-57 0 -111 -67 -106 -172l2 -45
v-515c0 -66 -8 -119 -31 -154c-25 -38 -63 -63 -118 -63c-78 0 -122 39 -122 71z" />
    <glyph glyph-name="esh_l" unicode="&#x283;l" horiz-adv-x="629" 
d="M-28 -171c0 33 27 49 47 49c15 0 22 -7 27 -17c25 -58 47 -68 68 -68c14 0 45 10 40 105l-5 102v506c0 70 12 129 48 171c35 41 96 65 155 65c51 0 95 -13 117 -28l63 28l7 -6v-649c0 -51 4 -53 75 -58v-29h-244v29c72 5 75 7 75 58v543c-14 54 -48 77 -98 77
c-57 0 -111 -67 -106 -172l2 -45v-515c0 -66 -8 -119 -31 -154c-25 -38 -63 -63 -118 -63c-78 0 -122 39 -122 71z" />
    <glyph glyph-name=".notdef" horiz-adv-x="608" 
d="M90 0v692h428v-692h-428zM133 93l147 253l-147 254v-507zM153 43h302l-151 261zM153 649l151 -260l150 260h-301zM328 346l147 -253v507z" />
    <glyph glyph-name=".notdef" horiz-adv-x="608" 
d="M90 0v692h428v-692h-428zM133 93l147 253l-147 254v-507zM153 43h302l-151 261zM153 649l151 -260l150 260h-301zM328 346l147 -253v507z" />
    <glyph glyph-name="space" unicode=" " horiz-adv-x="225" 
 />
    <glyph glyph-name="exclam" unicode="!" horiz-adv-x="242" 
d="M66 640c-4 45 1 67 55 67c55 0 60 -22 56 -67l-42 -431h-29zM58 51c0 37 25 65 63 65c39 0 63 -28 63 -65c-1 -36 -24 -63 -63 -63c-38 0 -63 27 -63 63z" />
    <glyph glyph-name="quotedbl" unicode="&#x22;" horiz-adv-x="458" 
d="M267 689c-5 36 8 53 45 53s50 -17 45 -53l-35 -225h-20zM102 689c-5 36 8 53 45 53s50 -17 45 -53l-35 -225h-20z" />
    <glyph glyph-name="numbersign" unicode="#" horiz-adv-x="530" 
d="M11 232l12 46h106l33 133h-107l12 46h106l52 211h54l-52 -211h135l52 211h53l-52 -211h104l-10 -46h-105l-33 -133h104l-10 -46h-105l-57 -232h-54l58 232h-135l-57 -232h-55l58 232h-107zM183 278h135l33 133h-135z" />
    <glyph glyph-name="dollar" unicode="$" horiz-adv-x="530" 
d="M44 110c0 30 26 51 46 51c14 0 22 -8 29 -22c41 -85 92 -103 124 -104v276c-139 41 -187 104 -187 184c0 117 93 170 187 172v76h40v-75c119 -3 175 -61 175 -103c0 -29 -30 -41 -46 -41c-14 0 -21 5 -27 20c-24 59 -62 86 -102 89v-243c134 -38 204 -99 204 -207
c0 -163 -165 -183 -204 -183v-102h-40v102c-153 4 -199 77 -199 110zM135 522c0 -74 57 -100 108 -117v227c-43 0 -108 -28 -108 -110zM283 35c49 -1 117 24 117 117c0 89 -51 125 -117 146v-263z" />
    <glyph glyph-name="percent" unicode="%" horiz-adv-x="838" 
d="M50 497c0 115 51 183 157 183c51 0 84 -14 111 -34c15 -10 20 -13 43 -13h169c34 2 53 8 71 33l24 34l34 -21l-440 -704l-36 27l374 599h-205c7 -19 13 -52 13 -104c0 -115 -51 -183 -158 -183c-106 0 -157 68 -157 183zM124 497c0 -96 31 -151 83 -151
c53 0 84 55 84 151c0 104 -33 151 -84 151c-50 0 -83 -47 -83 -151zM473 171c0 115 51 183 157 183c107 0 158 -68 158 -183s-51 -183 -158 -183c-106 0 -157 68 -157 183zM547 171c0 -96 31 -151 83 -151c53 0 84 55 84 151c0 104 -33 151 -84 151c-50 0 -83 -47 -83 -151z
" />
    <glyph glyph-name="ampersand" unicode="&#x26;" horiz-adv-x="706" 
d="M46 176c0 98 79 149 146 190c-32 40 -66 87 -66 155c0 87 69 159 163 159c81 0 148 -50 148 -138c0 -80 -68 -119 -146 -160c57 -70 120 -139 210 -221c64 74 69 179 61 255c25 14 53 20 76 17c23 -44 22 -72 12 -103c-22 -64 -63 -124 -123 -194
c39 -38 117 -105 165 -118l-5 -25l-21 2c-61 5 -118 17 -166 56l-28 22c-66 -58 -133 -85 -208 -85c-124 0 -218 68 -218 188zM143 196c0 -95 65 -159 151 -159c65 0 107 23 151 61c-90 81 -167 161 -233 240c-23 -20 -69 -63 -69 -142zM203 546c0 -50 24 -94 65 -140
c55 38 92 85 92 142c0 54 -25 97 -75 97c-43 0 -82 -39 -82 -99z" />
    <glyph glyph-name="quotesingle" unicode="'" horiz-adv-x="278" 
d="M94 689c-5 36 8 53 45 53s50 -17 45 -53l-35 -225h-20z" />
    <glyph glyph-name="parenleft" unicode="(" horiz-adv-x="350" 
d="M105 282c0 186 45 403 220 410v-25c-63 -13 -150 -99 -150 -385c0 -288 92 -373 150 -385v-25c-175 7 -220 224 -220 410z" />
    <glyph glyph-name="parenright" unicode=")" horiz-adv-x="350" 
d="M25 -103c58 12 150 97 150 385c0 286 -87 372 -150 385v25c175 -7 220 -224 220 -410s-45 -403 -220 -410v25z" />
    <glyph glyph-name="asterisk" unicode="*" horiz-adv-x="412" 
d="M57 628c15 22 33 20 48 7l76 -64c10 -9 17 -6 13 11l-19 94c-4 20 6 31 31 31s35 -11 31 -31l-19 -94c-4 -17 3 -20 13 -11l77 65c14 12 34 15 48 -8c10 -16 11 -36 -13 -45l-96 -38c-18 -6 -20 -14 -3 -20l96 -39c22 -9 27 -29 13 -49c-13 -18 -32 -21 -48 -5l-72 69
c-14 13 -18 4 -15 -12l19 -93c5 -23 -4 -40 -31 -40s-36 17 -31 40l19 93c3 16 -1 25 -15 12l-72 -68c-17 -16 -35 -14 -48 4c-13 20 -9 40 13 49l96 39c17 6 15 14 -3 20l-95 37c-25 10 -24 30 -13 46z" />
    <glyph glyph-name="plus" unicode="+" horiz-adv-x="570" 
d="M43 221v58h208v211h68v-211h208v-58h-208v-221h-68v221h-208z" />
    <glyph glyph-name="comma" unicode="," horiz-adv-x="265" 
d="M51 -122c32 35 58 75 58 116c0 43 -33 61 -33 97c0 26 18 50 49 50c38 0 68 -37 68 -90c0 -79 -73 -145 -123 -192z" />
    <glyph glyph-name="hyphen" unicode="-" horiz-adv-x="392" 
d="M74 216v70h245v-70h-245z" />
    <glyph glyph-name="period" unicode="." horiz-adv-x="265" 
d="M70 51c0 37 25 65 63 65c39 0 63 -28 63 -65c-1 -36 -24 -63 -63 -63c-38 0 -63 27 -63 63z" />
    <glyph glyph-name="slash" unicode="/" horiz-adv-x="460" 
d="M92 -15l210 722h67l-210 -722h-67z" />
    <glyph glyph-name="zero" unicode="0" horiz-adv-x="530" 
d="M41 334c0 200 59 346 224 346s224 -146 224 -346s-59 -346 -224 -346s-224 146 -224 346zM143 334c0 -163 27 -311 122 -311s122 148 122 311s-27 311 -122 311s-122 -148 -122 -311z" />
    <glyph glyph-name="one" unicode="1" horiz-adv-x="530" 
d="M109 0v29l84 7c11 1 19 4 24 11c6 7 9 19 9 38v485c0 29 -7 37 -24 39l-93 11v25l206 35l5 -6v-589c0 -39 12 -47 33 -49l84 -7v-29h-328z" />
    <glyph glyph-name="two" unicode="2" horiz-adv-x="530" 
d="M27 10c19 78 62 146 185 253c87 77 141 137 141 244c0 73 -22 138 -99 138c-62 0 -101 -55 -117 -123c-4 -17 -11 -27 -29 -27c-17 0 -55 16 -55 50c0 52 71 135 208 135c105 0 197 -48 197 -187c0 -112 -74 -157 -170 -227c-93 -67 -152 -138 -168 -190h256
c40 0 60 7 81 61l28 -5l-34 -132h-414z" />
    <glyph glyph-name="three" unicode="3" horiz-adv-x="530" 
d="M27 102c0 36 35 55 53 55c14 0 24 -9 30 -28c19 -56 62 -106 128 -106c71 0 130 42 130 161c0 87 -48 164 -133 164c-48 0 -75 -10 -87 -10c-13 0 -18 11 -18 28c0 18 5 28 18 28c12 0 39 -10 87 -10c85 0 106 75 106 135c0 56 -19 126 -98 126c-56 0 -94 -44 -116 -112
c-4 -13 -12 -20 -25 -20c-14 0 -49 17 -49 48c0 43 65 119 197 119c107 0 194 -49 194 -160c0 -99 -87 -139 -141 -148v-4c55 -5 170 -45 170 -179c0 -128 -91 -201 -236 -201c-141 0 -210 71 -210 114z" />
    <glyph glyph-name="four" unicode="4" horiz-adv-x="530" 
d="M19 200c92 156 204 330 298 468h73v-442h103v-47h-103v-102c0 -34 7 -40 30 -43l45 -5v-29h-264v29l64 6c24 2 35 8 35 42v102h-272zM91 226h209v345h-2c-77 -121 -147 -236 -207 -345z" />
    <glyph glyph-name="five" unicode="5" horiz-adv-x="530" 
d="M40 102c0 33 33 53 53 53c14 0 23 -9 28 -24c20 -57 56 -108 126 -108c87 0 129 78 129 181c0 132 -70 179 -134 179c-54 0 -95 -23 -137 -71l-24 12l20 335l10 9h334l5 -8l-24 -68h-249c-19 0 -26 -4 -29 -29l-23 -187l2 -2c32 29 91 53 146 53c119 0 207 -72 207 -212
c0 -127 -75 -227 -240 -227c-130 0 -200 68 -200 114z" />
    <glyph glyph-name="six" unicode="6" horiz-adv-x="530" 
d="M44 309c0 249 97 371 256 371c120 0 169 -67 169 -107c0 -28 -31 -45 -53 -45c-15 0 -23 9 -26 21c-15 57 -47 96 -93 96c-90 0 -153 -89 -154 -309h2c27 33 84 86 163 86c107 0 191 -73 191 -208c0 -136 -79 -226 -227 -226c-150 0 -228 105 -228 321zM145 236
c0 -120 42 -213 129 -213c84 0 125 71 125 176c0 115 -62 172 -125 172c-84 0 -129 -74 -129 -135z" />
    <glyph glyph-name="seven" unicode="7" horiz-adv-x="530" 
d="M41 528l31 140h416l9 -11c-35 -126 -88 -188 -152 -300c-53 -93 -80 -199 -75 -331c1 -29 -20 -38 -49 -38c-31 0 -54 8 -54 41c0 118 57 230 143 353c81 116 99 174 109 210h-270c-45 0 -58 -15 -71 -43l-10 -21h-27z" />
    <glyph glyph-name="eight" unicode="8" horiz-adv-x="530" 
d="M42 182c0 102 65 160 132 176v3c-60 16 -110 67 -110 149c0 108 86 170 201 170s201 -62 201 -170c0 -82 -49 -133 -110 -149v-3c68 -16 132 -74 132 -176c0 -101 -61 -194 -223 -194s-223 93 -223 194zM142 179c0 -88 39 -156 123 -156s123 68 123 156
c0 91 -43 159 -123 159s-123 -68 -123 -159zM161 512c0 -68 32 -138 104 -138s104 70 104 138c0 77 -36 133 -104 133s-104 -56 -104 -133z" />
    <glyph glyph-name="nine" unicode="9" horiz-adv-x="530" 
d="M36 457c0 138 92 223 220 223c64 0 119 -22 157 -67c39 -47 64 -128 64 -252c0 -145 -25 -233 -66 -290c-38 -53 -100 -83 -181 -83c-121 0 -174 61 -174 105c0 31 28 51 47 51c17 0 24 -8 28 -21c15 -47 40 -100 108 -100c64 0 99 50 117 116c18 69 23 150 23 213h-2
c-34 -49 -86 -84 -148 -84c-103 0 -193 64 -193 189zM136 485c0 -96 45 -164 123 -164c53 0 92 32 108 79c6 16 7 36 7 53c0 97 -39 192 -119 192c-78 0 -119 -68 -119 -160z" />
    <glyph glyph-name="colon" unicode=":" horiz-adv-x="265" 
d="M70 425c0 37 25 65 63 65c39 0 63 -28 63 -65c-1 -36 -24 -63 -63 -63c-38 0 -63 27 -63 63zM70 51c0 37 25 65 63 65c39 0 63 -28 63 -65c-1 -36 -24 -63 -63 -63c-38 0 -63 27 -63 63z" />
    <glyph glyph-name="semicolon" unicode=";" horiz-adv-x="265" 
d="M70 425c0 37 25 65 63 65c39 0 63 -28 63 -65c-1 -36 -24 -63 -63 -63c-38 0 -63 27 -63 63zM51 -122c32 35 58 75 58 116c0 43 -33 61 -33 97c0 26 18 50 49 50c38 0 68 -37 68 -90c0 -79 -73 -145 -123 -192z" />
    <glyph glyph-name="less" unicode="&#x3c;" horiz-adv-x="570" 
d="M46 210v80l478 209v-69l-419 -180l419 -180v-69z" />
    <glyph glyph-name="equal" unicode="=" horiz-adv-x="570" 
d="M43 111v58h484v-58h-484zM43 331v58h484v-58h-484z" />
    <glyph glyph-name="greater" unicode="&#x3e;" horiz-adv-x="570" 
d="M46 1v69l419 180l-419 180v69l478 -209v-80z" />
    <glyph glyph-name="question" unicode="?" horiz-adv-x="389" 
d="M29 591c0 33 40 116 172 116c90 0 158 -45 158 -136c0 -79 -62 -116 -96 -140c-50 -35 -76 -71 -76 -115c0 -55 47 -73 68 -73c12 0 23 2 30 4l8 -20c-27 -22 -65 -28 -96 -28c-54 0 -107 34 -107 97c0 45 21 71 81 117c45 34 89 95 89 158c0 58 -18 101 -64 101
c-40 0 -68 -32 -82 -107c-3 -17 -17 -24 -32 -24c-17 0 -53 13 -53 50zM128 50c0 37 26 63 62 63s62 -26 62 -63c0 -36 -26 -62 -62 -62s-62 26 -62 62z" />
    <glyph glyph-name="at" unicode="@" horiz-adv-x="793" 
d="M46 303c0 254 197 404 403 404c190 0 306 -131 306 -293c0 -137 -108 -242 -225 -242c-43 0 -70 16 -70 63c0 19 4 44 14 74l-2 1c-28 -50 -104 -138 -183 -138c-30 0 -66 18 -66 83c0 74 74 278 252 278c23 0 36 -3 55 -13l4 8h65l-66 -258c-3 -10 -4 -19 -4 -26
c0 -27 16 -34 38 -34c67 0 138 96 138 199c0 167 -112 257 -254 257c-201 0 -327 -176 -327 -359c0 -123 66 -283 291 -283c58 0 124 12 169 31l8 -25c-62 -34 -143 -45 -205 -45c-167 0 -341 102 -341 318zM305 270c0 -33 12 -51 34 -51c71 0 165 178 184 271
c-15 10 -27 14 -47 14c-105 0 -171 -173 -171 -234z" />
    <glyph glyph-name="A" unicode="A" horiz-adv-x="635" 
d="M-29 0v29c63 3 72 15 93 69c35 91 77 211 108 298l105 296h74l212 -603c18 -52 29 -55 87 -60v-29h-256v29l45 4c32 3 37 14 27 43l-67 191h-224c-23 -71 -44 -133 -61 -193c-8 -27 -5 -37 25 -40l52 -5v-29h-220zM188 305h199l-99 286h-3c-30 -88 -65 -186 -97 -286z
" />
    <glyph glyph-name="B" unicode="B" horiz-adv-x="646" 
d="M35 0v29c88 6 90 8 90 64v506c0 56 -2 58 -90 64v29h289c80 0 138 -10 177 -36c40 -27 62 -68 62 -123c0 -77 -55 -135 -149 -154v-2c97 -13 181 -65 181 -183c0 -139 -98 -194 -250 -194h-310zM224 112c0 -62 16 -77 96 -77c86 0 168 32 168 152c0 106 -68 168 -192 168
h-72v-243zM224 390h67c104 0 167 39 167 137c0 103 -80 130 -153 130c-78 0 -81 -7 -81 -50v-217z" />
    <glyph glyph-name="C" unicode="C" horiz-adv-x="684" 
d="M48 341c0 113 34 199 91 263c60 67 159 103 282 103c91 0 167 -18 212 -39v-156h-30c-19 118 -90 160 -192 160c-186 0 -251 -164 -251 -328c0 -121 43 -324 249 -324c131 0 182 76 210 180h30l-14 -167c-48 -26 -140 -48 -220 -48c-112 0 -210 23 -272 85
c-60 60 -95 154 -95 271z" />
    <glyph glyph-name="D" unicode="D" horiz-adv-x="779" 
d="M35 0v29c88 6 90 8 90 64v506c0 56 -2 58 -90 64v29h332c291 0 364 -170 364 -334c0 -179 -77 -358 -384 -358h-312zM224 125c0 -79 17 -90 104 -90c168 0 291 67 291 319c0 169 -67 303 -279 303c-107 0 -116 -5 -116 -57v-475z" />
    <glyph glyph-name="E" unicode="E" horiz-adv-x="606" 
d="M35 0v29c88 6 90 8 90 64v506c0 56 -2 58 -90 64v29h505v-164h-30c-14 104 -37 129 -151 129h-98c-32 0 -37 -4 -37 -36v-242h140c85 0 89 24 98 86h30v-211h-30c-9 63 -13 87 -98 87h-140v-221c0 -49 4 -66 25 -75c21 -8 57 -10 104 -10c126 0 171 16 194 138h30
l-12 -173h-530z" />
    <glyph glyph-name="F" unicode="F" horiz-adv-x="580" 
d="M35 0v29c88 6 90 8 90 64v506c0 56 -2 58 -90 64v29h508v-160h-30c-14 102 -37 125 -153 125h-99c-33 0 -37 -3 -37 -36v-256h140c85 0 89 24 98 88h30v-214h-30c-9 64 -13 88 -98 88h-140v-234c0 -56 3 -58 106 -64v-29h-295z" />
    <glyph glyph-name="G" unicode="G" horiz-adv-x="734" 
d="M48 333c0 104 24 184 75 251c57 74 157 123 307 123c80 0 166 -17 215 -41v-157h-30c-21 113 -85 163 -195 163c-197 0 -260 -165 -260 -323c0 -125 43 -329 273 -329c34 0 62 5 88 15c21 8 34 19 34 54v135c0 49 -5 55 -106 62v29h276v-29c-66 -7 -71 -12 -71 -62v-197
c-63 -20 -160 -42 -230 -42c-88 0 -176 11 -252 64c-73 52 -124 155 -124 284z" />
    <glyph glyph-name="H" unicode="H" horiz-adv-x="798" 
d="M35 0v29c88 6 90 8 90 64v506c0 56 -2 58 -90 64v29h279v-29c-87 -6 -90 -8 -90 -64v-220h350v220c0 56 -2 58 -90 64v29h279v-29c-87 -6 -90 -8 -90 -64v-506c0 -56 3 -58 90 -64v-29h-279v29c88 6 90 8 90 64v248h-350v-248c0 -56 3 -58 90 -64v-29h-279z" />
    <glyph glyph-name="I" unicode="I" horiz-adv-x="349" 
d="M35 0v29c88 6 90 8 90 64v506c0 56 -2 58 -90 64v29h279v-29c-87 -6 -90 -8 -90 -64v-506c0 -56 3 -58 90 -64v-29h-279z" />
    <glyph glyph-name="J" unicode="J" horiz-adv-x="350" 
d="M0 -89c35 9 71 26 93 52c24 29 41 77 41 174v462c0 56 -2 58 -90 64v29h279v-29c-87 -6 -90 -8 -90 -64v-456c0 -102 -12 -185 -102 -226c-39 -18 -87 -29 -126 -31z" />
    <glyph glyph-name="K" unicode="K" horiz-adv-x="658" 
d="M35 0v29c88 6 90 8 90 64v506c0 56 -2 58 -90 64v29h279v-29c-87 -6 -90 -8 -90 -64v-236c72 74 185 192 243 257c22 26 20 38 -1 40l-38 3v29h243v-29c-85 -5 -105 -16 -157 -62c-61 -53 -138 -129 -204 -202c68 -102 152 -203 241 -298c43 -45 75 -73 116 -82v-24
l-63 3c-62 2 -115 20 -173 86c-78 88 -147 182 -204 269l-1 4h-2v-264c0 -56 3 -58 90 -64v-29h-279z" />
    <glyph glyph-name="L" unicode="L" horiz-adv-x="568" 
d="M35 0v29c88 6 90 8 90 64v506c0 56 -2 58 -90 64v29h285v-29c-93 -6 -96 -8 -96 -64v-479c0 -49 4 -66 25 -75c21 -8 57 -10 107 -10c105 0 160 13 180 144h30l-12 -179h-519z" />
    <glyph glyph-name="M" unicode="M" horiz-adv-x="944" 
d="M34 0v29c52 4 76 8 82 50c5 33 7 71 7 124v396c0 56 -2 58 -90 64v29h203c36 -89 78 -177 117 -266l118 -267h2l120 268c40 88 81 176 115 265h201v-29c-87 -6 -90 -8 -90 -64v-506c0 -56 3 -58 90 -64v-29h-279v29c88 6 90 8 90 64v507h-3l-261 -588h-27l-258 588h-2
v-397c0 -53 2 -91 7 -124c6 -42 30 -45 95 -50v-29h-237z" />
    <glyph glyph-name="N" unicode="N" horiz-adv-x="780" 
d="M35 0v29c52 4 76 8 82 50c5 33 7 71 7 124v396c0 56 -2 58 -90 64v29h192c129 -184 259 -368 390 -552l2 -2v351c0 53 -2 91 -7 124c-6 42 -30 45 -95 50v29h237v-29c-52 -4 -76 -8 -82 -50c-5 -33 -7 -71 -7 -124v-489h-66c-141 201 -283 401 -426 602h-2v-399
c0 -53 2 -91 7 -124c6 -42 30 -45 95 -50v-29h-237z" />
    <glyph glyph-name="O" unicode="O" horiz-adv-x="762" 
d="M48 346c0 112 31 204 85 264c56 63 138 97 248 97s192 -34 248 -97c54 -60 85 -152 85 -264s-31 -204 -85 -264c-56 -63 -138 -97 -248 -97s-192 34 -248 97c-54 60 -85 152 -85 264zM160 346c0 -147 43 -326 221 -326s221 179 221 326s-43 326 -221 326
s-221 -179 -221 -326z" />
    <glyph glyph-name="P" unicode="P" horiz-adv-x="600" 
d="M35 0v29c88 6 90 8 90 64v506c0 56 -2 58 -90 64v29h279c70 0 134 -10 182 -40c45 -28 78 -80 78 -156c0 -125 -88 -179 -165 -199c-37 -9 -82 -13 -128 -13h-57v-191c0 -56 3 -58 106 -64v-29h-295zM224 358c0 -37 15 -39 74 -39c86 0 168 45 168 170
c0 109 -63 168 -166 168c-65 0 -76 -9 -76 -37v-262z" />
    <glyph glyph-name="Q" unicode="Q" horiz-adv-x="762" 
d="M48 346c0 113 31 204 85 264c56 63 138 97 248 97c111 0 192 -34 248 -97c55 -60 85 -151 85 -264c0 -112 -30 -204 -85 -264c-42 -47 -97 -78 -169 -90c11 -20 32 -49 58 -77c56 -61 105 -74 130 -74c8 0 16 0 26 1l3 -16c-21 -13 -49 -19 -84 -19
c-106 0 -199 73 -251 180c-90 6 -160 39 -209 95c-54 60 -85 152 -85 264zM160 346c0 -147 43 -326 221 -326s221 179 221 326s-43 326 -221 326s-221 -179 -221 -326z" />
    <glyph glyph-name="R" unicode="R" horiz-adv-x="644" 
d="M35 0v29c88 6 90 8 90 64v506c0 56 -2 58 -90 64v29h292c175 0 235 -75 235 -171c0 -95 -69 -158 -163 -176v-2c106 -26 124 -93 136 -182c9 -68 25 -124 103 -132v-29h-81c-59 0 -97 22 -112 86c-11 46 -22 125 -29 153c-17 68 -63 87 -123 87h-69v-233
c0 -43 0 -44 3 -48c7 -12 30 -12 72 -16v-29h-264zM224 361h79c97 0 152 46 152 151c0 118 -84 145 -158 145c-66 0 -73 -8 -73 -50v-246z" />
    <glyph glyph-name="S" unicode="S" horiz-adv-x="541" 
d="M50 205h32c25 -112 87 -185 181 -185c89 0 144 52 144 138c0 89 -95 135 -139 152l-18 7c-105 37 -189 92 -189 197c0 132 108 193 230 193c68 0 136 -17 170 -44v-141h-31c-16 101 -64 150 -150 150c-84 0 -128 -54 -128 -127c0 -60 56 -103 123 -128l32 -12
c117 -43 197 -99 197 -217c0 -102 -70 -203 -247 -203c-70 0 -153 19 -197 60z" />
    <glyph glyph-name="T" unicode="T" horiz-adv-x="621" 
d="M22 526v166h577v-166h-30c-12 109 -33 131 -150 131h-59v-564c0 -56 3 -58 110 -64v-29h-319v29c107 6 110 8 110 64v564h-59c-117 0 -138 -22 -150 -131h-30z" />
    <glyph glyph-name="U" unicode="U" horiz-adv-x="791" 
d="M29 663v29h279v-29c-87 -6 -90 -8 -90 -64v-324c0 -95 15 -155 45 -195c31 -40 75 -60 132 -60c58 0 102 20 133 60c30 40 45 100 45 195v324c0 56 -2 58 -90 64v29h279v-29c-87 -6 -90 -8 -90 -64v-344c0 -60 -10 -113 -27 -148c-46 -99 -151 -122 -250 -122
c-98 0 -203 24 -249 122c-17 34 -27 87 -27 146v346c0 56 -2 58 -90 64z" />
    <glyph glyph-name="V" unicode="V" horiz-adv-x="634" 
d="M-18 663v29h258v-29l-52 -5c-24 -2 -27 -11 -19 -36c26 -80 57 -168 88 -255l93 -257l2 -2l104 287c36 100 67 188 78 232c5 19 4 29 -22 31l-55 5v29h221v-29c-54 -3 -66 -5 -87 -52c-24 -53 -64 -155 -105 -266l-128 -345h-71l-113 320c-35 100 -72 200 -104 284
c-20 53 -32 57 -88 59z" />
    <glyph glyph-name="W" unicode="W" horiz-adv-x="940" 
d="M-13 663v29h251v-29l-50 -5c-24 -2 -29 -8 -21 -41c40 -157 84 -325 136 -497h2l153 554h75c55 -184 112 -369 169 -554h3l74 286c25 94 47 176 53 213c4 21 2 35 -22 38l-62 6v29h229v-29c-62 -4 -73 -9 -93 -67c-14 -38 -37 -126 -69 -239l-100 -357h-76
c-51 179 -106 363 -167 554h-2l-157 -554h-77l-85 319c-27 100 -56 200 -79 279c-17 59 -26 62 -85 65z" />
    <glyph glyph-name="X" unicode="X" horiz-adv-x="624" 
d="M-19 0v29c64 6 73 9 107 54c41 55 121 178 179 262l-160 255c-34 54 -46 61 -109 63v29h258v-29l-48 -5c-19 -2 -21 -14 -9 -34l125 -196h2c48 69 92 136 129 198c12 20 12 31 -9 33l-48 4v29h221v-29c-59 -3 -72 -8 -115 -61s-101 -132 -156 -213l196 -303
c29 -46 41 -52 113 -57v-29h-284v29l55 6c19 2 28 10 16 29l-152 241h-2c-53 -82 -102 -163 -145 -242c-10 -16 -4 -25 11 -27l64 -7v-29h-239z" />
    <glyph glyph-name="Y" unicode="Y" horiz-adv-x="588" 
d="M-12 663v29h259v-29l-59 -6c-15 -2 -19 -12 -11 -30c44 -96 96 -197 154 -302h2c53 104 121 241 146 301c8 19 6 30 -12 32l-54 5v29h219v-29c-67 -3 -73 -11 -107 -66c-31 -50 -106 -190 -157 -292c-10 -20 -13 -35 -13 -59v-153c0 -55 3 -58 106 -64v-29h-311v29
c103 6 106 9 106 64v149c0 20 -4 37 -15 58c-49 99 -108 210 -164 313c-22 42 -36 48 -89 50z" />
    <glyph glyph-name="Z" unicode="Z" horiz-adv-x="610" 
d="M9 13c151 215 301 430 447 644h-179c-137 0 -162 -22 -174 -137h-32v172h511l6 -13c-151 -215 -301 -429 -447 -644h202c154 0 201 18 219 143h32l-10 -178h-570z" />
    <glyph glyph-name="bracketleft" unicode="[" horiz-adv-x="330" 
d="M133 -128v820h159v-27c-90 -4 -96 -8 -96 -55v-656c0 -47 6 -51 96 -55v-27h-159z" />
    <glyph glyph-name="backslash" unicode="\" horiz-adv-x="460" 
d="M91 707h67l211 -722h-67z" />
    <glyph glyph-name="bracketright" unicode="]" horiz-adv-x="330" 
d="M38 -101c90 4 96 8 96 55v656c0 47 -6 51 -96 55v27h159v-820h-159v27z" />
    <glyph glyph-name="asciicircum" unicode="^" horiz-adv-x="570" 
d="M56 228l196 440h71l191 -440h-71l-156 371l-160 -371h-71z" />
    <glyph glyph-name="underscore" unicode="_" horiz-adv-x="500" 
d="M0 -75h500v-50h-500v50z" />
    <glyph glyph-name="grave" unicode="`" horiz-adv-x="400" 
d="M49 680c0 20 24 43 39 43c17 0 34 -10 64 -41l119 -120l-15 -20l-151 84c-30 16 -56 33 -56 54z" />
    <glyph glyph-name="a" unicode="a" horiz-adv-x="523" 
d="M49 130c0 47 21 97 93 119c79 25 176 50 201 76v42c0 80 -46 100 -85 100c-40 0 -81 -24 -103 -98c-5 -17 -11 -28 -32 -28c-19 0 -56 15 -56 47c0 55 89 114 202 114c151 0 164 -75 164 -133v-242c0 -63 17 -82 35 -86c15 -4 37 -2 51 1l6 -24c-38 -19 -81 -30 -118 -30
c-35 0 -51 23 -65 60c-32 -21 -91 -60 -149 -60c-94 0 -144 67 -144 142zM150 144c0 -59 30 -103 92 -103c39 0 101 21 101 102v141c-22 -14 -75 -33 -115 -48c-56 -21 -78 -45 -78 -92z" />
    <glyph glyph-name="b" unicode="b" horiz-adv-x="598" 
d="M20 692v25l157 25l7 -6v-305c37 22 96 71 172 71c180 0 193 -184 193 -246c0 -204 -116 -268 -249 -268c-75 0 -117 19 -152 39l-40 -39l-18 8v646c0 38 -6 43 -32 46zM184 163c0 -24 1 -45 7 -63c18 -50 57 -77 110 -77c99 0 144 80 144 227c0 174 -88 198 -129 198
c-56 0 -98 -22 -122 -70c-8 -16 -10 -32 -10 -57v-158z" />
    <glyph glyph-name="c" unicode="c" horiz-adv-x="496" 
d="M49 240c0 133 61 262 243 262c108 0 174 -51 174 -97c0 -38 -39 -51 -59 -51c-19 0 -25 10 -31 26c-20 54 -49 87 -95 87c-69 0 -128 -60 -128 -209c0 -94 28 -218 147 -218c73 0 113 36 144 106l29 -14c-28 -107 -122 -144 -192 -144c-150 0 -232 85 -232 252z" />
    <glyph glyph-name="d" unicode="d" horiz-adv-x="598" 
d="M49 235c0 87 26 153 69 198c42 43 103 69 185 69c46 0 83 -9 111 -24v164c0 38 -6 43 -32 46l-38 4v25l157 25l7 -6v-649c0 -51 4 -53 75 -58v-29h-162l-8 7v49c-54 -44 -101 -68 -155 -68c-132 0 -209 99 -209 247zM153 247c0 -115 46 -205 138 -205c52 0 96 20 116 72
c6 17 7 34 7 56v176c0 27 -1 41 -9 58c-18 41 -56 63 -103 63c-102 0 -149 -90 -149 -220z" />
    <glyph glyph-name="e" unicode="e" horiz-adv-x="514" 
d="M49 241c0 150 74 261 230 261c183 0 202 -142 202 -201c0 -33 -19 -38 -40 -38h-288c-2 -104 23 -224 147 -224c79 0 117 48 145 106l30 -16c-27 -79 -84 -141 -195 -141c-163 0 -231 95 -231 253zM154 301h189c28 0 34 13 34 32c0 39 -11 134 -104 134
c-104 0 -119 -125 -119 -166z" />
    <glyph glyph-name="f" unicode="f" horiz-adv-x="319" 
d="M30 450v40h77v35c0 66 10 119 33 154c25 38 72 63 127 63c80 0 122 -40 122 -73c0 -30 -29 -47 -49 -47c-15 0 -22 7 -27 17c-25 58 -47 68 -68 68c-16 0 -51 -10 -48 -105l4 -112h122v-40h-122v-364c0 -51 4 -53 95 -57v-29h-264v29c72 5 75 7 75 58v363h-77z" />
    <glyph glyph-name="g" unicode="g" horiz-adv-x="520" 
d="M42 -96c0 72 72 96 115 110v2c-48 5 -88 43 -88 78c0 39 38 68 92 89v2c-46 12 -108 55 -108 149c0 74 54 168 207 168c46 0 101 -12 129 -31l128 41l8 -9l-20 -63l-79 -12c17 -17 30 -52 30 -94c0 -121 -107 -163 -202 -163c-11 0 -32 1 -51 3c-13 -4 -51 -20 -51 -49
c0 -19 11 -43 83 -43h80c107 0 193 -38 193 -146c0 -62 -33 -109 -79 -137c-48 -29 -111 -41 -171 -41c-116 0 -216 45 -216 146zM137 -91c0 -72 59 -116 144 -116c71 0 143 38 143 118c0 75 -65 96 -153 96c-48 0 -81 -6 -103 -23c-21 -16 -31 -41 -31 -75zM155 334
c0 -84 47 -128 103 -128c58 0 102 44 102 128c0 97 -51 133 -100 133c-53 0 -105 -34 -105 -133z" />
    <glyph glyph-name="h" unicode="h" horiz-adv-x="607" 
d="M21 0v29c70 5 74 9 74 58v555c0 36 -6 41 -32 45l-38 5v25l156 25l7 -6v-310c63 42 108 76 181 76c93 0 148 -58 148 -159v-256c0 -49 6 -53 75 -58v-29h-244v29c70 5 75 9 75 58v236c0 87 -37 125 -105 125c-53 0 -99 -33 -120 -73c-8 -15 -9 -29 -9 -54v-234
c0 -49 6 -53 75 -58v-29h-243z" />
    <glyph glyph-name="i" unicode="i" horiz-adv-x="291" 
d="M92 654c0 36 25 61 61 61s61 -25 61 -61s-25 -61 -61 -61s-61 25 -61 61zM32 0v29c72 5 75 7 75 58v315c0 36 -6 41 -32 45l-38 5v25l157 25l7 -6v-409c0 -51 4 -53 75 -58v-29h-244z" />
    <glyph glyph-name="j" unicode="j" horiz-adv-x="280" 
d="M92 654c0 36 25 61 61 61s61 -25 61 -61s-25 -61 -61 -61s-61 25 -61 61zM-33 -218c61 15 95 36 113 71c21 41 26 111 26 183v366c0 34 -6 41 -32 45l-38 5v25l157 25l7 -6v-489c0 -125 -30 -212 -157 -240c-28 -6 -56 -9 -74 -9z" />
    <glyph glyph-name="k" unicode="k" horiz-adv-x="524" 
d="M20 0v29c72 5 75 7 75 58v555c0 38 -6 43 -32 46l-38 4v25l157 25l7 -6v-468h2c23 34 122 158 151 193c20 24 29 29 63 29h103v-28c-58 -6 -83 -18 -117 -43s-66 -54 -114 -109c-10 -11 -8 -16 -3 -23c38 -54 116 -149 178 -210c31 -31 56 -46 86 -54v-28l-75 3
c-32 2 -71 14 -108 51c-52 53 -123 140 -164 205h-2v-167c0 -51 4 -53 75 -58v-29h-244z" />
    <glyph glyph-name="l" unicode="l" horiz-adv-x="279" 
d="M20 0v29c72 5 75 7 75 58v555c0 38 -6 43 -32 46l-38 4v25l157 25l7 -6v-649c0 -51 4 -53 75 -58v-29h-244z" />
    <glyph glyph-name="m" unicode="m" horiz-adv-x="923" 
d="M32 0v29c72 5 75 7 75 58v315c0 36 -6 41 -32 45l-38 5v25l155 25l9 -76c35 26 98 76 175 76c70 0 108 -30 132 -77c35 22 94 77 176 77c95 0 149 -58 149 -159v-256c0 -51 4 -53 75 -58v-29h-244v29c72 5 75 7 75 58v236c0 89 -38 125 -101 125c-56 0 -99 -32 -114 -72
c-6 -16 -7 -30 -7 -55v-234c0 -51 4 -53 75 -58v-29h-244v29c72 5 75 7 75 58v236c0 62 -10 125 -96 125c-55 0 -99 -34 -118 -74c-7 -14 -8 -28 -8 -53v-234c0 -51 4 -53 75 -58v-29h-244z" />
    <glyph glyph-name="n" unicode="n" horiz-adv-x="619" 
d="M32 0v29c72 5 75 7 75 58v315c0 36 -6 41 -32 45l-38 5v25l149 25l14 -76c62 40 108 76 182 76c92 0 147 -58 147 -159v-256c0 -51 4 -53 75 -58v-29h-244v29c72 5 75 7 75 58v236c0 87 -37 125 -105 125c-53 0 -98 -33 -119 -72c-8 -16 -10 -30 -10 -55v-234
c0 -51 4 -53 75 -58v-29h-244z" />
    <glyph glyph-name="o" unicode="o" horiz-adv-x="577" 
d="M49 245c0 162 79 257 240 257s240 -95 240 -257s-79 -257 -240 -257s-240 95 -240 257zM153 245c0 -138 44 -222 136 -222s136 84 136 222s-44 222 -136 222s-136 -84 -136 -222z" />
    <glyph glyph-name="p" unicode="p" horiz-adv-x="608" 
d="M25 -201c70 5 75 7 75 58v545c0 36 -6 41 -32 45l-38 5v25l151 25l13 -74c39 25 97 74 170 74c182 0 195 -175 195 -246c0 -206 -116 -268 -251 -268c-46 0 -93 11 -114 23v-154c0 -51 6 -53 90 -58v-29h-259v29zM194 157c0 -23 1 -43 7 -61c16 -46 56 -73 108 -73
c100 0 146 80 146 227c0 172 -89 198 -129 198c-53 0 -96 -24 -119 -70c-9 -18 -13 -32 -13 -57v-164z" />
    <glyph glyph-name="q" unicode="q" horiz-adv-x="591" 
d="M49 233c0 90 26 155 70 200s107 69 187 69c43 0 94 -10 132 -31l43 31h27v-645c0 -51 6 -53 75 -58v-29h-249v29c75 5 80 7 80 58v196c-52 -38 -101 -65 -157 -65c-121 0 -208 85 -208 245zM153 246c0 -113 43 -204 142 -204c55 0 93 21 112 74c6 16 7 33 7 55v169
c0 24 -2 42 -8 58c-19 51 -56 69 -108 69c-102 0 -145 -98 -145 -221z" />
    <glyph glyph-name="r" unicode="r" horiz-adv-x="389" 
d="M32 0v29c70 5 75 7 75 58v315c0 36 -6 41 -32 45l-38 5v25l152 25l12 -80c66 58 96 80 132 80c39 0 53 -27 53 -49c0 -31 -22 -56 -46 -56c-5 0 -13 1 -20 5c-29 16 -46 22 -62 22c-23 0 -57 -26 -57 -103v-234c0 -51 6 -53 95 -58v-29h-264z" />
    <glyph glyph-name="s" unicode="s" horiz-adv-x="436" 
d="M47 167h29c20 -85 65 -144 146 -144c53 0 93 32 93 83c0 68 -63 91 -108 105c-83 25 -151 62 -151 145c0 95 74 146 182 146c45 0 96 -10 129 -34v-117h-29c-7 61 -41 116 -112 116c-50 0 -90 -29 -90 -81c0 -56 66 -77 107 -90c103 -32 157 -72 157 -160
c0 -85 -68 -148 -187 -148c-59 0 -120 16 -156 48z" />
    <glyph glyph-name="t" unicode="t" horiz-adv-x="344" 
d="M31 450v40h76l61 126h29v-126h129v-40h-129v-310c0 -76 32 -100 66 -100c25 0 47 3 71 13l8 -21c-29 -18 -77 -44 -128 -44c-35 0 -111 12 -111 114v348h-72z" />
    <glyph glyph-name="u" unicode="u" horiz-adv-x="606" 
d="M26 452v25l157 25l7 -6v-340c0 -78 43 -114 101 -114c52 0 100 29 123 75c5 10 8 32 8 60v225c0 36 -6 41 -32 45l-38 5v25l157 25l7 -6v-409c0 -51 6 -53 75 -58v-29h-160l-10 60c-29 -14 -98 -72 -183 -72c-74 0 -142 35 -142 150v264c0 36 -6 41 -32 45z" />
    <glyph glyph-name="v" unicode="v" horiz-adv-x="504" 
d="M1 461v29h224v-29l-45 -5c-19 -2 -23 -10 -16 -29c19 -54 39 -112 59 -169l61 -168h2l67 185c23 64 42 122 50 154c4 14 1 25 -15 27l-49 5v29h190v-29c-46 -2 -57 -8 -72 -43c-14 -32 -43 -98 -72 -176l-89 -242h-72l-77 216c-25 69 -48 134 -75 200
c-15 37 -24 41 -71 45z" />
    <glyph glyph-name="w" unicode="w" horiz-adv-x="768" 
d="M-2 461v29h211v-29l-35 -3c-18 -2 -24 -11 -18 -30c32 -108 63 -224 99 -339h2l116 389h76c41 -130 82 -259 125 -389h2c31 113 77 275 90 334c4 18 3 31 -14 33l-57 5v29h197v-29c-50 -3 -61 -7 -78 -58c-25 -78 -84 -256 -126 -403h-76c-40 127 -81 254 -123 381h-3
l-118 -381h-76c-42 151 -86 286 -128 418c-12 38 -25 41 -66 43z" />
    <glyph glyph-name="x" unicode="x" horiz-adv-x="486" 
d="M1 0v29c44 3 66 8 92 43c41 54 80 111 117 165c-43 64 -86 129 -128 187c-24 33 -34 35 -74 37v29h209v-29l-30 -3c-15 -2 -17 -13 -9 -25l84 -125h1c30 46 57 88 80 126c7 11 9 21 -7 23l-39 4v29h186v-29c-48 -2 -61 -6 -87 -38c-39 -47 -78 -97 -111 -147
c44 -70 91 -140 137 -206c25 -36 42 -39 87 -41v-29h-235v29l42 5c15 2 18 11 7 28l-89 139h-2c-34 -52 -66 -100 -88 -143c-6 -11 -7 -22 7 -24l42 -5v-29h-192z" />
    <glyph glyph-name="y" unicode="y" horiz-adv-x="506" 
d="M-5 461v29h229v-29l-43 -4c-23 -2 -21 -13 -15 -31c37 -105 77 -214 123 -335h2c44 120 96 271 111 331c5 20 3 32 -14 34l-52 5v29h192v-29c-50 -3 -56 -11 -74 -51c-31 -70 -123 -314 -185 -492c-51 -148 -102 -160 -142 -160c-42 0 -70 28 -70 52c0 29 25 56 44 56
c12 0 20 -5 30 -14c18 -18 27 -21 37 -21c11 0 29 9 44 42c15 32 24 62 24 85c0 17 -2 32 -8 49c-24 69 -107 282 -157 402c-18 44 -28 50 -76 52z" />
    <glyph glyph-name="z" unicode="z" horiz-adv-x="480" 
d="M19 15c107 147 212 293 315 440h-100c-108 0 -129 -21 -142 -113h-31v148h384l8 -14c-106 -147 -211 -294 -312 -441h129c111 0 145 24 161 118h31l-10 -153h-425z" />
    <glyph glyph-name="braceleft" unicode="{" horiz-adv-x="340" 
d="M79 267v30c73 -2 93 45 86 114l-10 94c-9 83 -8 187 117 187h26v-27c-83 -4 -87 -59 -80 -126l8 -77c8 -80 27 -153 -91 -177v-6c118 -24 99 -97 91 -177l-8 -77c-7 -67 -3 -122 80 -126v-27h-26c-125 0 -126 104 -117 187l10 94c8 71 -6 114 -86 114z" />
    <glyph glyph-name="bar" unicode="|" horiz-adv-x="228" 
d="M80 -250v1000h68v-1000h-68z" />
    <glyph glyph-name="braceright" unicode="}" horiz-adv-x="340" 
d="M42 -101c83 4 87 59 80 126l-8 77c-8 80 -27 153 91 177v6c-118 24 -99 97 -91 177l8 77c7 67 3 122 -80 126v27h26c125 0 126 -104 117 -187l-10 -94c-8 -71 9 -114 86 -114v-30c-77 0 -94 -43 -86 -114l10 -94c9 -83 8 -187 -117 -187h-26v27z" />
    <glyph glyph-name="asciitilde" unicode="~" horiz-adv-x="570" 
d="M73 200c24 50 57 106 130 106c30 0 62 -11 93 -23c31 -11 60 -23 84 -23c34 0 48 14 77 57l40 -25c-28 -61 -63 -101 -120 -101c-29 0 -63 12 -95 23c-32 12 -64 23 -90 23c-38 0 -57 -21 -78 -62z" />
    <glyph glyph-name="uni00A0" unicode="&#xa0;" horiz-adv-x="225" 
 />
    <glyph glyph-name="exclamdown" unicode="&#xa1;" horiz-adv-x="242" 
d="M58 439c1 36 24 63 63 63c38 0 63 -27 63 -63c0 -37 -25 -65 -63 -65c-39 0 -63 28 -63 65zM65 -150l42 431h29l40 -431c4 -45 -1 -67 -55 -67c-55 0 -60 22 -56 67z" />
    <glyph glyph-name="cent" unicode="&#xa2;" horiz-adv-x="530" 
d="M37 346c0 178 103 246 224 253v76h40v-76c142 -1 179 -67 179 -99c0 -30 -27 -47 -52 -47c-14 0 -22 6 -30 24c-34 77 -72 85 -97 87v-427c65 -1 116 17 160 94l26 -16c-35 -88 -109 -127 -186 -128v-97h-40v97c-144 0 -224 88 -224 259zM135 356
c0 -110 32 -196 126 -216v424c-36 -3 -126 -14 -126 -208z" />
    <glyph glyph-name="sterling" unicode="&#xa3;" horiz-adv-x="530" 
d="M27 5l18 40c75 25 161 64 161 140c0 29 -5 58 -34 106h-119v38h102c-25 45 -59 106 -59 169c0 111 84 182 193 182c106 0 165 -57 165 -108c0 -28 -27 -42 -44 -42c-19 0 -25 5 -29 18c-18 60 -55 97 -104 97c-59 0 -95 -45 -95 -105c0 -71 42 -139 84 -211h152v-38h-136
c10 -39 6 -19 10 -58c0 -63 -32 -110 -110 -153v-4h225c41 0 55 28 76 58l27 -9l-50 -125h-429z" />
    <glyph glyph-name="currency" unicode="&#xa4;" horiz-adv-x="530" 
d="M42 101c-25 20 -23 41 8 65l39 30c-36 46 -46 89 -46 138s10 92 46 138l-39 30c-31 24 -33 45 -8 65c24 20 43 13 62 -15l27 -39c37 35 89 46 134 46s97 -11 134 -46l27 39c19 28 38 35 62 15c25 -20 23 -41 -8 -65l-39 -30c36 -46 46 -89 46 -138s-10 -92 -46 -138
l39 -30c31 -24 33 -45 8 -65c-24 -20 -43 -13 -62 15l-27 39c-37 -35 -89 -46 -134 -46s-97 11 -134 46l-27 -39c-19 -28 -38 -35 -62 -15zM115 334c0 -98 63 -172 150 -172s150 74 150 172s-63 172 -150 172s-150 -74 -150 -172z" />
    <glyph glyph-name="yen" unicode="&#xa5;" horiz-adv-x="530" 
d="M-2 639v29h219v-29l-47 -4c-16 -2 -18 -13 -12 -25l123 -262c40 92 86 187 112 253c7 19 8 30 -10 32l-55 6v29h197v-29l-28 -4c-27 -4 -36 -13 -56 -46c-14 -23 -61 -113 -118 -241h150v-38h-164c-4 -9 -6 -24 -6 -55v-30h170v-38h-170v-100c0 -49 4 -53 95 -58v-29
h-281v29c92 5 95 9 95 58v100h-170v38h170v29c0 25 -3 43 -10 56h-160v38h146l-121 250c-13 27 -25 36 -43 38z" />
    <glyph glyph-name="brokenbar" unicode="&#xa6;" horiz-adv-x="228" 
d="M80 -175v350h68v-350h-68zM80 325v350h68v-350h-68z" />
    <glyph glyph-name="section" unicode="&#xa7;" horiz-adv-x="554" 
d="M46 380c0 67 35 132 87 182c4 60 46 145 170 145c71 0 135 -32 135 -74c0 -28 -24 -40 -43 -40c-12 0 -20 5 -27 16c-30 52 -60 63 -89 63c-49 0 -79 -38 -79 -76c0 -27 2 -66 131 -134c116 -61 176 -121 176 -226c0 -68 -27 -130 -70 -185c2 -86 -63 -166 -177 -166
c-84 0 -153 41 -154 82c0 27 20 46 47 46c11 0 21 -9 27 -19c36 -61 71 -72 108 -72c41 0 79 34 79 85c0 47 -20 93 -151 159c-137 69 -170 136 -170 214zM98 417c0 -63 49 -122 150 -175c98 -51 151 -92 175 -143c20 15 33 48 33 89c0 74 -61 144 -141 188
c-79 46 -147 79 -170 141c-28 -20 -47 -59 -47 -100z" />
    <glyph glyph-name="dieresis" unicode="&#xa8;" horiz-adv-x="400" 
d="M244 627c0 29 21 56 60 56s60 -27 60 -56s-21 -57 -60 -57s-60 28 -60 57zM36 627c0 29 21 56 60 56s60 -27 60 -56s-21 -57 -60 -57s-60 28 -60 57z" />
    <glyph glyph-name="copyright" unicode="&#xa9;" horiz-adv-x="818" 
d="M45 346c0 200 163 361 364 361s364 -161 364 -361s-163 -361 -364 -361s-364 161 -364 361zM109 346c0 -177 132 -316 300 -316s300 139 300 316s-132 316 -300 316s-300 -139 -300 -316zM219 348c0 121 72 202 211 202c48 0 102 -11 133 -31v-98h-20
c-10 54 -32 101 -115 101c-92 0 -128 -78 -128 -165c0 -85 30 -180 133 -180c65 0 99 32 118 103h20l-11 -100c-26 -19 -73 -31 -137 -31c-147 0 -204 86 -204 199z" />
    <glyph glyph-name="ordfeminine" unicode="&#xaa;" horiz-adv-x="390" 
d="M40 355c0 33 15 55 79 77c39 14 77 26 116 39v38c0 40 -26 53 -48 53c-21 0 -48 -11 -62 -51c-4 -12 -13 -26 -28 -26c-17 0 -44 13 -44 32c0 37 63 73 139 73c104 0 112 -45 112 -80v-154c0 -39 13 -51 25 -54c10 -2 23 -1 32 0l3 -18c-12 -5 -26 -10 -40 -13
s-29 -5 -43 -5c-26 0 -38 14 -46 38c-20 -12 -55 -39 -97 -39c-66 0 -98 42 -98 90zM119 362c0 -34 19 -61 59 -62c23 2 57 17 57 66v78c-16 -4 -35 -10 -63 -21c-36 -13 -53 -30 -53 -61z" />
    <glyph glyph-name="guillemotleft" unicode="&#xab;" horiz-adv-x="442" 
d="M231 223c-4 5 -5 10 -5 16c0 5 1 11 5 15l150 181l20 -17l-79 -163c-3 -5 -4 -11 -4 -16c0 -6 1 -12 4 -18l79 -164l-20 -16zM46 223c-4 5 -5 10 -5 16c0 5 1 11 5 15l150 181l20 -17l-79 -163c-3 -5 -4 -11 -4 -16c0 -6 1 -12 4 -18l79 -164l-20 -16z" />
    <glyph glyph-name="logicalnot" unicode="&#xac;" horiz-adv-x="570" 
d="M43 331v58h484v-287h-68v229h-416z" />
    <glyph glyph-name="uni00AD" unicode="&#xad;" horiz-adv-x="392" 
d="M74 216v70h245v-70h-245z" />
    <glyph glyph-name="registered" unicode="&#xae;" horiz-adv-x="818" 
d="M45 346c0 200 163 361 364 361s364 -161 364 -361s-163 -361 -364 -361s-364 161 -364 361zM109 346c0 -177 132 -316 300 -316s300 139 300 316s-132 316 -300 316s-300 -139 -300 -316zM244 159v20l31 4c17 2 20 11 20 28v275c0 19 -3 27 -20 30l-31 4v20h180
c97 0 130 -40 130 -94c0 -55 -41 -86 -97 -95v-2c60 -15 70 -52 78 -96c5 -29 14 -47 27 -62c8 -8 21 -13 35 -17v-15h-44c-43 0 -63 15 -73 43c-14 40 -17 83 -26 102c-10 21 -29 30 -60 30h-34v-123c0 -17 4 -26 22 -28l30 -4v-20h-168zM360 362h38c51 0 86 21 86 76
c0 61 -41 74 -79 74c-41 0 -45 -6 -45 -21v-129z" />
    <glyph glyph-name="macron" unicode="&#xaf;" horiz-adv-x="400" 
d="M56 597v59h288v-59h-288z" />
    <glyph glyph-name="degree" unicode="&#xb0;" horiz-adv-x="350" 
d="M37 542c0 75 63 138 138 138s138 -63 138 -138s-63 -138 -138 -138s-138 63 -138 138zM93 542c0 -51 38 -90 82 -90s82 39 82 90s-38 90 -82 90s-82 -39 -82 -90z" />
    <glyph glyph-name="plusminus" unicode="&#xb1;" horiz-adv-x="570" 
d="M43 311v58h209v187h68v-187h207v-58h-207v-197h-68v197h-209zM43 0v58h484v-58h-484z" />
    <glyph glyph-name="twosuperior" unicode="&#xb2;" horiz-adv-x="380" 
d="M32 282c7 48 44 102 133 163c67 46 80 98 80 137c0 40 -18 70 -55 70c-31 0 -57 -22 -69 -80c-3 -16 -9 -24 -26 -24c-21 0 -45 15 -45 36c0 45 49 96 143 96c85 0 138 -36 138 -109c0 -63 -44 -99 -133 -148c-60 -33 -82 -68 -91 -92h162c32 0 43 10 56 35l23 -5
l-27 -89h-280z" />
    <glyph glyph-name="threesuperior" unicode="&#xb3;" horiz-adv-x="380" 
d="M36 341c0 24 24 44 45 44c12 0 19 -7 23 -20c16 -50 45 -72 79 -72c38 0 70 23 70 91c0 75 -52 84 -69 84c-31 0 -48 -7 -57 -7c-13 0 -17 11 -17 23s3 24 17 24c9 0 26 -7 57 -7c41 0 55 40 55 76c0 25 -8 75 -57 75c-35 0 -53 -28 -65 -75c-4 -14 -13 -18 -23 -18
c-18 0 -41 14 -41 37c0 39 51 84 134 84c61 0 134 -23 134 -99c0 -63 -56 -85 -88 -92v-2c32 -2 106 -26 106 -105c0 -76 -60 -117 -164 -117c-81 0 -139 35 -139 76z" />
    <glyph glyph-name="acute" unicode="&#xb4;" horiz-adv-x="400" 
d="M129 562l119 120c30 31 47 41 64 41c15 0 39 -23 39 -43c0 -21 -26 -38 -56 -54l-151 -84z" />
    <glyph glyph-name="uni00B5" unicode="&#xb5;" horiz-adv-x="606" 
d="M26 452v25l157 25l7 -6v-340c0 -78 43 -114 101 -114c52 0 100 29 123 75c5 10 8 32 8 60v225c0 36 -6 41 -32 45l-38 5v25l157 25l7 -6v-409c0 -49 6 -53 75 -58v-29h-160l-10 60c-29 -14 -92 -72 -167 -72c-51 0 -78 11 -103 33h-2v-33c0 -40 16 -83 29 -109
c13 -25 25 -49 26 -64c2 -34 -44 -61 -72 -61c-20 0 -36 8 -36 47v601c0 36 -6 41 -32 45z" />
    <glyph glyph-name="paragraph" unicode="&#xb6;" horiz-adv-x="555" 
d="M64 466c0 130 82 226 215 226h12v-442h-16c-123 0 -211 92 -211 216zM262 -75l74 9c20 3 27 11 27 40v718h166v-26l-68 -9c-19 -3 -27 -8 -27 -37v-721h-172v26z" />
    <glyph glyph-name="periodcentered" unicode="&#xb7;" horiz-adv-x="265" 
d="M70 251c0 37 25 65 63 65c39 0 63 -28 63 -65c-1 -36 -24 -63 -63 -63c-38 0 -63 27 -63 63z" />
    <glyph glyph-name="cedilla" unicode="&#xb8;" horiz-adv-x="400" 
d="M163 -201c49 0 88 15 88 56c0 49 -44 53 -62 54l-4 7l46 84h41l-32 -55c37 -5 89 -23 89 -87c0 -77 -91 -88 -122 -88c-18 0 -30 1 -44 3v26z" />
    <glyph glyph-name="onesuperior" unicode="&#xb9;" horiz-adv-x="380" 
d="M81 272v22l55 5c13 1 21 7 21 26v283c0 15 -4 22 -15 24l-61 8v19l143 21l7 -4v-351c0 -19 8 -25 22 -26l54 -5v-22h-226z" />
    <glyph glyph-name="ordmasculine" unicode="&#xba;" horiz-adv-x="398" 
d="M35 427c0 103 54 163 163 163c111 0 165 -60 165 -163c0 -102 -54 -162 -165 -162c-109 0 -163 60 -163 162zM118 427c2 -82 24 -134 80 -134c58 0 80 52 82 134c-2 83 -24 135 -82 135c-56 0 -78 -52 -80 -135z" />
    <glyph glyph-name="guillemotright" unicode="&#xbb;" horiz-adv-x="442" 
d="M226 57l79 164c3 6 4 12 4 18c0 5 -1 11 -4 16l-79 163l20 17l150 -181c3 -4 5 -10 5 -15c0 -6 -2 -11 -5 -16l-150 -182zM41 57l79 164c3 6 4 12 4 18c0 5 -1 11 -4 16l-79 163l20 17l150 -181c3 -4 5 -10 5 -15c0 -6 -2 -11 -5 -16l-150 -182z" />
    <glyph glyph-name="onequarter" unicode="&#xbc;" horiz-adv-x="860" 
d="M478 119c58 96 148 228 192 282h61v-266h64v-33h-64v-49c0 -19 8 -25 22 -26l34 -5v-22h-196v22l45 5c13 1 21 7 21 26v49h-168zM532 135h125v198h-2c-37 -56 -85 -131 -123 -198zM65 272v22l55 5c13 1 21 7 21 26v283c0 15 -4 22 -15 24l-61 8v19l143 21l7 -4v-351
c0 -19 8 -25 22 -26l54 -5v-22h-226zM199 0l428 695l38 -24l-430 -698z" />
    <glyph glyph-name="onehalf" unicode="&#xbd;" horiz-adv-x="860" 
d="M491 10c7 48 44 102 133 163c67 46 80 98 80 137c0 40 -18 70 -55 70c-31 0 -57 -22 -69 -80c-3 -16 -9 -24 -26 -24c-21 0 -45 15 -45 36c0 45 49 96 143 96c85 0 138 -36 138 -109c0 -63 -44 -99 -133 -148c-60 -33 -82 -68 -91 -92h162c32 0 43 10 56 35l23 -5
l-27 -89h-280zM58 272v22l55 5c13 1 21 7 21 26v283c0 15 -4 22 -15 24l-61 8v19l143 21l7 -4v-351c0 -19 8 -25 22 -26l54 -5v-22h-226zM172 0l428 695l38 -24l-430 -698z" />
    <glyph glyph-name="threequarters" unicode="&#xbe;" horiz-adv-x="860" 
d="M491 119c58 96 148 228 192 282h61v-266h64v-33h-64v-49c0 -19 8 -25 22 -26l34 -5v-22h-196v22l45 5c13 1 21 7 21 26v49h-168zM545 135h125v198h-2c-37 -56 -85 -131 -123 -198zM50 341c0 24 24 44 45 44c12 0 19 -7 23 -20c16 -50 45 -72 79 -72c38 0 70 23 70 91
c0 75 -52 84 -69 84c-31 0 -48 -7 -57 -7c-13 0 -17 11 -17 23s3 24 17 24c9 0 26 -7 57 -7c41 0 55 40 55 76c0 25 -8 75 -57 75c-35 0 -53 -28 -65 -75c-4 -14 -13 -18 -23 -18c-18 0 -41 14 -41 37c0 39 51 84 134 84c61 0 134 -23 134 -99c0 -63 -56 -85 -88 -92v-2
c32 -2 106 -26 106 -105c0 -76 -60 -117 -164 -117c-81 0 -139 35 -139 76zM227 0l428 695l38 -24l-430 -698z" />
    <glyph glyph-name="questiondown" unicode="&#xbf;" horiz-adv-x="389" 
d="M30 -81c2 81 62 116 96 140c50 35 76 71 76 115c0 55 -47 73 -68 73c-12 0 -23 -2 -30 -4l-8 20c27 22 65 28 96 28c54 0 107 -34 107 -97c0 -45 -21 -71 -81 -117c-45 -34 -89 -95 -89 -158c0 -58 18 -101 64 -101c40 0 68 32 82 107c3 17 17 24 32 24
c17 0 53 -13 53 -50c0 -33 -40 -114 -172 -116c-90 0 -156 43 -158 136zM137 440c0 36 25 62 62 62c38 0 61 -26 62 -62c0 -36 -24 -63 -62 -63c-37 0 -62 27 -62 63z" />
    <glyph glyph-name="Agrave" unicode="&#xc0;" horiz-adv-x="635" 
d="M167 838c-2 20 17 49 32 52c16 3 30 -3 65 -27l145 -99l-11 -22l-170 56c-45 14 -59 21 -61 40zM-29 0v29c63 3 72 15 93 69c35 91 77 211 108 298l105 296h74l212 -603c18 -52 29 -55 87 -60v-29h-256v29l45 4c32 3 37 14 27 43l-67 191h-224c-23 -71 -44 -133 -61 -193
c-8 -27 -5 -37 25 -40l52 -5v-29h-220zM188 305h199l-99 286h-3c-30 -88 -65 -186 -97 -286z" />
    <glyph glyph-name="Aacute" unicode="&#xc1;" horiz-adv-x="635" 
d="M215 764l145 99c35 24 49 30 65 27c15 -3 34 -32 32 -52c-2 -19 -16 -26 -61 -40l-170 -56zM-29 0v29c63 3 72 15 93 69c35 91 77 211 108 298l105 296h74l212 -603c18 -52 29 -55 87 -60v-29h-256v29l45 4c32 3 37 14 27 43l-67 191h-224c-23 -71 -44 -133 -61 -193
c-8 -27 -5 -37 25 -40l52 -5v-29h-220zM188 305h199l-99 286h-3c-30 -88 -65 -186 -97 -286z" />
    <glyph glyph-name="Acircumflex" unicode="&#xc2;" horiz-adv-x="635" 
d="M165 738l116 114c14 13 25 24 37 24s24 -12 37 -24l116 -114l-13 -21l-107 61c-13 7 -24 14 -33 14c-8 0 -20 -7 -33 -14l-107 -61zM-29 0v29c63 3 72 15 93 69c35 91 77 211 108 298l105 296h74l212 -603c18 -52 29 -55 87 -60v-29h-256v29l45 4c32 3 37 14 27 43
l-67 191h-224c-23 -71 -44 -133 -61 -193c-8 -27 -5 -37 25 -40l52 -5v-29h-220zM188 305h199l-99 286h-3c-30 -88 -65 -186 -97 -286z" />
    <glyph glyph-name="Atilde" unicode="&#xc3;" horiz-adv-x="635" 
d="M140 736c20 40 48 98 112 98c24 0 52 -9 79 -19c28 -9 55 -19 76 -19c28 0 40 11 68 46l20 -11c-29 -57 -55 -95 -104 -95c-22 0 -51 10 -80 19c-29 10 -58 19 -80 19c-33 0 -50 -16 -72 -51zM-29 0v29c63 3 72 15 93 69c35 91 77 211 108 298l105 296h74l212 -603
c18 -52 29 -55 87 -60v-29h-256v29l45 4c32 3 37 14 27 43l-67 191h-224c-23 -71 -44 -133 -61 -193c-8 -27 -5 -37 25 -40l52 -5v-29h-220zM188 305h199l-99 286h-3c-30 -88 -65 -186 -97 -286z" />
    <glyph glyph-name="Adieresis" unicode="&#xc4;" horiz-adv-x="635" 
d="M156 787c0 28 21 54 58 54c38 0 58 -26 58 -54s-20 -55 -58 -55c-37 0 -58 27 -58 55zM364 787c0 28 21 54 58 54c38 0 58 -26 58 -54s-20 -55 -58 -55c-37 0 -58 27 -58 55zM-29 0v29c63 3 72 15 93 69c35 91 77 211 108 298l105 296h74l212 -603c18 -52 29 -55 87 -60
v-29h-256v29l45 4c32 3 37 14 27 43l-67 191h-224c-23 -71 -44 -133 -61 -193c-8 -27 -5 -37 25 -40l52 -5v-29h-220zM188 305h199l-99 286h-3c-30 -88 -65 -186 -97 -286z" />
    <glyph glyph-name="Aring" unicode="&#xc5;" horiz-adv-x="627" 
d="M-32 0v29c63 3 72 15 93 69c35 91 77 211 108 298l97 271c-35 11 -62 40 -62 93c0 75 54 101 108 101s108 -26 108 -101c0 -54 -28 -83 -64 -94l204 -577c18 -52 29 -55 87 -60v-29h-256v29l45 4c32 3 37 14 27 43l-67 191h-224c-23 -71 -44 -133 -61 -193
c-8 -27 -5 -37 25 -40l52 -5v-29h-220zM185 305h199l-99 286h-3c-30 -88 -65 -186 -97 -286zM262 760c0 -52 22 -68 50 -68s50 16 50 68s-22 68 -50 68s-50 -16 -50 -68z" />
    <glyph glyph-name="AE" unicode="&#xc6;" horiz-adv-x="876" 
d="M-63 0v29c54 5 68 9 91 48c55 93 100 184 175 321l123 225c13 24 8 33 -12 34l-75 6v29h571v-164h-30c-14 104 -37 129 -151 129h-98c-32 0 -37 -6 -37 -36v-242h140c85 0 89 24 98 86h30v-211h-30c-9 63 -13 87 -98 87h-140v-216c0 -44 6 -67 27 -77s50 -13 102 -13
c124 0 171 16 194 138h30l-12 -173h-528v29c87 6 90 8 90 66v246h-172c-90 -173 -128 -251 -138 -277c-7 -17 -2 -26 15 -28l66 -7v-29h-231zM244 379h153v273h-6c-62 -114 -125 -233 -147 -273z" />
    <glyph glyph-name="Ccedilla" unicode="&#xc7;" horiz-adv-x="680" 
d="M48 341c0 113 34 199 91 263c60 67 159 103 282 103c91 0 167 -18 212 -39v-156h-30c-19 118 -90 160 -192 160c-186 1 -251 -164 -251 -328c0 -121 43 -324 249 -324c131 0 182 76 210 180h30l-14 -167c-48 -26 -140 -48 -222 -48l-23 -40c37 -5 89 -23 89 -87
c0 -77 -91 -88 -122 -88c-18 0 -30 1 -44 3v26c49 0 88 15 88 56c0 49 -44 53 -62 54l-4 7l39 71c-95 4 -176 28 -231 83c-60 60 -95 154 -95 271z" />
    <glyph glyph-name="Egrave" unicode="&#xc8;" horiz-adv-x="606" 
d="M147 838c-2 20 17 49 32 52c16 3 30 -3 65 -27l145 -99l-11 -22l-170 56c-45 14 -59 21 -61 40zM35 0v29c88 6 90 8 90 64v506c0 56 -2 58 -90 64v29h505v-164h-30c-14 104 -37 129 -151 129h-98c-32 0 -37 -4 -37 -36v-242h140c85 0 89 24 98 86h30v-211h-30
c-9 63 -13 87 -98 87h-140v-221c0 -49 4 -66 25 -75c21 -8 57 -10 104 -10c126 0 171 16 194 138h30l-12 -173h-530z" />
    <glyph glyph-name="Eacute" unicode="&#xc9;" horiz-adv-x="606" 
d="M232 764l145 99c35 24 49 30 65 27c15 -3 34 -32 32 -52c-2 -19 -16 -26 -61 -40l-170 -56zM35 0v29c88 6 90 8 90 64v506c0 56 -2 58 -90 64v29h505v-164h-30c-14 104 -37 129 -151 129h-98c-32 0 -37 -4 -37 -36v-242h140c85 0 89 24 98 86h30v-211h-30
c-9 63 -13 87 -98 87h-140v-221c0 -49 4 -66 25 -75c21 -8 57 -10 104 -10c126 0 171 16 194 138h30l-12 -173h-530z" />
    <glyph glyph-name="Ecircumflex" unicode="&#xca;" horiz-adv-x="606" 
d="M150 738l116 114c14 13 25 24 37 24s24 -12 37 -24l116 -114l-13 -21l-107 61c-13 7 -24 14 -33 14c-8 0 -20 -7 -33 -14l-107 -61zM35 0v29c88 6 90 8 90 64v506c0 56 -2 58 -90 64v29h505v-164h-30c-14 104 -37 129 -151 129h-98c-32 0 -37 -4 -37 -36v-242h140
c85 0 89 24 98 86h30v-211h-30c-9 63 -13 87 -98 87h-140v-221c0 -49 4 -66 25 -75c21 -8 57 -10 104 -10c126 0 171 16 194 138h30l-12 -173h-530z" />
    <glyph glyph-name="Edieresis" unicode="&#xcb;" horiz-adv-x="606" 
d="M141 787c0 28 21 54 58 54c38 0 58 -26 58 -54s-20 -55 -58 -55c-37 0 -58 27 -58 55zM349 787c0 28 21 54 58 54c38 0 58 -26 58 -54s-20 -55 -58 -55c-37 0 -58 27 -58 55zM35 0v29c88 6 90 8 90 64v506c0 56 -2 58 -90 64v29h505v-164h-30c-14 104 -37 129 -151 129
h-98c-32 0 -37 -4 -37 -36v-242h140c85 0 89 24 98 86h30v-211h-30c-9 63 -13 87 -98 87h-140v-221c0 -49 4 -66 25 -75c21 -8 57 -10 104 -10c126 0 171 16 194 138h30l-12 -173h-530z" />
    <glyph glyph-name="Igrave" unicode="&#xcc;" horiz-adv-x="349" 
d="M18 838c-2 20 17 49 32 52c16 3 30 -3 65 -27l145 -99l-11 -22l-170 56c-45 14 -59 21 -61 40zM35 0v29c88 6 90 8 90 64v506c0 56 -2 58 -90 64v29h279v-29c-87 -6 -90 -8 -90 -64v-506c0 -56 3 -58 90 -64v-29h-279z" />
    <glyph glyph-name="Iacute" unicode="&#xcd;" horiz-adv-x="349" 
d="M89 764l145 99c35 24 49 30 65 27c15 -3 34 -32 32 -52c-2 -19 -16 -26 -61 -40l-170 -56zM35 0v29c88 6 90 8 90 64v506c0 56 -2 58 -90 64v29h279v-29c-87 -6 -90 -8 -90 -64v-506c0 -56 3 -58 90 -64v-29h-279z" />
    <glyph glyph-name="Icircumflex" unicode="&#xce;" horiz-adv-x="349" 
d="M22 738l116 114c14 13 25 24 37 24s24 -12 37 -24l116 -114l-13 -21l-107 61c-13 7 -24 14 -33 14c-8 0 -20 -7 -33 -14l-107 -61zM35 0v29c88 6 90 8 90 64v506c0 56 -2 58 -90 64v29h279v-29c-87 -6 -90 -8 -90 -64v-506c0 -56 3 -58 90 -64v-29h-279z" />
    <glyph glyph-name="Idieresis" unicode="&#xcf;" horiz-adv-x="349" 
d="M13 787c0 28 21 54 58 54c38 0 58 -26 58 -54s-20 -55 -58 -55c-37 0 -58 27 -58 55zM221 787c0 28 21 54 58 54c38 0 58 -26 58 -54s-20 -55 -58 -55c-37 0 -58 27 -58 55zM35 0v29c88 6 90 8 90 64v506c0 56 -2 58 -90 64v29h279v-29c-87 -6 -90 -8 -90 -64v-506
c0 -56 3 -58 90 -64v-29h-279z" />
    <glyph glyph-name="Eth" unicode="&#xd0;" horiz-adv-x="785" 
d="M20 341v38h111v220c0 56 -2 58 -90 64v29h332c120 -1 209 -26 274 -87c61 -59 90 -146 90 -247c0 -150 -56 -243 -130 -294s-165 -64 -254 -64h-312v29c88 6 90 8 90 64v248h-111zM230 125c0 -79 17 -90 104 -90c168 0 291 67 291 319c0 169 -64 299 -279 303
c-107 0 -116 -5 -116 -57v-221h138v-38h-138v-216z" />
    <glyph glyph-name="Ntilde" unicode="&#xd1;" horiz-adv-x="780" 
d="M218 736c20 40 48 98 112 98c24 0 52 -9 79 -19c28 -9 55 -19 76 -19c28 0 40 11 68 46l20 -11c-29 -57 -55 -95 -104 -95c-22 0 -51 10 -80 19c-29 10 -58 19 -80 19c-33 0 -50 -16 -72 -51zM35 0v29c52 4 76 8 82 50c5 33 7 71 7 124v396c0 56 -2 58 -90 64v29h192
c129 -184 259 -368 390 -552l2 -2v351c0 53 -2 91 -7 124c-6 42 -30 45 -95 50v29h237v-29c-52 -4 -76 -8 -82 -50c-5 -33 -7 -71 -7 -124v-489h-66c-141 201 -283 401 -426 602h-2v-399c0 -53 2 -91 7 -124c6 -42 30 -45 95 -50v-29h-237z" />
    <glyph glyph-name="Ograve" unicode="&#xd2;" horiz-adv-x="762" 
d="M213 838c-2 20 17 49 32 52c16 3 30 -3 65 -27l145 -99l-11 -22l-170 56c-45 14 -59 21 -61 40zM48 346c0 112 31 204 85 264c56 63 138 97 248 97s192 -34 248 -97c54 -60 85 -152 85 -264s-31 -204 -85 -264c-56 -63 -138 -97 -248 -97s-192 34 -248 97
c-54 60 -85 152 -85 264zM160 346c0 -147 43 -326 221 -326s221 179 221 326s-43 326 -221 326s-221 -179 -221 -326z" />
    <glyph glyph-name="Oacute" unicode="&#xd3;" horiz-adv-x="762" 
d="M282 764l145 99c35 24 49 30 65 27c15 -3 34 -32 32 -52c-2 -19 -16 -26 -61 -40l-170 -56zM48 346c0 112 31 204 85 264c56 63 138 97 248 97s192 -34 248 -97c54 -60 85 -152 85 -264s-31 -204 -85 -264c-56 -63 -138 -97 -248 -97s-192 34 -248 97
c-54 60 -85 152 -85 264zM160 346c0 -147 43 -326 221 -326s221 179 221 326s-43 326 -221 326s-221 -179 -221 -326z" />
    <glyph glyph-name="Ocircumflex" unicode="&#xd4;" horiz-adv-x="762" 
d="M228 738l116 114c14 13 25 24 37 24s24 -12 37 -24l116 -114l-13 -21l-107 61c-13 7 -24 14 -33 14c-8 0 -20 -7 -33 -14l-107 -61zM48 346c0 112 31 204 85 264c56 63 138 97 248 97s192 -34 248 -97c54 -60 85 -152 85 -264s-31 -204 -85 -264
c-56 -63 -138 -97 -248 -97s-192 34 -248 97c-54 60 -85 152 -85 264zM160 346c0 -147 43 -326 221 -326s221 179 221 326s-43 326 -221 326s-221 -179 -221 -326z" />
    <glyph glyph-name="Otilde" unicode="&#xd5;" horiz-adv-x="762" 
d="M203 736c20 40 48 98 112 98c24 0 52 -9 79 -19c28 -9 55 -19 76 -19c28 0 40 11 68 46l20 -11c-29 -57 -55 -95 -104 -95c-22 0 -51 10 -80 19c-29 10 -58 19 -80 19c-33 0 -50 -16 -72 -51zM48 346c0 112 31 204 85 264c56 63 138 97 248 97s192 -34 248 -97
c54 -60 85 -152 85 -264s-31 -204 -85 -264c-56 -63 -138 -97 -248 -97s-192 34 -248 97c-54 60 -85 152 -85 264zM160 346c0 -147 43 -326 221 -326s221 179 221 326s-43 326 -221 326s-221 -179 -221 -326z" />
    <glyph glyph-name="Odieresis" unicode="&#xd6;" horiz-adv-x="762" 
d="M219 787c0 28 21 54 58 54c38 0 58 -26 58 -54s-20 -55 -58 -55c-37 0 -58 27 -58 55zM427 787c0 28 21 54 58 54c38 0 58 -26 58 -54s-20 -55 -58 -55c-37 0 -58 27 -58 55zM48 346c0 112 31 204 85 264c56 63 138 97 248 97s192 -34 248 -97c54 -60 85 -152 85 -264
s-31 -204 -85 -264c-56 -63 -138 -97 -248 -97s-192 34 -248 97c-54 60 -85 152 -85 264zM160 346c0 -147 43 -326 221 -326s221 179 221 326s-43 326 -221 326s-221 -179 -221 -326z" />
    <glyph glyph-name="multiply" unicode="&#xd7;" horiz-adv-x="570" 
d="M63 66l179 184l-179 182l41 46l181 -184l180 184l42 -46l-179 -182l179 -184l-42 -44l-180 184l-181 -184z" />
    <glyph glyph-name="Oslash" unicode="&#xd8;" horiz-adv-x="762" 
d="M48 346c0 113 31 204 85 264c56 63 138 97 248 97c71 0 130 -14 178 -42l46 74l34 -21l-47 -74c14 -10 26 -22 37 -34c55 -60 85 -151 85 -264c0 -112 -30 -204 -85 -264c-56 -63 -137 -97 -248 -97c-71 0 -130 14 -179 43l-51 -81l-32 24l49 78c-12 9 -24 21 -35 33
c-54 60 -85 152 -85 264zM160 346c1 -78 13 -164 51 -229l314 495c-33 37 -79 60 -144 60c-178 0 -219 -179 -221 -326zM236 82c33 -38 80 -62 145 -62c178 0 219 179 221 326c-1 79 -13 167 -52 231z" />
    <glyph glyph-name="Ugrave" unicode="&#xd9;" horiz-adv-x="791" 
d="M215 838c-2 20 17 49 32 52c16 3 30 -3 65 -27l145 -99l-11 -22l-170 56c-45 14 -59 21 -61 40zM29 663v29h279v-29c-87 -6 -90 -8 -90 -64v-324c0 -95 15 -155 45 -195c31 -40 75 -60 132 -60c58 0 102 20 133 60c30 40 45 100 45 195v324c0 56 -2 58 -90 64v29h279v-29
c-87 -6 -90 -8 -90 -64v-344c0 -60 -10 -113 -27 -148c-46 -99 -151 -122 -250 -122c-98 0 -203 24 -249 122c-17 34 -27 87 -27 146v346c0 56 -2 58 -90 64z" />
    <glyph glyph-name="Uacute" unicode="&#xda;" horiz-adv-x="791" 
d="M307 764l145 99c35 24 49 30 65 27c15 -3 34 -32 32 -52c-2 -19 -16 -26 -61 -40l-170 -56zM29 663v29h279v-29c-87 -6 -90 -8 -90 -64v-324c0 -95 15 -155 45 -195c31 -40 75 -60 132 -60c58 0 102 20 133 60c30 40 45 100 45 195v324c0 56 -2 58 -90 64v29h279v-29
c-87 -6 -90 -8 -90 -64v-344c0 -60 -10 -113 -27 -148c-46 -99 -151 -122 -250 -122c-98 0 -203 24 -249 122c-17 34 -27 87 -27 146v346c0 56 -2 58 -90 64z" />
    <glyph glyph-name="Ucircumflex" unicode="&#xdb;" horiz-adv-x="791" 
d="M243 738l116 114c14 13 25 24 37 24s24 -12 37 -24l116 -114l-13 -21l-107 61c-13 7 -24 14 -33 14c-8 0 -20 -7 -33 -14l-107 -61zM29 663v29h279v-29c-87 -6 -90 -8 -90 -64v-324c0 -95 15 -155 45 -195c31 -40 75 -60 132 -60c58 0 102 20 133 60c30 40 45 100 45 195
v324c0 56 -2 58 -90 64v29h279v-29c-87 -6 -90 -8 -90 -64v-344c0 -60 -10 -113 -27 -148c-46 -99 -151 -122 -250 -122c-98 0 -203 24 -249 122c-17 34 -27 87 -27 146v346c0 56 -2 58 -90 64z" />
    <glyph glyph-name="Udieresis" unicode="&#xdc;" horiz-adv-x="791" 
d="M234 787c0 28 21 54 58 54c38 0 58 -26 58 -54s-20 -55 -58 -55c-37 0 -58 27 -58 55zM442 787c0 28 21 54 58 54c38 0 58 -26 58 -54s-20 -55 -58 -55c-37 0 -58 27 -58 55zM29 663v29h279v-29c-87 -6 -90 -8 -90 -64v-324c0 -95 15 -155 45 -195c31 -40 75 -60 132 -60
c58 0 102 20 133 60c30 40 45 100 45 195v324c0 56 -2 58 -90 64v29h279v-29c-87 -6 -90 -8 -90 -64v-344c0 -60 -10 -113 -27 -148c-46 -99 -151 -122 -250 -122c-98 0 -203 24 -249 122c-17 34 -27 87 -27 146v346c0 56 -2 58 -90 64z" />
    <glyph glyph-name="Yacute" unicode="&#xdd;" horiz-adv-x="588" 
d="M253 764l145 99c35 24 49 30 65 27c15 -3 34 -32 32 -52c-2 -19 -16 -26 -61 -40l-170 -56zM-12 663v29h259v-29l-59 -6c-15 -2 -19 -12 -11 -30c44 -96 96 -197 154 -302h2c53 104 121 241 146 301c8 19 6 30 -12 32l-54 5v29h219v-29c-67 -3 -73 -11 -107 -66
c-31 -50 -106 -190 -157 -292c-10 -20 -13 -35 -13 -59v-153c0 -55 3 -58 106 -64v-29h-311v29c103 6 106 9 106 64v149c0 20 -4 37 -15 58c-49 99 -108 210 -164 313c-22 42 -36 48 -89 50z" />
    <glyph glyph-name="Thorn" unicode="&#xde;" horiz-adv-x="593" 
d="M35 0v29c88 6 90 8 90 64v506c0 56 -2 58 -90 64v29h279v-29c-87 -6 -90 -8 -90 -64v-46h81c66 0 128 -6 176 -36c45 -28 75 -79 75 -142c0 -149 -129 -193 -254 -193h-78v-89c0 -56 3 -58 98 -64v-29h-287zM224 258c0 -28 7 -41 59 -41c104 0 166 39 166 152
c0 95 -57 149 -152 149c-56 0 -73 -3 -73 -37v-223z" />
    <glyph glyph-name="germandbls" unicode="&#xdf;" horiz-adv-x="601" 
d="M22 0v29c72 5 75 7 75 58v368c0 100 13 171 56 219c36 42 92 68 169 68c173 0 193 -114 193 -154c0 -31 -10 -59 -27 -81c-72 -10 -117 -43 -117 -97c0 -45 27 -73 101 -123c49 -33 101 -83 101 -159c0 -84 -63 -140 -159 -140c-74 0 -126 31 -126 65c0 20 18 38 37 38
c11 0 19 -7 23 -15c24 -43 52 -53 78 -53c28 0 66 21 66 73c0 60 -34 96 -92 134c-57 38 -110 81 -110 149s41 114 117 135c16 17 22 49 22 72c0 71 -48 121 -111 121c-55 0 -87 -30 -106 -78c-19 -47 -21 -112 -21 -181v-361c0 -51 4 -53 75 -58v-29h-244z" />
    <glyph glyph-name="agrave" unicode="&#xe0;" horiz-adv-x="523" 
d="M111 680c0 20 24 43 39 43c17 0 34 -10 64 -41l119 -120l-15 -20l-151 84c-30 16 -56 33 -56 54zM49 130c0 47 21 97 93 119c79 25 176 50 201 76v42c0 80 -46 100 -85 100c-40 0 -81 -24 -103 -98c-5 -17 -11 -28 -32 -28c-19 0 -56 15 -56 47c0 55 89 114 202 114
c151 0 164 -75 164 -133v-242c0 -63 17 -82 35 -86c15 -4 37 -2 51 1l6 -24c-38 -19 -81 -30 -118 -30c-35 0 -51 23 -65 60c-32 -21 -91 -60 -149 -60c-94 0 -144 67 -144 142zM150 144c0 -59 30 -103 92 -103c39 0 101 21 101 102v141c-22 -14 -75 -33 -115 -48
c-56 -21 -78 -45 -78 -92z" />
    <glyph glyph-name="aacute" unicode="&#xe1;" horiz-adv-x="523" 
d="M196 562l119 120c30 31 47 41 64 41c15 0 39 -23 39 -43c0 -21 -26 -38 -56 -54l-151 -84zM49 130c0 47 21 97 93 119c79 25 176 50 201 76v42c0 80 -46 100 -85 100c-40 0 -81 -24 -103 -98c-5 -17 -11 -28 -32 -28c-19 0 -56 15 -56 47c0 55 89 114 202 114
c151 0 164 -75 164 -133v-242c0 -63 17 -82 35 -86c15 -4 37 -2 51 1l6 -24c-38 -19 -81 -30 -118 -30c-35 0 -51 23 -65 60c-32 -21 -91 -60 -149 -60c-94 0 -144 67 -144 142zM150 144c0 -59 30 -103 92 -103c39 0 101 21 101 102v141c-22 -14 -75 -33 -115 -48
c-56 -21 -78 -45 -78 -92z" />
    <glyph glyph-name="acircumflex" unicode="&#xe2;" horiz-adv-x="523" 
d="M107 562l117 133c13 14 24 25 36 25s24 -12 36 -25l117 -133l-19 -21l-103 77c-11 8 -22 15 -31 15c-8 0 -20 -7 -31 -15l-103 -77zM49 130c0 47 21 97 93 119c79 25 176 50 201 76v42c0 80 -46 100 -85 100c-40 0 -81 -24 -103 -98c-5 -17 -11 -28 -32 -28
c-19 0 -56 15 -56 47c0 55 89 114 202 114c151 0 164 -75 164 -133v-242c0 -63 17 -82 35 -86c15 -4 37 -2 51 1l6 -24c-38 -19 -81 -30 -118 -30c-35 0 -51 23 -65 60c-32 -21 -91 -60 -149 -60c-94 0 -144 67 -144 142zM150 144c0 -59 30 -103 92 -103
c39 0 101 21 101 102v141c-22 -14 -75 -33 -115 -48c-56 -21 -78 -45 -78 -92z" />
    <glyph glyph-name="atilde" unicode="&#xe3;" horiz-adv-x="523" 
d="M84 576c20 40 48 98 112 98c24 0 52 -9 79 -19c28 -9 55 -19 76 -19c28 0 40 11 68 46l20 -11c-14 -28 -28 -52 -44 -69c-17 -16 -35 -26 -60 -26c-22 0 -51 10 -80 19c-29 10 -58 19 -80 19c-33 0 -50 -16 -72 -51zM49 130c0 47 21 97 93 119c79 25 176 50 201 76v42
c0 80 -46 100 -85 100c-40 0 -81 -24 -103 -98c-5 -17 -11 -28 -32 -28c-19 0 -56 15 -56 47c0 55 89 114 202 114c151 0 164 -75 164 -133v-242c0 -63 17 -82 35 -86c15 -4 37 -2 51 1l6 -24c-38 -19 -81 -30 -118 -30c-35 0 -51 23 -65 60c-32 -21 -91 -60 -149 -60
c-94 0 -144 67 -144 142zM150 144c0 -59 30 -103 92 -103c39 0 101 21 101 102v141c-22 -14 -75 -33 -115 -48c-56 -21 -78 -45 -78 -92z" />
    <glyph glyph-name="adieresis" unicode="&#xe4;" horiz-adv-x="523" 
d="M306 627c0 29 21 56 60 56s60 -27 60 -56s-21 -57 -60 -57s-60 28 -60 57zM98 627c0 29 21 56 60 56s60 -27 60 -56s-21 -57 -60 -57s-60 28 -60 57zM49 130c0 47 21 97 93 119c79 25 176 50 201 76v42c0 80 -46 100 -85 100c-40 0 -81 -24 -103 -98
c-5 -17 -11 -28 -32 -28c-19 0 -56 15 -56 47c0 55 89 114 202 114c151 0 164 -75 164 -133v-242c0 -63 17 -82 35 -86c15 -4 37 -2 51 1l6 -24c-38 -19 -81 -30 -118 -30c-35 0 -51 23 -65 60c-32 -21 -91 -60 -149 -60c-94 0 -144 67 -144 142zM150 144
c0 -59 30 -103 92 -103c39 0 101 21 101 102v141c-22 -14 -75 -33 -115 -48c-56 -21 -78 -45 -78 -92z" />
    <glyph glyph-name="aring" unicode="&#xe5;" horiz-adv-x="523" 
d="M154 651c0 75 54 101 108 101s108 -26 108 -101s-54 -101 -108 -101s-108 26 -108 101zM212 651c0 -52 22 -68 50 -68s50 16 50 68s-22 68 -50 68s-50 -16 -50 -68zM49 130c0 47 21 97 93 119c79 25 176 50 201 76v42c0 80 -46 100 -85 100c-40 0 -81 -24 -103 -98
c-5 -17 -11 -28 -32 -28c-19 0 -56 15 -56 47c0 55 89 114 202 114c151 0 164 -75 164 -133v-242c0 -63 17 -82 35 -86c15 -4 37 -2 51 1l6 -24c-38 -19 -81 -30 -118 -30c-35 0 -51 23 -65 60c-32 -21 -91 -60 -149 -60c-94 0 -144 67 -144 142zM150 144
c0 -59 30 -103 92 -103c39 0 101 21 101 102v141c-22 -14 -75 -33 -115 -48c-56 -21 -78 -45 -78 -92z" />
    <glyph glyph-name="ae" unicode="&#xe6;" horiz-adv-x="797" 
d="M49 130c0 47 21 97 93 119c79 25 176 50 201 76v44c0 78 -46 98 -84 98c-42 0 -83 -24 -105 -98c-5 -17 -11 -28 -30 -28c-21 0 -58 15 -58 47c0 55 89 114 204 114c74 0 117 -25 139 -62c38 41 87 62 153 62c183 0 202 -142 202 -201c0 -33 -19 -38 -40 -38h-288
c-2 -104 23 -224 147 -224c79 0 117 48 145 106l30 -16c-27 -79 -84 -140 -195 -141c-95 -1 -153 32 -185 87l-37 -27c-29 -21 -84 -58 -146 -60c-96 0 -146 67 -146 142zM150 144c0 -59 30 -103 92 -103c39 0 101 23 101 102v141c-22 -14 -75 -33 -115 -48
c-56 -21 -78 -45 -78 -92zM437 301h189c28 0 34 13 34 32c0 39 -11 134 -104 134c-103 0 -119 -125 -119 -166z" />
    <glyph glyph-name="ccedilla" unicode="&#xe7;" horiz-adv-x="496" 
d="M49 240c0 133 61 262 243 262c108 0 174 -51 174 -97c0 -38 -39 -51 -60 -51c-19 0 -25 10 -31 26c-20 54 -49 87 -94 87c-69 0 -128 -60 -128 -209c0 -94 28 -218 147 -218c73 0 113 36 144 106l29 -14c-25 -96 -104 -136 -171 -142l-26 -45c37 -5 89 -23 89 -87
c0 -77 -91 -88 -122 -88c-18 0 -30 1 -44 3v26c49 0 88 15 88 56c0 49 -44 53 -62 54l-4 7l40 74c-137 6 -212 91 -212 250z" />
    <glyph glyph-name="egrave" unicode="&#xe8;" horiz-adv-x="514" 
d="M121 680c0 20 24 43 39 43c17 0 34 -10 64 -41l119 -120l-15 -20l-151 84c-30 16 -56 33 -56 54zM49 241c0 150 74 261 230 261c183 0 202 -142 202 -201c0 -33 -19 -38 -40 -38h-288c-2 -104 23 -224 147 -224c79 0 117 48 145 106l30 -16c-27 -79 -84 -141 -195 -141
c-163 0 -231 95 -231 253zM154 301h189c28 0 34 13 34 32c0 39 -11 134 -104 134c-104 0 -119 -125 -119 -166z" />
    <glyph glyph-name="eacute" unicode="&#xe9;" horiz-adv-x="514" 
d="M201 562l119 120c30 31 47 41 64 41c15 0 39 -23 39 -43c0 -21 -26 -38 -56 -54l-151 -84zM49 241c0 150 74 261 230 261c183 0 202 -142 202 -201c0 -33 -19 -38 -40 -38h-288c-2 -104 23 -224 147 -224c79 0 117 48 145 106l30 -16c-27 -79 -84 -141 -195 -141
c-163 0 -231 95 -231 253zM154 301h189c28 0 34 13 34 32c0 39 -11 134 -104 134c-104 0 -119 -125 -119 -166z" />
    <glyph glyph-name="ecircumflex" unicode="&#xea;" horiz-adv-x="514" 
d="M120 562l117 133c13 14 24 25 36 25s24 -12 36 -25l117 -133l-19 -21l-103 77c-11 8 -22 15 -31 15c-8 0 -20 -7 -31 -15l-103 -77zM49 241c0 150 74 261 230 261c183 0 202 -142 202 -201c0 -33 -19 -38 -40 -38h-288c-2 -104 23 -224 147 -224c79 0 117 48 145 106
l30 -16c-27 -79 -84 -141 -195 -141c-163 0 -231 95 -231 253zM154 301h189c28 0 34 13 34 32c0 39 -11 134 -104 134c-104 0 -119 -125 -119 -166z" />
    <glyph glyph-name="edieresis" unicode="&#xeb;" horiz-adv-x="514" 
d="M301 627c0 29 21 56 60 56s60 -27 60 -56s-21 -57 -60 -57s-60 28 -60 57zM93 627c0 29 21 56 60 56s60 -27 60 -56s-21 -57 -60 -57s-60 28 -60 57zM49 241c0 150 74 261 230 261c183 0 202 -142 202 -201c0 -33 -19 -38 -40 -38h-288c-2 -104 23 -224 147 -224
c79 0 117 48 145 106l30 -16c-27 -79 -84 -141 -195 -141c-163 0 -231 95 -231 253zM154 301h189c28 0 34 13 34 32c0 39 -11 134 -104 134c-104 0 -119 -125 -119 -166z" />
    <glyph glyph-name="eth" unicode="&#xf0;" horiz-adv-x="577" 
d="M49 245c0 160 80 257 243 257c19 0 35 -3 52 -6l2 3c-22 30 -50 62 -84 95l-130 -59l-25 36l122 54c-32 29 -71 60 -112 91v9l43 17c47 -28 93 -60 130 -90l131 61l25 -36l-119 -54c38 -31 71 -63 95 -92c74 -89 106 -164 106 -276c0 -180 -83 -267 -241 -267
s-238 97 -238 257zM153 245c0 -134 35 -222 134 -222c103 0 137 88 137 222c0 149 -27 222 -137 222c-99 0 -134 -88 -134 -222z" />
    <glyph glyph-name="ntilde" unicode="&#xf1;" horiz-adv-x="619" 
d="M132 576c20 40 48 98 112 98c24 0 52 -9 79 -19c28 -9 55 -19 76 -19c28 0 40 11 68 46l20 -11c-14 -28 -28 -52 -44 -69c-17 -16 -35 -26 -60 -26c-22 0 -51 10 -80 19c-29 10 -58 19 -80 19c-33 0 -50 -16 -72 -51zM32 0v29c72 5 75 7 75 58v315c0 36 -6 41 -32 45
l-38 5v25l149 25l14 -76c62 40 108 76 182 76c92 0 147 -58 147 -159v-256c0 -51 4 -53 75 -58v-29h-244v29c72 5 75 7 75 58v236c0 87 -37 125 -105 125c-53 0 -98 -33 -119 -72c-8 -16 -10 -30 -10 -55v-234c0 -51 4 -53 75 -58v-29h-244z" />
    <glyph glyph-name="ograve" unicode="&#xf2;" horiz-adv-x="577" 
d="M128 680c0 20 24 43 39 43c17 0 34 -10 64 -41l119 -120l-15 -20l-151 84c-30 16 -56 33 -56 54zM49 245c0 162 79 257 240 257s240 -95 240 -257s-79 -257 -240 -257s-240 95 -240 257zM153 245c0 -138 44 -222 136 -222s136 84 136 222s-44 222 -136 222
s-136 -84 -136 -222z" />
    <glyph glyph-name="oacute" unicode="&#xf3;" horiz-adv-x="577" 
d="M208 562l119 120c30 31 47 41 64 41c15 0 39 -23 39 -43c0 -21 -26 -38 -56 -54l-151 -84zM49 245c0 162 79 257 240 257s240 -95 240 -257s-79 -257 -240 -257s-240 95 -240 257zM153 245c0 -138 44 -222 136 -222s136 84 136 222s-44 222 -136 222s-136 -84 -136 -222z
" />
    <glyph glyph-name="ocircumflex" unicode="&#xf4;" horiz-adv-x="577" 
d="M136 562l117 133c13 14 24 25 36 25s24 -12 36 -25l117 -133l-19 -21l-103 77c-11 8 -22 15 -31 15c-8 0 -20 -7 -31 -15l-103 -77zM49 245c0 162 79 257 240 257s240 -95 240 -257s-79 -257 -240 -257s-240 95 -240 257zM153 245c0 -138 44 -222 136 -222
s136 84 136 222s-44 222 -136 222s-136 -84 -136 -222z" />
    <glyph glyph-name="otilde" unicode="&#xf5;" horiz-adv-x="577" 
d="M111 576c20 40 48 98 112 98c24 0 52 -9 79 -19c28 -9 55 -19 76 -19c28 0 40 11 68 46l20 -11c-14 -28 -28 -52 -44 -69c-17 -16 -35 -26 -60 -26c-22 0 -51 10 -80 19c-29 10 -58 19 -80 19c-33 0 -50 -16 -72 -51zM49 245c0 162 79 257 240 257s240 -95 240 -257
s-79 -257 -240 -257s-240 95 -240 257zM153 245c0 -138 44 -222 136 -222s136 84 136 222s-44 222 -136 222s-136 -84 -136 -222z" />
    <glyph glyph-name="odieresis" unicode="&#xf6;" horiz-adv-x="577" 
d="M333 627c0 29 21 56 60 56s60 -27 60 -56s-21 -57 -60 -57s-60 28 -60 57zM125 627c0 29 21 56 60 56s60 -27 60 -56s-21 -57 -60 -57s-60 28 -60 57zM49 245c0 162 79 257 240 257s240 -95 240 -257s-79 -257 -240 -257s-240 95 -240 257zM153 245
c0 -138 44 -222 136 -222s136 84 136 222s-44 222 -136 222s-136 -84 -136 -222z" />
    <glyph glyph-name="divide" unicode="&#xf7;" horiz-adv-x="570" 
d="M225 86c0 31 26 58 60 58c32 0 57 -27 57 -58c0 -34 -25 -60 -57 -60c-34 0 -60 26 -60 60zM225 416c0 31 26 58 60 58c32 0 57 -27 57 -58c0 -34 -25 -60 -57 -60c-34 0 -60 26 -60 60zM43 221v58h484v-58h-484z" />
    <glyph glyph-name="oslash" unicode="&#xf8;" horiz-adv-x="577" 
d="M49 245c0 162 79 257 239 257c46 0 86 -8 119 -23l33 53l32 -21l-32 -51c59 -42 88 -116 88 -215c0 -162 -78 -257 -240 -257c-50 0 -92 9 -125 28l-36 -57l-31 23l34 55c-55 43 -81 114 -81 208zM148 245c0 -58 8 -107 24 -141l205 327c-22 24 -51 36 -89 36
c-94 0 -142 -84 -140 -222zM194 66c24 -29 55 -43 94 -43c98 0 141 84 141 222c0 64 -9 116 -28 152z" />
    <glyph glyph-name="ugrave" unicode="&#xf9;" horiz-adv-x="606" 
d="M122 680c0 20 24 43 39 43c17 0 34 -10 64 -41l119 -120l-15 -20l-151 84c-30 16 -56 33 -56 54zM26 452v25l157 25l7 -6v-340c0 -78 43 -114 101 -114c52 0 100 29 123 75c5 10 8 32 8 60v225c0 36 -6 41 -32 45l-38 5v25l157 25l7 -6v-409c0 -51 6 -53 75 -58v-29h-160
l-10 60c-29 -14 -98 -72 -183 -72c-74 0 -142 35 -142 150v264c0 36 -6 41 -32 45z" />
    <glyph glyph-name="uacute" unicode="&#xfa;" horiz-adv-x="606" 
d="M232 562l119 120c30 31 47 41 64 41c15 0 39 -23 39 -43c0 -21 -26 -38 -56 -54l-151 -84zM26 452v25l157 25l7 -6v-340c0 -78 43 -114 101 -114c52 0 100 29 123 75c5 10 8 32 8 60v225c0 36 -6 41 -32 45l-38 5v25l157 25l7 -6v-409c0 -51 6 -53 75 -58v-29h-160
l-10 60c-29 -14 -98 -72 -183 -72c-74 0 -142 35 -142 150v264c0 36 -6 41 -32 45z" />
    <glyph glyph-name="ucircumflex" unicode="&#xfb;" horiz-adv-x="606" 
d="M146 562l117 133c13 14 24 25 36 25s24 -12 36 -25l117 -133l-19 -21l-103 77c-11 8 -22 15 -31 15c-8 0 -20 -7 -31 -15l-103 -77zM26 452v25l157 25l7 -6v-340c0 -78 43 -114 101 -114c52 0 100 29 123 75c5 10 8 32 8 60v225c0 36 -6 41 -32 45l-38 5v25l157 25l7 -6
v-409c0 -51 6 -53 75 -58v-29h-160l-10 60c-29 -14 -98 -72 -183 -72c-74 0 -142 35 -142 150v264c0 36 -6 41 -32 45z" />
    <glyph glyph-name="udieresis" unicode="&#xfc;" horiz-adv-x="606" 
d="M347 627c0 29 21 56 60 56s60 -27 60 -56s-21 -57 -60 -57s-60 28 -60 57zM139 627c0 29 21 56 60 56s60 -27 60 -56s-21 -57 -60 -57s-60 28 -60 57zM26 452v25l157 25l7 -6v-340c0 -78 43 -114 101 -114c52 0 100 29 123 75c5 10 8 32 8 60v225c0 36 -6 41 -32 45
l-38 5v25l157 25l7 -6v-409c0 -51 6 -53 75 -58v-29h-160l-10 60c-29 -14 -98 -72 -183 -72c-74 0 -142 35 -142 150v264c0 36 -6 41 -32 45z" />
    <glyph glyph-name="yacute" unicode="&#xfd;" horiz-adv-x="506" 
d="M212 562l119 120c30 31 47 41 64 41c15 0 39 -23 39 -43c0 -21 -26 -38 -56 -54l-151 -84zM-5 461v29h229v-29l-43 -4c-23 -2 -21 -13 -15 -31c37 -105 77 -214 123 -335h2c44 120 96 271 111 331c5 20 3 32 -14 34l-52 5v29h192v-29c-50 -3 -56 -11 -74 -51
c-31 -70 -123 -314 -185 -492c-51 -148 -102 -160 -142 -160c-42 0 -70 28 -70 52c0 29 25 56 44 56c12 0 20 -5 30 -14c18 -18 27 -21 37 -21c11 0 29 9 44 42c15 32 24 62 24 85c0 17 -2 32 -8 49c-24 69 -107 282 -157 402c-18 44 -28 50 -76 52z" />
    <glyph glyph-name="thorn" unicode="&#xfe;" horiz-adv-x="606" 
d="M23 -201c70 5 75 9 75 58v765c0 38 -6 43 -32 46l-38 4v25l157 25l7 -6v-286c39 23 97 72 170 72c182 0 195 -175 195 -246c0 -206 -116 -268 -251 -268c-46 0 -93 11 -114 23v-154c0 -49 6 -53 90 -58v-29h-259v29zM192 157c0 -23 1 -43 7 -61c16 -46 56 -73 108 -73
c100 0 146 80 146 227c0 172 -89 198 -129 198c-53 0 -96 -24 -119 -70c-9 -18 -13 -32 -13 -57v-164z" />
    <glyph glyph-name="ydieresis" unicode="&#xff;" horiz-adv-x="506" 
d="M312 627c0 29 21 56 60 56s60 -27 60 -56s-21 -57 -60 -57s-60 28 -60 57zM104 627c0 29 21 56 60 56s60 -27 60 -56s-21 -57 -60 -57s-60 28 -60 57zM-5 461v29h229v-29l-43 -4c-23 -2 -21 -13 -15 -31c37 -105 77 -214 123 -335h2c44 120 96 271 111 331
c5 20 3 32 -14 34l-52 5v29h192v-29c-50 -3 -56 -11 -74 -51c-31 -70 -123 -314 -185 -492c-51 -148 -102 -160 -142 -160c-42 0 -70 28 -70 52c0 29 25 56 44 56c12 0 20 -5 30 -14c18 -18 27 -21 37 -21c11 0 29 9 44 42c15 32 24 62 24 85c0 17 -2 32 -8 49
c-24 69 -107 282 -157 402c-18 44 -28 50 -76 52z" />
    <glyph glyph-name="Amacron" unicode="&#x100;" horiz-adv-x="635" 
d="M156 759v59h316v-59h-316zM-29 0v29c63 3 72 15 93 69c35 91 77 211 108 298l105 296h74l212 -603c18 -52 29 -55 87 -60v-29h-256v29l45 4c32 3 37 14 27 43l-67 191h-224c-23 -71 -44 -133 -61 -193c-8 -27 -5 -37 25 -40l52 -5v-29h-220zM188 305h199l-99 286h-3
c-30 -88 -65 -186 -97 -286z" />
    <glyph glyph-name="amacron" unicode="&#x101;" horiz-adv-x="523" 
d="M125 597v59h288v-59h-288zM49 130c0 47 21 97 93 119c79 25 176 50 201 76v42c0 80 -46 100 -85 100c-40 0 -81 -24 -103 -98c-5 -17 -11 -28 -32 -28c-19 0 -56 15 -56 47c0 55 89 114 202 114c151 0 164 -75 164 -133v-242c0 -63 17 -82 35 -86c15 -4 37 -2 51 1l6 -24
c-38 -19 -81 -30 -118 -30c-35 0 -51 23 -65 60c-32 -21 -91 -60 -149 -60c-94 0 -144 67 -144 142zM150 144c0 -59 30 -103 92 -103c39 0 101 21 101 102v141c-22 -14 -75 -33 -115 -48c-56 -21 -78 -45 -78 -92z" />
    <glyph glyph-name="Abreve" unicode="&#x102;" horiz-adv-x="635" 
d="M170 870h28c2 -19 28 -59 122 -59s120 40 122 59h28c0 -56 -29 -121 -150 -121s-150 65 -150 121zM-29 0v29c63 3 72 15 93 69c35 91 77 211 108 298l105 296h74l212 -603c18 -52 29 -55 87 -60v-29h-256v29l45 4c32 3 37 14 27 43l-67 191h-224
c-23 -71 -44 -133 -61 -193c-8 -27 -5 -37 25 -40l52 -5v-29h-220zM188 305h199l-99 286h-3c-30 -88 -65 -186 -97 -286z" />
    <glyph glyph-name="abreve" unicode="&#x103;" horiz-adv-x="523" 
d="M49 130c0 47 21 97 93 119c79 25 176 50 201 76v42c0 80 -46 100 -85 100c-40 0 -81 -24 -103 -98c-5 -17 -11 -28 -32 -28c-19 0 -56 15 -56 47c0 55 89 114 202 114c151 0 164 -75 164 -133v-242c0 -63 17 -82 35 -86c15 -4 37 -2 51 1l6 -24c-38 -19 -81 -30 -118 -30
c-35 0 -51 23 -65 60c-32 -21 -91 -60 -149 -60c-94 0 -144 67 -144 142zM150 144c0 -59 30 -103 92 -103c39 0 101 21 101 102v141c-22 -14 -75 -33 -115 -48c-56 -21 -78 -45 -78 -92zM128 704h24c2 -21 20 -71 113 -71s111 50 113 71h24c0 -63 -12 -136 -137 -136
s-137 73 -137 136z" />
    <glyph glyph-name="aogonek" unicode="&#x105;" horiz-adv-x="523" 
d="M49 130c0 47 21 96 93 119c79 25 176 50 201 76v42c0 80 -46 100 -85 100c-40 0 -81 -24 -103 -98c-5 -17 -11 -28 -32 -28c-19 0 -56 15 -56 47c0 55 89 114 202 114c151 0 164 -75 164 -133v-242c0 -74 21 -88 55 -88c11 0 23 1 31 3l6 -24c-43 -22 -86 -25 -104 -38
c-34 -24 -61 -63 -61 -112c0 -36 26 -54 58 -54c16 0 40 4 57 12l8 -21c-24 -21 -53 -35 -93 -35c-90 0 -104 60 -104 91c0 59 41 103 101 131c-22 5 -35 29 -45 56c-32 -21 -91 -60 -149 -60c-94 0 -144 67 -144 142zM150 144c0 -59 30 -103 92 -103c39 0 101 21 101 102
v141c-22 -14 -75 -33 -115 -48c-56 -21 -78 -45 -78 -92z" />
    <glyph glyph-name="Cacute" unicode="&#x106;" horiz-adv-x="684" 
d="M321 764l145 99c35 24 49 30 65 27c15 -3 34 -32 32 -52c-2 -19 -16 -26 -61 -40l-170 -56zM48 341c0 113 34 199 91 263c60 67 159 103 282 103c91 0 167 -18 212 -39v-156h-30c-19 118 -90 160 -192 160c-186 0 -251 -164 -251 -328c0 -121 43 -324 249 -324
c131 0 182 76 210 180h30l-14 -167c-48 -26 -140 -48 -220 -48c-112 0 -210 23 -272 85c-60 60 -95 154 -95 271z" />
    <glyph glyph-name="cacute" unicode="&#x107;" horiz-adv-x="496" 
d="M211 562l119 120c30 31 47 41 64 41c15 0 39 -23 39 -43c0 -21 -26 -38 -56 -54l-151 -84zM49 240c0 133 61 262 243 262c108 0 174 -51 174 -97c0 -38 -39 -51 -59 -51c-19 0 -25 10 -31 26c-20 54 -49 87 -95 87c-69 0 -128 -60 -128 -209c0 -94 28 -218 147 -218
c73 0 113 36 144 106l29 -14c-28 -107 -122 -144 -192 -144c-150 0 -232 85 -232 252z" />
    <glyph glyph-name="Ccircumflex" unicode="&#x108;" horiz-adv-x="684" 
d="M267 738l116 114c14 13 25 24 37 24s24 -12 37 -24l116 -114l-13 -21l-107 61c-13 7 -24 14 -33 14c-8 0 -20 -7 -33 -14l-107 -61zM48 341c0 113 34 199 91 263c60 67 159 103 282 103c91 0 167 -18 212 -39v-156h-30c-19 118 -90 160 -192 160
c-186 0 -251 -164 -251 -328c0 -121 43 -324 249 -324c131 0 182 76 210 180h30l-14 -167c-48 -26 -140 -48 -220 -48c-112 0 -210 23 -272 85c-60 60 -95 154 -95 271z" />
    <glyph glyph-name="ccircumflex" unicode="&#x109;" horiz-adv-x="496" 
d="M139 562l117 133c13 14 24 25 36 25s24 -12 36 -25l117 -133l-19 -21l-103 77c-11 8 -22 15 -31 15c-8 0 -20 -7 -31 -15l-103 -77zM49 240c0 133 61 262 243 262c108 0 174 -51 174 -97c0 -38 -39 -51 -59 -51c-19 0 -25 10 -31 26c-20 54 -49 87 -95 87
c-69 0 -128 -60 -128 -209c0 -94 28 -218 147 -218c73 0 113 36 144 106l29 -14c-28 -107 -122 -144 -192 -144c-150 0 -232 85 -232 252z" />
    <glyph glyph-name="Cdotaccent" unicode="&#x10a;" horiz-adv-x="684" 
d="M362 787c0 28 21 54 58 54c38 0 58 -26 58 -54s-20 -55 -58 -55c-37 0 -58 27 -58 55zM48 341c0 113 34 199 91 263c60 67 159 103 282 103c91 0 167 -18 212 -39v-156h-30c-19 118 -90 160 -192 160c-186 0 -251 -164 -251 -328c0 -121 43 -324 249 -324
c131 0 182 76 210 180h30l-14 -167c-48 -26 -140 -48 -220 -48c-112 0 -210 23 -272 85c-60 60 -95 154 -95 271z" />
    <glyph glyph-name="cdotaccent" unicode="&#x10b;" horiz-adv-x="496" 
d="M232 627c0 29 21 56 60 56s60 -27 60 -56s-21 -57 -60 -57s-60 28 -60 57zM49 240c0 133 61 262 243 262c108 0 174 -51 174 -97c0 -38 -39 -51 -59 -51c-19 0 -25 10 -31 26c-20 54 -49 87 -95 87c-69 0 -128 -60 -128 -209c0 -94 28 -218 147 -218c73 0 113 36 144 106
l29 -14c-28 -107 -122 -144 -192 -144c-150 0 -232 85 -232 252z" />
    <glyph glyph-name="Ccaron" unicode="&#x10c;" horiz-adv-x="684" 
d="M267 861l13 21l107 -61c13 -7 25 -14 33 -14c9 0 20 7 33 14l107 61l13 -21l-116 -114c-13 -12 -25 -24 -37 -24s-23 11 -37 24zM48 341c0 113 34 199 91 263c60 67 159 103 282 103c91 0 167 -18 212 -39v-156h-30c-19 118 -90 160 -192 160c-186 0 -251 -164 -251 -328
c0 -121 43 -324 249 -324c131 0 182 76 210 180h30l-14 -167c-48 -26 -140 -48 -220 -48c-112 0 -210 23 -272 85c-60 60 -95 154 -95 271z" />
    <glyph glyph-name="ccaron" unicode="&#x10d;" horiz-adv-x="496" 
d="M139 699l19 21l103 -77c11 -8 23 -15 31 -15c9 0 20 7 31 15l103 77l19 -21l-117 -133c-12 -13 -24 -25 -36 -25s-23 11 -36 25zM49 240c0 133 61 262 243 262c108 0 174 -51 174 -97c0 -38 -39 -51 -59 -51c-19 0 -25 10 -31 26c-20 54 -49 87 -95 87
c-69 0 -128 -60 -128 -209c0 -94 28 -218 147 -218c73 0 113 36 144 106l29 -14c-28 -107 -122 -144 -192 -144c-150 0 -232 85 -232 252z" />
    <glyph glyph-name="Dcaron" unicode="&#x10e;" horiz-adv-x="779" 
d="M215 861l13 21l107 -61c13 -7 25 -14 33 -14c9 0 20 7 33 14l107 61l13 -21l-116 -114c-13 -12 -25 -24 -37 -24s-23 11 -37 24zM35 0v29c88 6 90 8 90 64v506c0 56 -2 58 -90 64v29h332c291 0 364 -170 364 -334c0 -179 -77 -358 -384 -358h-312zM224 125
c0 -79 17 -90 104 -90c168 0 291 67 291 319c0 169 -67 303 -279 303c-107 0 -116 -5 -116 -57v-475z" />
    <glyph glyph-name="dcaron" unicode="&#x10f;" horiz-adv-x="648" 
d="M555 564c22 31 36 63 36 92c0 41 -46 46 -46 88c0 25 20 46 51 46c41 0 68 -39 68 -89c0 -62 -48 -111 -92 -153zM49 235c0 87 26 153 69 198c42 43 103 69 185 69c46 0 83 -9 111 -24v164c0 38 -6 43 -32 46l-38 4v25l157 25l7 -6v-649c0 -51 4 -53 75 -58v-29h-162
l-8 7v49c-54 -44 -101 -68 -155 -68c-132 0 -209 99 -209 247zM153 247c0 -115 46 -205 138 -205c52 0 96 20 116 72c6 17 7 34 7 56v176c0 27 -1 41 -9 58c-18 41 -56 63 -103 63c-102 0 -149 -90 -149 -220z" />
    <glyph glyph-name="Dcroat" unicode="&#x110;" horiz-adv-x="779" 
d="M224 125c0 -79 17 -90 104 -90c168 0 291 67 291 319c0 169 -67 303 -279 303c-107 0 -116 -5 -116 -57v-216h109v-59h-109v-200zM35 0v29c88 6 90 8 90 64v232h-80v59h80v215c0 56 -2 58 -90 64v29h332c291 0 364 -170 364 -334c0 -179 -77 -358 -384 -358h-312z" />
    <glyph glyph-name="dcroat" unicode="&#x111;" horiz-adv-x="598" 
d="M49 235c0 87 26 153 69 198c42 43 103 69 185 69c46 0 83 -9 111 -24v104h-111v59h111v1c0 38 -6 43 -32 46l-38 4v25l157 25l7 -6v-95h69v-59h-69v-495c0 -51 4 -53 75 -58v-29h-162l-8 7v49c-54 -44 -101 -68 -155 -68c-132 0 -209 99 -209 247zM153 247
c0 -115 46 -205 138 -205c52 0 96 20 116 72c6 17 7 34 7 56v176c0 27 -1 41 -9 58c-18 41 -56 63 -103 63c-102 0 -149 -90 -149 -220z" />
    <glyph glyph-name="Emacron" unicode="&#x112;" horiz-adv-x="606" 
d="M148 759v59h316v-59h-316zM35 0v29c88 6 90 8 90 64v506c0 56 -2 58 -90 64v29h505v-164h-30c-14 104 -37 129 -151 129h-98c-32 0 -37 -4 -37 -36v-242h140c85 0 89 24 98 86h30v-211h-30c-9 63 -13 87 -98 87h-140v-221c0 -49 4 -66 25 -75c21 -8 57 -10 104 -10
c126 0 171 16 194 138h30l-12 -173h-530z" />
    <glyph glyph-name="emacron" unicode="&#x113;" horiz-adv-x="514" 
d="M134 597v59h288v-59h-288zM49 241c0 150 74 261 230 261c183 0 202 -142 202 -201c0 -33 -19 -38 -40 -38h-288c-2 -104 23 -224 147 -224c79 0 117 48 145 106l30 -16c-27 -79 -84 -141 -195 -141c-163 0 -231 95 -231 253zM154 301h189c28 0 34 13 34 32
c0 39 -11 134 -104 134c-104 0 -119 -125 -119 -166z" />
    <glyph glyph-name="Ebreve" unicode="&#x114;" horiz-adv-x="606" 
d="M156 870h28c2 -19 28 -59 122 -59s120 40 122 59h28c0 -56 -29 -121 -150 -121s-150 65 -150 121zM35 0v29c88 6 90 8 90 64v506c0 56 -2 58 -90 64v29h505v-164h-30c-14 104 -37 129 -151 129h-98c-32 0 -37 -4 -37 -36v-242h140c85 0 89 24 98 86h30v-211h-30
c-9 63 -13 87 -98 87h-140v-221c0 -49 4 -66 25 -75c21 -8 57 -10 104 -10c126 0 171 16 194 138h30l-12 -173h-530z" />
    <glyph glyph-name="ebreve" unicode="&#x115;" horiz-adv-x="514" 
d="M141 704h24c2 -21 20 -71 113 -71s111 50 113 71h24c0 -63 -12 -136 -137 -136s-137 73 -137 136zM49 241c0 150 74 261 230 261c183 0 202 -142 202 -201c0 -33 -19 -38 -40 -38h-288c-2 -104 23 -224 147 -224c79 0 117 48 145 106l30 -16c-27 -79 -84 -141 -195 -141
c-163 0 -231 95 -231 253zM154 301h189c28 0 34 13 34 32c0 39 -11 134 -104 134c-104 0 -119 -125 -119 -166z" />
    <glyph glyph-name="Edotaccent" unicode="&#x116;" horiz-adv-x="606" 
d="M248 787c0 28 21 54 58 54c38 0 58 -26 58 -54s-20 -55 -58 -55c-37 0 -58 27 -58 55zM35 0v29c88 6 90 8 90 64v506c0 56 -2 58 -90 64v29h505v-164h-30c-14 104 -37 129 -151 129h-98c-32 0 -37 -4 -37 -36v-242h140c85 0 89 24 98 86h30v-211h-30c-9 63 -13 87 -98 87
h-140v-221c0 -49 4 -66 25 -75c21 -8 57 -10 104 -10c126 0 171 16 194 138h30l-12 -173h-530z" />
    <glyph glyph-name="edotaccent" unicode="&#x117;" horiz-adv-x="514" 
d="M218 627c0 29 21 56 60 56s60 -27 60 -56s-21 -57 -60 -57s-60 28 -60 57zM49 241c0 150 74 261 230 261c183 0 202 -142 202 -201c0 -33 -19 -38 -40 -38h-288c-2 -104 23 -224 147 -224c79 0 117 48 145 106l30 -16c-27 -79 -84 -141 -195 -141
c-163 0 -231 95 -231 253zM154 301h189c28 0 34 13 34 32c0 39 -11 134 -104 134c-104 0 -119 -125 -119 -166z" />
    <glyph glyph-name="Eogonek" unicode="&#x118;" horiz-adv-x="606" 
d="M35 0v29c88 6 90 8 90 64v506c0 56 -2 58 -90 64v29h505v-164h-30c-14 104 -37 129 -151 129h-98c-32 0 -37 -4 -37 -36v-242h140c85 0 89 24 98 86h30v-211h-30c-9 63 -13 87 -98 87h-140v-221c0 -49 4 -66 25 -75c21 -8 57 -10 104 -10c126 0 171 16 194 138h30
l-12 -173h-69c-48 -40 -76 -82 -76 -132c0 -36 26 -54 58 -54c16 0 40 4 57 12l8 -21c-24 -21 -53 -35 -93 -35c-90 0 -104 60 -104 91c0 63 43 103 107 139h-418z" />
    <glyph glyph-name="eogonek" unicode="&#x119;" horiz-adv-x="514" 
d="M49 241c0 150 74 261 230 261c183 0 202 -142 202 -201c0 -33 -19 -38 -40 -38h-288c-2 -104 23 -224 147 -224c79 0 117 48 145 106l30 -16c-17 -49 -38 -78 -76 -118c-50 -52 -80 -89 -80 -143c0 -36 26 -54 58 -54c16 0 40 4 57 12l8 -21c-24 -21 -53 -35 -93 -35
c-90 0 -104 60 -104 91c0 56 36 98 100 135c-20 -6 -46 -8 -65 -8c-163 0 -231 95 -231 253zM154 301h189c28 0 34 13 34 32c0 39 -11 134 -104 134c-104 0 -119 -125 -119 -166z" />
    <glyph glyph-name="Ecaron" unicode="&#x11a;" horiz-adv-x="606" 
d="M153 861l13 21l107 -61c13 -7 25 -14 33 -14c9 0 20 7 33 14l107 61l13 -21l-116 -114c-13 -12 -25 -24 -37 -24s-23 11 -37 24zM35 0v29c88 6 90 8 90 64v506c0 56 -2 58 -90 64v29h505v-164h-30c-14 104 -37 129 -151 129h-98c-32 0 -37 -4 -37 -36v-242h140
c85 0 89 24 98 86h30v-211h-30c-9 63 -13 87 -98 87h-140v-221c0 -49 4 -66 25 -75c21 -8 57 -10 104 -10c126 0 171 16 194 138h30l-12 -173h-530z" />
    <glyph glyph-name="ecaron" unicode="&#x11b;" horiz-adv-x="514" 
d="M125 699l19 21l103 -77c11 -8 23 -15 31 -15c9 0 20 7 31 15l103 77l19 -21l-117 -133c-12 -13 -24 -25 -36 -25s-23 11 -36 25zM49 241c0 150 74 261 230 261c183 0 202 -142 202 -201c0 -33 -19 -38 -40 -38h-288c-2 -104 23 -224 147 -224c79 0 117 48 145 106l30 -16
c-27 -79 -84 -141 -195 -141c-163 0 -231 95 -231 253zM154 301h189c28 0 34 13 34 32c0 39 -11 134 -104 134c-104 0 -119 -125 -119 -166z" />
    <glyph glyph-name="Gcircumflex" unicode="&#x11c;" horiz-adv-x="734" 
d="M276 738l116 114c14 13 25 24 37 24s24 -12 37 -24l116 -114l-13 -21l-107 61c-13 7 -24 14 -33 14c-8 0 -20 -7 -33 -14l-107 -61zM48 333c0 104 24 184 75 251c57 74 157 123 307 123c80 0 166 -17 215 -41v-157h-30c-21 113 -85 163 -195 163
c-197 0 -260 -165 -260 -323c0 -125 43 -329 273 -329c34 0 62 5 88 15c21 8 34 19 34 54v135c0 49 -5 55 -106 62v29h276v-29c-66 -7 -71 -12 -71 -62v-197c-63 -20 -160 -42 -230 -42c-88 0 -176 11 -252 64c-73 52 -124 155 -124 284z" />
    <glyph glyph-name="gcircumflex" unicode="&#x11d;" horiz-adv-x="520" 
d="M101 562l117 133c13 14 24 25 36 25s24 -12 36 -25l117 -133l-19 -21l-103 77c-11 8 -22 15 -31 15c-8 0 -20 -7 -31 -15l-103 -77zM42 -96c0 72 72 96 115 110v2c-48 5 -88 43 -88 78c0 39 38 68 92 89v2c-46 12 -108 55 -108 149c0 74 54 168 207 168
c46 0 101 -12 129 -31l128 41l8 -9l-20 -63l-79 -12c17 -17 30 -52 30 -94c0 -121 -107 -163 -202 -163c-11 0 -32 1 -51 3c-13 -4 -51 -20 -51 -49c0 -19 11 -43 83 -43h80c107 0 193 -38 193 -146c0 -62 -33 -109 -79 -137c-48 -29 -111 -41 -171 -41
c-116 0 -216 45 -216 146zM137 -91c0 -72 59 -116 144 -116c71 0 143 38 143 118c0 75 -65 96 -153 96c-48 0 -81 -6 -103 -23c-21 -16 -31 -41 -31 -75zM155 334c0 -84 47 -128 103 -128c58 0 102 44 102 128c0 97 -51 133 -100 133c-53 0 -105 -34 -105 -133z" />
    <glyph glyph-name="Gbreve" unicode="&#x11e;" horiz-adv-x="734" 
d="M279 870h28c2 -19 28 -59 122 -59s120 40 122 59h28c0 -56 -29 -121 -150 -121s-150 65 -150 121zM48 333c0 104 24 184 75 251c57 74 157 123 307 123c80 0 166 -17 215 -41v-157h-30c-21 113 -85 163 -195 163c-197 0 -260 -165 -260 -323c0 -125 43 -329 273 -329
c34 0 62 5 88 15c21 8 34 19 34 54v135c0 49 -5 55 -106 62v29h276v-29c-66 -7 -71 -12 -71 -62v-197c-63 -20 -160 -42 -230 -42c-88 0 -176 11 -252 64c-73 52 -124 155 -124 284z" />
    <glyph glyph-name="gbreve" unicode="&#x11f;" horiz-adv-x="520" 
d="M117 704h24c2 -21 20 -71 113 -71s111 50 113 71h24c0 -63 -12 -136 -137 -136s-137 73 -137 136zM42 -96c0 72 72 96 115 110v2c-48 5 -88 43 -88 78c0 39 38 68 92 89v2c-46 12 -108 55 -108 149c0 74 54 168 207 168c46 0 101 -12 129 -31l128 41l8 -9l-20 -63
l-79 -12c17 -17 30 -52 30 -94c0 -121 -107 -163 -202 -163c-11 0 -32 1 -51 3c-13 -4 -51 -20 -51 -49c0 -19 11 -43 83 -43h80c107 0 193 -38 193 -146c0 -62 -33 -109 -79 -137c-48 -29 -111 -41 -171 -41c-116 0 -216 45 -216 146zM137 -91c0 -72 59 -116 144 -116
c71 0 143 38 143 118c0 75 -65 96 -153 96c-48 0 -81 -6 -103 -23c-21 -16 -31 -41 -31 -75zM155 334c0 -84 47 -128 103 -128c58 0 102 44 102 128c0 97 -51 133 -100 133c-53 0 -105 -34 -105 -133z" />
    <glyph glyph-name="Gdotaccent" unicode="&#x120;" horiz-adv-x="734" 
d="M371 787c0 28 21 54 58 54c38 0 58 -26 58 -54s-20 -55 -58 -55c-37 0 -58 27 -58 55zM48 333c0 104 24 184 75 251c57 74 157 123 307 123c80 0 166 -17 215 -41v-157h-30c-21 113 -85 163 -195 163c-197 0 -260 -165 -260 -323c0 -125 43 -329 273 -329
c34 0 62 5 88 15c21 8 34 19 34 54v135c0 49 -5 55 -106 62v29h276v-29c-66 -7 -71 -12 -71 -62v-197c-63 -20 -160 -42 -230 -42c-88 0 -176 11 -252 64c-73 52 -124 155 -124 284z" />
    <glyph glyph-name="gdotaccent" unicode="&#x121;" horiz-adv-x="520" 
d="M194 627c0 29 21 56 60 56s60 -27 60 -56s-21 -57 -60 -57s-60 28 -60 57zM42 -96c0 72 72 96 115 110v2c-48 5 -88 43 -88 78c0 39 38 68 92 89v2c-46 12 -108 55 -108 149c0 74 54 168 207 168c46 0 101 -12 129 -31l128 41l8 -9l-20 -63l-79 -12c17 -17 30 -52 30 -94
c0 -121 -107 -163 -202 -163c-11 0 -32 1 -51 3c-13 -4 -51 -20 -51 -49c0 -19 11 -43 83 -43h80c107 0 193 -38 193 -146c0 -62 -33 -109 -79 -137c-48 -29 -111 -41 -171 -41c-116 0 -216 45 -216 146zM137 -91c0 -72 59 -116 144 -116c71 0 143 38 143 118
c0 75 -65 96 -153 96c-48 0 -81 -6 -103 -23c-21 -16 -31 -41 -31 -75zM155 334c0 -84 47 -128 103 -128c58 0 102 44 102 128c0 97 -51 133 -100 133c-53 0 -105 -34 -105 -133z" />
    <glyph glyph-name="Hcircumflex" unicode="&#x124;" horiz-adv-x="798" 
d="M246 738l116 114c14 13 25 24 37 24s24 -12 37 -24l116 -114l-13 -21l-107 61c-13 7 -24 14 -33 14c-8 0 -20 -7 -33 -14l-107 -61zM35 0v29c88 6 90 8 90 64v506c0 56 -2 58 -90 64v29h279v-29c-87 -6 -90 -8 -90 -64v-220h350v220c0 56 -2 58 -90 64v29h279v-29
c-87 -6 -90 -8 -90 -64v-506c0 -56 3 -58 90 -64v-29h-279v29c88 6 90 8 90 64v248h-350v-248c0 -56 3 -58 90 -64v-29h-279z" />
    <glyph glyph-name="hcircumflex" unicode="&#x125;" horiz-adv-x="607" 
d="M153 802l117 133c13 14 24 25 36 25s24 -12 36 -25l117 -133l-19 -21l-103 77c-11 8 -22 15 -31 15c-8 0 -20 -7 -31 -15l-103 -77zM21 0v29c70 5 74 9 74 58v555c0 36 -6 41 -32 45l-38 5v25l156 25l7 -6v-310c63 42 108 76 181 76c93 0 148 -58 148 -159v-256
c0 -49 6 -53 75 -58v-29h-244v29c70 5 75 9 75 58v236c0 87 -37 125 -105 125c-53 0 -99 -33 -120 -73c-8 -15 -9 -29 -9 -54v-234c0 -49 6 -53 75 -58v-29h-243z" />
    <glyph glyph-name="Hbar" unicode="&#x126;" horiz-adv-x="798" 
d="M35 0v29c88 6 90 8 90 64v471h-77v35h77c0 56 -2 58 -90 64v29h279v-29c-87 -6 -90 -8 -90 -64h350c0 56 -2 58 -90 64v29h279v-29c-87 -6 -90 -8 -90 -64h77v-35h-77v-471c0 -56 3 -58 90 -64v-29h-279v29c88 6 90 8 90 64v248h-350v-248c0 -56 3 -58 90 -64v-29h-279z
M224 379h350v185h-350v-185z" />
    <glyph glyph-name="hbar" unicode="&#x127;" horiz-adv-x="607" 
d="M21 0v29c70 5 74 9 74 58v477h-75v35h75v43c0 36 -6 41 -32 45l-38 5v25l156 25l7 -6v-137h221v-35h-221v-143c63 42 108 76 181 76c93 0 148 -58 148 -159v-251c0 -49 6 -53 75 -58v-29h-244v29c70 5 75 9 75 58v231c0 87 -37 125 -105 125c-53 0 -99 -33 -120 -73
c-8 -15 -9 -29 -9 -54v-229c0 -49 6 -53 75 -58v-29h-243z" />
    <glyph glyph-name="Itilde" unicode="&#x128;" horiz-adv-x="349" 
d="M-3 736c20 40 48 98 112 98c24 0 52 -9 79 -19c28 -9 55 -19 76 -19c28 0 40 11 68 46l20 -11c-29 -57 -55 -95 -104 -95c-22 0 -51 10 -80 19c-29 10 -58 19 -80 19c-33 0 -50 -16 -72 -51zM35 0v29c88 6 90 8 90 64v506c0 56 -2 58 -90 64v29h279v-29
c-87 -6 -90 -8 -90 -64v-506c0 -56 3 -58 90 -64v-29h-279z" />
    <glyph glyph-name="itilde" unicode="&#x129;" horiz-adv-x="291" 
d="M32 0v29c72 5 75 7 75 58v315c0 36 -6 41 -32 45l-38 5v25l157 25l7 -6v-409c0 -51 4 -53 75 -58v-29h-244zM-27 576c20 40 48 98 112 98c24 0 52 -9 79 -19c28 -9 55 -19 76 -19c28 0 40 11 68 46l20 -11c-14 -28 -28 -52 -44 -69c-17 -16 -35 -26 -60 -26
c-22 0 -51 10 -80 19c-29 10 -58 19 -80 19c-33 0 -50 -16 -72 -51z" />
    <glyph glyph-name="Imacron" unicode="&#x12a;" horiz-adv-x="349" 
d="M16 759v59h316v-59h-316zM35 0v29c88 6 90 8 90 64v506c0 56 -2 58 -90 64v29h279v-29c-87 -6 -90 -8 -90 -64v-506c0 -56 3 -58 90 -64v-29h-279z" />
    <glyph glyph-name="Ibreve" unicode="&#x12c;" horiz-adv-x="349" 
d="M24 870h28c2 -19 28 -59 122 -59s120 40 122 59h28c0 -56 -29 -121 -150 -121s-150 65 -150 121zM35 0v29c88 6 90 8 90 64v506c0 56 -2 58 -90 64v29h279v-29c-87 -6 -90 -8 -90 -64v-506c0 -56 3 -58 90 -64v-29h-279z" />
    <glyph glyph-name="Idotaccent" unicode="&#x130;" horiz-adv-x="349" 
d="M116 787c0 28 21 54 58 54c38 0 58 -26 58 -54s-20 -55 -58 -55c-37 0 -58 27 -58 55zM35 0v29c88 6 90 8 90 64v506c0 56 -2 58 -90 64v29h279v-29c-87 -6 -90 -8 -90 -64v-506c0 -56 3 -58 90 -64v-29h-279z" />
    <glyph glyph-name="dotlessi" unicode="&#x131;" horiz-adv-x="291" 
d="M32 0v29c72 5 75 7 75 58v315c0 36 -6 41 -32 45l-38 5v25l157 25l7 -6v-409c0 -51 4 -53 75 -58v-29h-244z" />
    <glyph glyph-name="Jcircumflex" unicode="&#x134;" horiz-adv-x="350" 
d="M31 738l116 114c14 13 25 24 37 24s24 -12 37 -24l116 -114l-13 -21l-107 61c-13 7 -24 14 -33 14c-8 0 -20 -7 -33 -14l-107 -61zM0 -89c35 9 71 26 93 52c24 29 41 77 41 174v462c0 56 -2 58 -90 64v29h279v-29c-87 -6 -90 -8 -90 -64v-456c0 -102 -12 -185 -102 -226
c-39 -18 -87 -29 -126 -31z" />
    <glyph glyph-name="Lacute" unicode="&#x139;" horiz-adv-x="568" 
d="M201 764l145 99c35 24 49 30 65 27c15 -3 34 -32 32 -52c-2 -19 -16 -26 -61 -40l-170 -56zM35 0v29c88 6 90 8 90 64v506c0 56 -2 58 -90 64v29h285v-29c-93 -6 -96 -8 -96 -64v-479c0 -49 4 -66 25 -75c21 -8 57 -10 107 -10c105 0 160 13 180 144h30l-12 -179h-519z
" />
    <glyph glyph-name="lacute" unicode="&#x13a;" horiz-adv-x="279" 
d="M61 802l119 120c30 31 47 41 64 41c15 0 39 -23 39 -43c0 -21 -26 -38 -56 -54l-151 -84zM20 0v29c72 5 75 7 75 58v555c0 38 -6 43 -32 46l-38 4v25l157 25l7 -6v-649c0 -51 4 -53 75 -58v-29h-244z" />
    <glyph glyph-name="Lcaron" unicode="&#x13d;" horiz-adv-x="568" 
d="M371 564c22 31 36 63 36 92c0 41 -46 46 -46 88c0 25 20 46 51 46c41 0 68 -39 68 -89c0 -62 -48 -111 -92 -153zM35 0v29c88 6 90 8 90 64v506c0 56 -2 58 -90 64v29h285v-29c-93 -6 -96 -8 -96 -64v-479c0 -49 4 -66 25 -75c21 -8 57 -10 107 -10c105 0 160 13 180 144
h30l-12 -179h-519z" />
    <glyph glyph-name="lcaron" unicode="&#x13e;" horiz-adv-x="329" 
d="M236 564c22 31 36 63 36 92c0 41 -46 46 -46 88c0 25 20 46 51 46c41 0 68 -39 68 -89c0 -62 -48 -111 -92 -153zM20 0v29c72 5 75 7 75 58v555c0 38 -6 43 -32 46l-38 4v25l157 25l7 -6v-649c0 -51 4 -53 75 -58v-29h-244z" />
    <glyph glyph-name="Lslash" unicode="&#x141;" horiz-adv-x="574" 
d="M36 220v46l95 70v263c0 56 -2 58 -90 64v29h285v-29c-93 -6 -96 -8 -96 -64v-198l128 95v-46l-128 -95v-235c0 -49 4 -66 25 -75c21 -8 57 -10 107 -10c105 0 160 13 180 144h30l-12 -179h-519v29c88 6 90 8 90 64v197z" />
    <glyph glyph-name="lslash" unicode="&#x142;" horiz-adv-x="294" 
d="M14 253v50l87 73v266c0 38 -6 43 -32 46l-38 4v25l157 25l7 -6v-291l98 83v-50l-98 -83v-308c0 -51 4 -53 75 -58v-29h-244v29c72 5 75 7 75 58v239z" />
    <glyph glyph-name="Nacute" unicode="&#x143;" horiz-adv-x="780" 
d="M295 764l145 99c35 24 49 30 65 27c15 -3 34 -32 32 -52c-2 -19 -16 -26 -61 -40l-170 -56zM35 0v29c52 4 76 8 82 50c5 33 7 71 7 124v396c0 56 -2 58 -90 64v29h192c129 -184 259 -368 390 -552l2 -2v351c0 53 -2 91 -7 124c-6 42 -30 45 -95 50v29h237v-29
c-52 -4 -76 -8 -82 -50c-5 -33 -7 -71 -7 -124v-489h-66c-141 201 -283 401 -426 602h-2v-399c0 -53 2 -91 7 -124c6 -42 30 -45 95 -50v-29h-237z" />
    <glyph glyph-name="nacute" unicode="&#x144;" horiz-adv-x="619" 
d="M237 562l119 120c30 31 47 41 64 41c15 0 39 -23 39 -43c0 -21 -26 -38 -56 -54l-151 -84zM32 0v29c72 5 75 7 75 58v315c0 36 -6 41 -32 45l-38 5v25l149 25l14 -76c62 40 108 76 182 76c92 0 147 -58 147 -159v-256c0 -51 4 -53 75 -58v-29h-244v29c72 5 75 7 75 58
v236c0 87 -37 125 -105 125c-53 0 -98 -33 -119 -72c-8 -16 -10 -30 -10 -55v-234c0 -51 4 -53 75 -58v-29h-244z" />
    <glyph glyph-name="Ncommaaccent" unicode="&#x145;" horiz-adv-x="780" 
d="M35 0v29c52 4 76 8 82 50c5 33 7 71 7 124v396c0 56 -2 58 -90 64v29h192c129 -184 259 -368 390 -552l2 -2v351c0 53 -2 91 -7 124c-6 42 -30 45 -95 50v29h237v-29c-52 -4 -76 -8 -82 -50c-5 -33 -7 -71 -7 -124v-489h-66c-141 201 -283 401 -426 602h-2v-399
c0 -53 2 -91 7 -124c6 -42 30 -45 95 -50v-29h-237zM337 -246c29 30 45 52 45 84c0 31 -31 46 -31 75c0 24 18 43 41 43c34 0 57 -30 57 -72c0 -62 -50 -105 -96 -145z" />
    <glyph glyph-name="ncommaaccent" unicode="&#x146;" horiz-adv-x="619" 
d="M32 0v29c72 5 75 7 75 58v315c0 36 -6 41 -32 45l-38 5v25l149 25l14 -76c62 40 108 76 182 76c92 0 147 -58 147 -159v-256c0 -51 4 -53 75 -58v-29h-244v29c72 5 75 7 75 58v236c0 87 -37 125 -105 125c-53 0 -98 -33 -119 -72c-8 -16 -10 -30 -10 -55v-234
c0 -51 4 -53 75 -58v-29h-244zM261 -246c29 30 45 52 45 84c0 31 -31 46 -31 75c0 24 18 43 41 43c34 0 57 -30 57 -72c0 -62 -50 -105 -96 -145z" />
    <glyph glyph-name="Ncaron" unicode="&#x147;" horiz-adv-x="780" 
d="M241 861l13 21l107 -61c13 -7 25 -14 33 -14c9 0 20 7 33 14l107 61l13 -21l-116 -114c-13 -12 -25 -24 -37 -24s-23 11 -37 24zM35 0v29c52 4 76 8 82 50c5 33 7 71 7 124v396c0 56 -2 58 -90 64v29h192c129 -184 259 -368 390 -552l2 -2v351c0 53 -2 91 -7 124
c-6 42 -30 45 -95 50v29h237v-29c-52 -4 -76 -8 -82 -50c-5 -33 -7 -71 -7 -124v-489h-66c-141 201 -283 401 -426 602h-2v-399c0 -53 2 -91 7 -124c6 -42 30 -45 95 -50v-29h-237z" />
    <glyph glyph-name="ncaron" unicode="&#x148;" horiz-adv-x="619" 
d="M165 699l19 21l103 -77c11 -8 23 -15 31 -15c9 0 20 7 31 15l103 77l19 -21l-117 -133c-12 -13 -24 -25 -36 -25s-23 11 -36 25zM32 0v29c72 5 75 7 75 58v315c0 36 -6 41 -32 45l-38 5v25l149 25l14 -76c62 40 108 76 182 76c92 0 147 -58 147 -159v-256
c0 -51 4 -53 75 -58v-29h-244v29c72 5 75 7 75 58v236c0 87 -37 125 -105 125c-53 0 -98 -33 -119 -72c-8 -16 -10 -30 -10 -55v-234c0 -51 4 -53 75 -58v-29h-244z" />
    <glyph glyph-name="Eng" unicode="&#x14a;" horiz-adv-x="761" 
d="M35 0v29c88 6 90 8 90 64v506c0 56 -2 58 -90 64v29h189v-92c51 49 144 107 246 107c132 0 206 -60 206 -234v-433c0 -202 -86 -282 -192 -282c-43 0 -80 6 -102 22c-34 24 -54 63 -54 83c0 33 36 46 58 46c65 0 12 -116 88 -116c89 0 103 95 103 217v493
c0 96 -44 142 -146 142c-47 0 -80 -11 -111 -25c-25 -11 -96 -43 -96 -99v-428c0 -56 2 -58 92 -64v-29h-281z" />
    <glyph glyph-name="eng" unicode="&#x14b;" horiz-adv-x="609" 
d="M32 0v29c72 5 75 7 75 58v315c0 36 -6 41 -32 45l-38 5v25l149 25l14 -76c62 40 108 76 182 76c92 0 147 -58 147 -159v-368c0 -66 -8 -119 -31 -154c-25 -38 -63 -63 -118 -63c-78 0 -122 39 -122 71c0 33 27 49 47 49c15 0 22 -7 27 -17c25 -58 47 -68 68 -68
c14 0 45 10 40 105l-5 102v323c0 87 -37 125 -105 125c-53 0 -98 -33 -119 -72c-8 -16 -10 -30 -10 -55v-234c0 -51 4 -53 75 -58v-29h-244z" />
    <glyph glyph-name="Omacron" unicode="&#x14c;" horiz-adv-x="762" 
d="M223 759v59h316v-59h-316zM48 346c0 112 31 204 85 264c56 63 138 97 248 97s192 -34 248 -97c54 -60 85 -152 85 -264s-31 -204 -85 -264c-56 -63 -138 -97 -248 -97s-192 34 -248 97c-54 60 -85 152 -85 264zM160 346c0 -147 43 -326 221 -326s221 179 221 326
s-43 326 -221 326s-221 -179 -221 -326z" />
    <glyph glyph-name="omacron" unicode="&#x14d;" horiz-adv-x="577" 
d="M145 597v59h288v-59h-288zM49 245c0 162 79 257 240 257s240 -95 240 -257s-79 -257 -240 -257s-240 95 -240 257zM153 245c0 -138 44 -222 136 -222s136 84 136 222s-44 222 -136 222s-136 -84 -136 -222z" />
    <glyph glyph-name="Obreve" unicode="&#x14e;" horiz-adv-x="762" 
d="M231 870h28c2 -19 28 -59 122 -59s120 40 122 59h28c0 -56 -29 -121 -150 -121s-150 65 -150 121zM48 346c0 112 31 204 85 264c56 63 138 97 248 97s192 -34 248 -97c54 -60 85 -152 85 -264s-31 -204 -85 -264c-56 -63 -138 -97 -248 -97s-192 34 -248 97
c-54 60 -85 152 -85 264zM160 346c0 -147 43 -326 221 -326s221 179 221 326s-43 326 -221 326s-221 -179 -221 -326z" />
    <glyph glyph-name="obreve" unicode="&#x14f;" horiz-adv-x="577" 
d="M152 704h24c2 -21 20 -71 113 -71s111 50 113 71h24c0 -63 -12 -136 -137 -136s-137 73 -137 136zM49 245c0 162 79 257 240 257s240 -95 240 -257s-79 -257 -240 -257s-240 95 -240 257zM153 245c0 -138 44 -222 136 -222s136 84 136 222s-44 222 -136 222
s-136 -84 -136 -222z" />
    <glyph glyph-name="Ohungarumlaut" unicode="&#x150;" horiz-adv-x="762" 
d="M431 766l70 89c15 19 32 39 53 39c20 0 44 -27 44 -48c0 -16 -11 -25 -47 -46l-101 -56zM261 766l70 89c15 19 32 39 53 39c20 0 44 -27 44 -48c0 -16 -11 -25 -47 -46l-101 -56zM48 346c0 112 31 204 85 264c56 63 138 97 248 97s192 -34 248 -97
c54 -60 85 -152 85 -264s-31 -204 -85 -264c-56 -63 -138 -97 -248 -97s-192 34 -248 97c-54 60 -85 152 -85 264zM160 346c0 -147 43 -326 221 -326s221 179 221 326s-43 326 -221 326s-221 -179 -221 -326z" />
    <glyph glyph-name="ohungarumlaut" unicode="&#x151;" horiz-adv-x="577" 
d="M187 559l46 144c9 27 18 47 41 47c27 0 50 -17 50 -38c0 -16 -12 -37 -31 -62l-82 -104zM329 559l46 144c9 27 18 47 41 47c27 0 50 -17 50 -38c0 -16 -12 -37 -31 -62l-82 -104zM49 245c0 162 79 257 240 257s240 -95 240 -257s-79 -257 -240 -257s-240 95 -240 257z
M153 245c0 -138 44 -222 136 -222s136 84 136 222s-44 222 -136 222s-136 -84 -136 -222z" />
    <glyph glyph-name="OE" unicode="&#x152;" horiz-adv-x="1025" 
d="M48 341c0 146 63 244 140 292c87 54 184 59 265 59h506v-164h-30c-14 104 -37 129 -151 129h-98c-32 0 -37 -8 -37 -36v-242h140c85 0 89 24 98 86h30v-211h-30c-9 63 -13 87 -98 87h-140v-216c0 -44 6 -67 27 -77s50 -13 102 -13c124 0 171 16 194 138h30l-12 -173h-536
c-81 0 -178 4 -260 56c-79 50 -140 144 -140 285zM160 346c0 -145 57 -311 268 -311c84 0 116 10 116 53v517c0 43 -42 52 -114 52c-213 0 -270 -157 -270 -311z" />
    <glyph glyph-name="oe" unicode="&#x153;" horiz-adv-x="882" 
d="M49 245c0 162 79 257 239 257c86 0 150 -31 186 -80c33 42 89 80 173 80c183 0 202 -142 202 -201c0 -33 -19 -38 -40 -38h-288c-2 -104 23 -224 147 -224c79 0 117 48 145 106l30 -16c-27 -79 -84 -140 -195 -141c-89 -1 -145 29 -178 78c-39 -50 -102 -78 -182 -78
c-160 0 -239 95 -239 257zM153 245c0 -138 44 -222 135 -222c93 0 136 84 136 222s-43 222 -136 222c-91 0 -135 -84 -135 -222zM522 301h189c28 0 34 13 34 32c0 39 -11 134 -104 134c-104 0 -119 -125 -119 -166z" />
    <glyph glyph-name="Racute" unicode="&#x154;" horiz-adv-x="644" 
d="M191 764l145 99c35 24 49 30 65 27c15 -3 34 -32 32 -52c-2 -19 -16 -26 -61 -40l-170 -56zM35 0v29c88 6 90 8 90 64v506c0 56 -2 58 -90 64v29h292c175 0 235 -75 235 -171c0 -95 -69 -158 -163 -176v-2c106 -26 124 -93 136 -182c9 -68 25 -124 103 -132v-29h-81
c-59 0 -97 22 -112 86c-11 46 -22 125 -29 153c-17 68 -63 87 -123 87h-69v-233c0 -43 0 -44 3 -48c7 -12 30 -12 72 -16v-29h-264zM224 361h79c97 0 152 46 152 151c0 118 -84 145 -158 145c-66 0 -73 -8 -73 -50v-246z" />
    <glyph glyph-name="racute" unicode="&#x155;" horiz-adv-x="389" 
d="M156 562l119 120c30 31 47 41 64 41c15 0 39 -23 39 -43c0 -21 -26 -38 -56 -54l-151 -84zM32 0v29c70 5 75 7 75 58v315c0 36 -6 41 -32 45l-38 5v25l152 25l12 -80c66 58 96 80 132 80c39 0 53 -27 53 -49c0 -31 -22 -56 -46 -56c-5 0 -13 1 -20 5
c-29 16 -46 22 -62 22c-23 0 -57 -26 -57 -103v-234c0 -51 6 -53 95 -58v-29h-264z" />
    <glyph glyph-name="Rcaron" unicode="&#x158;" horiz-adv-x="644" 
d="M137 861l13 21l107 -61c13 -7 25 -14 33 -14c9 0 20 7 33 14l107 61l13 -21l-116 -114c-13 -12 -25 -24 -37 -24s-23 11 -37 24zM35 0v29c88 6 90 8 90 64v506c0 56 -2 58 -90 64v29h292c175 0 235 -75 235 -171c0 -95 -69 -158 -163 -176v-2c106 -26 124 -93 136 -182
c9 -68 25 -124 103 -132v-29h-81c-59 0 -97 22 -112 86c-11 46 -22 125 -29 153c-17 68 -63 87 -123 87h-69v-233c0 -43 0 -44 3 -48c7 -12 30 -12 72 -16v-29h-264zM224 361h79c97 0 152 46 152 151c0 118 -84 145 -158 145c-66 0 -73 -8 -73 -50v-246z" />
    <glyph glyph-name="rcaron" unicode="&#x159;" horiz-adv-x="389" 
d="M84 699l19 21l103 -77c11 -8 23 -15 31 -15c9 0 20 7 31 15l103 77l19 -21l-117 -133c-12 -13 -24 -25 -36 -25s-23 11 -36 25zM32 0v29c70 5 75 7 75 58v315c0 36 -6 41 -32 45l-38 5v25l152 25l12 -80c66 58 96 80 132 80c39 0 53 -27 53 -49c0 -31 -22 -56 -46 -56
c-5 0 -13 1 -20 5c-29 16 -46 22 -62 22c-23 0 -57 -26 -57 -103v-234c0 -51 6 -53 95 -58v-29h-264z" />
    <glyph glyph-name="Sacute" unicode="&#x15a;" horiz-adv-x="541" 
d="M192 764l145 99c35 24 49 30 65 27c15 -3 34 -32 32 -52c-2 -19 -16 -26 -61 -40l-170 -56zM50 205h32c25 -112 87 -185 181 -185c89 0 144 52 144 138c0 89 -95 135 -139 152l-18 7c-105 37 -189 92 -189 197c0 132 108 193 230 193c68 0 136 -17 170 -44v-141h-31
c-16 101 -64 150 -150 150c-84 0 -128 -54 -128 -127c0 -60 56 -103 123 -128l32 -12c117 -43 197 -99 197 -217c0 -102 -70 -203 -247 -203c-70 0 -153 19 -197 60z" />
    <glyph glyph-name="sacute" unicode="&#x15b;" horiz-adv-x="436" 
d="M156 562l119 120c30 31 47 41 64 41c15 0 39 -23 39 -43c0 -21 -26 -38 -56 -54l-151 -84zM47 167h29c20 -85 65 -144 146 -144c53 0 93 32 93 83c0 68 -63 91 -108 105c-83 25 -151 62 -151 145c0 95 74 146 182 146c45 0 96 -10 129 -34v-117h-29
c-7 61 -41 116 -112 116c-50 0 -90 -29 -90 -81c0 -56 66 -77 107 -90c103 -32 157 -72 157 -160c0 -85 -68 -148 -187 -148c-59 0 -120 16 -156 48z" />
    <glyph glyph-name="Scircumflex" unicode="&#x15c;" horiz-adv-x="541" 
d="M138 738l116 114c14 13 25 24 37 24s24 -12 37 -24l116 -114l-13 -21l-107 61c-13 7 -24 14 -33 14c-8 0 -20 -7 -33 -14l-107 -61zM50 205h32c25 -112 87 -185 181 -185c89 0 144 52 144 138c0 89 -95 135 -139 152l-18 7c-105 37 -189 92 -189 197
c0 132 108 193 230 193c68 0 136 -17 170 -44v-141h-31c-16 101 -64 150 -150 150c-84 0 -128 -54 -128 -127c0 -60 56 -103 123 -128l32 -12c117 -43 197 -99 197 -217c0 -102 -70 -203 -247 -203c-70 0 -153 19 -197 60z" />
    <glyph glyph-name="scircumflex" unicode="&#x15d;" horiz-adv-x="436" 
d="M84 562l117 133c13 14 24 25 36 25s24 -12 36 -25l117 -133l-19 -21l-103 77c-11 8 -22 15 -31 15c-8 0 -20 -7 -31 -15l-103 -77zM47 167h29c20 -85 65 -144 146 -144c53 0 93 32 93 83c0 68 -63 91 -108 105c-83 25 -151 62 -151 145c0 95 74 146 182 146
c45 0 96 -10 129 -34v-117h-29c-7 61 -41 116 -112 116c-50 0 -90 -29 -90 -81c0 -56 66 -77 107 -90c103 -32 157 -72 157 -160c0 -85 -68 -148 -187 -148c-59 0 -120 16 -156 48z" />
    <glyph glyph-name="Scedilla" unicode="&#x15e;" horiz-adv-x="541" 
d="M168 -201c49 0 88 15 88 56c0 49 -44 53 -62 54l-4 7l46 84h41l-32 -55c37 -5 89 -23 89 -87c0 -77 -91 -88 -122 -88c-18 0 -30 1 -44 3v26zM50 205h32c25 -112 87 -185 181 -185c89 0 144 52 144 138c0 89 -95 135 -139 152l-18 7c-105 37 -189 92 -189 197
c0 132 108 193 230 193c68 0 136 -17 170 -44v-141h-31c-16 101 -64 150 -150 150c-84 0 -128 -54 -128 -127c0 -60 56 -103 123 -128l32 -12c117 -43 197 -99 197 -217c0 -102 -70 -203 -247 -203c-70 0 -153 19 -197 60z" />
    <glyph glyph-name="scedilla" unicode="&#x15f;" horiz-adv-x="436" 
d="M124 -201c49 0 88 15 88 56c0 49 -44 53 -62 54l-4 7l46 84h41l-32 -55c37 -5 89 -23 89 -87c0 -77 -91 -88 -122 -88c-18 0 -30 1 -44 3v26zM47 167h29c20 -85 65 -144 146 -144c53 0 93 32 93 83c0 68 -63 91 -108 105c-83 25 -151 62 -151 145c0 95 74 146 182 146
c45 0 96 -10 129 -34v-117h-29c-7 61 -41 116 -112 116c-50 0 -90 -29 -90 -81c0 -56 66 -77 107 -90c103 -32 157 -72 157 -160c0 -85 -68 -148 -187 -148c-59 0 -120 16 -156 48z" />
    <glyph glyph-name="Scaron" unicode="&#x160;" horiz-adv-x="541" 
d="M118 861l13 21l107 -61c13 -7 25 -14 33 -14c9 0 20 7 33 14l107 61l13 -21l-116 -114c-13 -12 -25 -24 -37 -24s-23 11 -37 24zM50 205h32c25 -112 87 -185 181 -185c89 0 144 52 144 138c0 89 -95 135 -139 152l-18 7c-105 37 -189 92 -189 197c0 132 108 193 230 193
c68 0 136 -17 170 -44v-141h-31c-16 101 -64 150 -150 150c-84 0 -128 -54 -128 -127c0 -60 56 -103 123 -128l32 -12c117 -43 197 -99 197 -217c0 -102 -70 -203 -247 -203c-70 0 -153 19 -197 60z" />
    <glyph glyph-name="scaron" unicode="&#x161;" horiz-adv-x="436" 
d="M75 699l19 21l103 -77c11 -8 23 -15 31 -15c9 0 20 7 31 15l103 77l19 -21l-117 -133c-12 -13 -24 -25 -36 -25s-23 11 -36 25zM47 167h29c20 -85 65 -144 146 -144c53 0 93 32 93 83c0 68 -63 91 -108 105c-83 25 -151 62 -151 145c0 95 74 146 182 146
c45 0 96 -10 129 -34v-117h-29c-7 61 -41 116 -112 116c-50 0 -90 -29 -90 -81c0 -56 66 -77 107 -90c103 -32 157 -72 157 -160c0 -85 -68 -148 -187 -148c-59 0 -120 16 -156 48z" />
    <glyph glyph-name="Tcommaaccent" unicode="&#x162;" horiz-adv-x="621" 
d="M221 -201c49 0 88 15 88 56c0 49 -44 53 -62 54l-4 7l46 84h41l-32 -55c37 -5 89 -23 89 -87c0 -77 -91 -88 -122 -88c-18 0 -30 1 -44 3v26zM22 526v166h577v-166h-30c-12 109 -33 131 -150 131h-59v-564c0 -56 3 -58 110 -64v-29h-319v29c107 6 110 8 110 64v564h-59
c-117 0 -138 -22 -150 -131h-30z" />
    <glyph glyph-name="tcommaaccent" unicode="&#x163;" horiz-adv-x="344" 
d="M110 -201c49 0 88 15 88 56c0 49 -44 53 -62 54l-4 7l46 84h41l-32 -55c37 -5 89 -23 89 -87c0 -77 -91 -88 -122 -88c-18 0 -30 1 -44 3v26zM31 450v40h76l61 126h29v-126h129v-40h-129v-310c0 -76 32 -100 66 -100c25 0 47 3 71 13l8 -21c-29 -18 -77 -44 -128 -44
c-35 0 -111 12 -111 114v348h-72z" />
    <glyph glyph-name="Tcaron" unicode="&#x164;" horiz-adv-x="621" 
d="M157 861l13 21l107 -61c13 -7 25 -14 33 -14c9 0 20 7 33 14l107 61l13 -21l-116 -114c-13 -12 -25 -24 -37 -24s-23 11 -37 24zM22 526v166h577v-166h-30c-12 109 -33 131 -150 131h-59v-564c0 -56 3 -58 110 -64v-29h-319v29c107 6 110 8 110 64v564h-59
c-117 0 -138 -22 -150 -131h-30z" />
    <glyph glyph-name="tcaron" unicode="&#x165;" horiz-adv-x="350" 
d="M31 450v40h76l61 126h29v-126h129v-40h-129v-310c0 -76 32 -100 66 -100c25 0 47 3 71 13l8 -21c-29 -18 -77 -44 -128 -44c-35 0 -111 12 -111 114v348h-72zM247 564c22 31 36 63 36 92c0 41 -46 46 -46 88c0 25 20 46 51 46c41 0 68 -39 68 -89
c0 -62 -48 -111 -92 -153z" />
    <glyph glyph-name="Utilde" unicode="&#x168;" horiz-adv-x="791" 
d="M222 736c20 40 48 98 112 98c24 0 52 -9 79 -19c28 -9 55 -19 76 -19c28 0 40 11 68 46l20 -11c-29 -57 -55 -95 -104 -95c-22 0 -51 10 -80 19c-29 10 -58 19 -80 19c-33 0 -50 -16 -72 -51zM29 663v29h279v-29c-87 -6 -90 -8 -90 -64v-324c0 -95 15 -155 45 -195
c31 -40 75 -60 132 -60c58 0 102 20 133 60c30 40 45 100 45 195v324c0 56 -2 58 -90 64v29h279v-29c-87 -6 -90 -8 -90 -64v-344c0 -60 -10 -113 -27 -148c-46 -99 -151 -122 -250 -122c-98 0 -203 24 -249 122c-17 34 -27 87 -27 146v346c0 56 -2 58 -90 64z" />
    <glyph glyph-name="utilde" unicode="&#x169;" horiz-adv-x="606" 
d="M26 452v25l157 25l7 -6v-340c0 -78 43 -114 101 -114c52 0 100 29 123 75c5 10 8 32 8 60v225c0 36 -6 41 -32 45l-38 5v25l157 25l7 -6v-409c0 -51 6 -53 75 -58v-29h-160l-10 60c-29 -14 -98 -72 -183 -72c-74 0 -142 35 -142 150v264c0 36 -6 41 -32 45zM123 576
c20 40 48 98 112 98c24 0 52 -9 79 -19c28 -9 55 -19 76 -19c28 0 40 11 68 46l20 -11c-14 -28 -28 -52 -44 -69c-17 -16 -35 -26 -60 -26c-22 0 -51 10 -80 19c-29 10 -58 19 -80 19c-33 0 -50 -16 -72 -51z" />
    <glyph glyph-name="Umacron" unicode="&#x16a;" horiz-adv-x="791" 
d="M238 759v59h316v-59h-316zM29 663v29h279v-29c-87 -6 -90 -8 -90 -64v-324c0 -95 15 -155 45 -195c31 -40 75 -60 132 -60c58 0 102 20 133 60c30 40 45 100 45 195v324c0 56 -2 58 -90 64v29h279v-29c-87 -6 -90 -8 -90 -64v-344c0 -60 -10 -113 -27 -148
c-46 -99 -151 -122 -250 -122c-98 0 -203 24 -249 122c-17 34 -27 87 -27 146v346c0 56 -2 58 -90 64z" />
    <glyph glyph-name="umacron" unicode="&#x16b;" horiz-adv-x="606" 
d="M162 597v59h288v-59h-288zM26 452v25l157 25l7 -6v-340c0 -78 43 -114 101 -114c52 0 100 29 123 75c5 10 8 32 8 60v225c0 36 -6 41 -32 45l-38 5v25l157 25l7 -6v-409c0 -51 6 -53 75 -58v-29h-160l-10 60c-29 -14 -98 -72 -183 -72c-74 0 -142 35 -142 150v264
c0 36 -6 41 -32 45z" />
    <glyph glyph-name="Ubreve" unicode="&#x16c;" horiz-adv-x="791" 
d="M246 870h28c2 -19 28 -59 122 -59s120 40 122 59h28c0 -56 -29 -121 -150 -121s-150 65 -150 121zM29 663v29h279v-29c-87 -6 -90 -8 -90 -64v-324c0 -95 15 -155 45 -195c31 -40 75 -60 132 -60c58 0 102 20 133 60c30 40 45 100 45 195v324c0 56 -2 58 -90 64v29h279
v-29c-87 -6 -90 -8 -90 -64v-344c0 -60 -10 -113 -27 -148c-46 -99 -151 -122 -250 -122c-98 0 -203 24 -249 122c-17 34 -27 87 -27 146v346c0 56 -2 58 -90 64z" />
    <glyph glyph-name="ubreve" unicode="&#x16d;" horiz-adv-x="606" 
d="M169 704h24c2 -21 20 -71 113 -71s111 50 113 71h24c0 -63 -12 -136 -137 -136s-137 73 -137 136zM26 452v25l157 25l7 -6v-340c0 -78 43 -114 101 -114c52 0 100 29 123 75c5 10 8 32 8 60v225c0 36 -6 41 -32 45l-38 5v25l157 25l7 -6v-409c0 -51 6 -53 75 -58v-29
h-160l-10 60c-29 -14 -98 -72 -183 -72c-74 0 -142 35 -142 150v264c0 36 -6 41 -32 45z" />
    <glyph glyph-name="Uring" unicode="&#x16e;" horiz-adv-x="791" 
d="M288 816c0 75 54 101 108 101s108 -26 108 -101s-54 -101 -108 -101s-108 26 -108 101zM346 816c0 -52 22 -68 50 -68s50 16 50 68s-22 68 -50 68s-50 -16 -50 -68zM29 663v29h279v-29c-87 -6 -90 -8 -90 -64v-324c0 -95 15 -155 45 -195c31 -40 75 -60 132 -60
c58 0 102 20 133 60c30 40 45 100 45 195v324c0 56 -2 58 -90 64v29h279v-29c-87 -6 -90 -8 -90 -64v-344c0 -60 -10 -113 -27 -148c-46 -99 -151 -122 -250 -122c-98 0 -203 24 -249 122c-17 34 -27 87 -27 146v346c0 56 -2 58 -90 64z" />
    <glyph glyph-name="uring" unicode="&#x16f;" horiz-adv-x="606" 
d="M198 651c0 75 54 101 108 101s108 -26 108 -101s-54 -101 -108 -101s-108 26 -108 101zM256 651c0 -52 22 -68 50 -68s50 16 50 68s-22 68 -50 68s-50 -16 -50 -68zM26 452v25l157 25l7 -6v-340c0 -78 43 -114 101 -114c52 0 100 29 123 75c5 10 8 32 8 60v225
c0 36 -6 41 -32 45l-38 5v25l157 25l7 -6v-409c0 -51 6 -53 75 -58v-29h-160l-10 60c-29 -14 -98 -72 -183 -72c-74 0 -142 35 -142 150v264c0 36 -6 41 -32 45z" />
    <glyph glyph-name="Uhungarumlaut" unicode="&#x170;" horiz-adv-x="791" 
d="M446 766l70 89c15 19 32 39 53 39c20 0 44 -27 44 -48c0 -16 -11 -25 -47 -46l-101 -56zM276 766l70 89c15 19 32 39 53 39c20 0 44 -27 44 -48c0 -16 -11 -25 -47 -46l-101 -56zM29 663v29h279v-29c-87 -6 -90 -8 -90 -64v-324c0 -95 15 -155 45 -195
c31 -40 75 -60 132 -60c58 0 102 20 133 60c30 40 45 100 45 195v324c0 56 -2 58 -90 64v29h279v-29c-87 -6 -90 -8 -90 -64v-344c0 -60 -10 -113 -27 -148c-46 -99 -151 -122 -250 -122c-98 0 -203 24 -249 122c-17 34 -27 87 -27 146v346c0 56 -2 58 -90 64z" />
    <glyph glyph-name="uhungarumlaut" unicode="&#x171;" horiz-adv-x="606" 
d="M203 559l46 144c9 27 18 47 41 47c27 0 50 -17 50 -38c0 -16 -12 -37 -31 -62l-82 -104zM345 559l46 144c9 27 18 47 41 47c27 0 50 -17 50 -38c0 -16 -12 -37 -31 -62l-82 -104zM26 452v25l157 25l7 -6v-340c0 -78 43 -114 101 -114c52 0 100 29 123 75c5 10 8 32 8 60
v225c0 36 -6 41 -32 45l-38 5v25l157 25l7 -6v-409c0 -51 6 -53 75 -58v-29h-160l-10 60c-29 -14 -98 -72 -183 -72c-74 0 -142 35 -142 150v264c0 36 -6 41 -32 45z" />
    <glyph glyph-name="Wcircumflex" unicode="&#x174;" horiz-adv-x="940" 
d="M324 738l116 114c14 13 25 24 37 24s24 -12 37 -24l116 -114l-13 -21l-107 61c-13 7 -24 14 -33 14c-8 0 -20 -7 -33 -14l-107 -61zM-13 663v29h251v-29l-50 -5c-24 -2 -29 -8 -21 -41c40 -157 84 -325 136 -497h2l153 554h75c55 -184 112 -369 169 -554h3l74 286
c25 94 47 176 53 213c4 21 2 35 -22 38l-62 6v29h229v-29c-62 -4 -73 -9 -93 -67c-14 -38 -37 -126 -69 -239l-100 -357h-76c-51 179 -106 363 -167 554h-2l-157 -554h-77l-85 319c-27 100 -56 200 -79 279c-17 59 -26 62 -85 65z" />
    <glyph glyph-name="wcircumflex" unicode="&#x175;" horiz-adv-x="768" 
d="M237 562l117 133c13 14 24 25 36 25s24 -12 36 -25l117 -133l-19 -21l-103 77c-11 8 -22 15 -31 15c-8 0 -20 -7 -31 -15l-103 -77zM-2 461v29h211v-29l-35 -3c-18 -2 -24 -11 -18 -30c32 -108 63 -224 99 -339h2l116 389h76c41 -130 82 -259 125 -389h2
c31 113 77 275 90 334c4 18 3 31 -14 33l-57 5v29h197v-29c-50 -3 -61 -7 -78 -58c-25 -78 -84 -256 -126 -403h-76c-40 127 -81 254 -123 381h-3l-118 -381h-76c-42 151 -86 286 -128 418c-12 38 -25 41 -66 43z" />
    <glyph glyph-name="Ycircumflex" unicode="&#x176;" horiz-adv-x="588" 
d="M149 738l116 114c14 13 25 24 37 24s24 -12 37 -24l116 -114l-13 -21l-107 61c-13 7 -24 14 -33 14c-8 0 -20 -7 -33 -14l-107 -61zM-12 663v29h259v-29l-59 -6c-15 -2 -19 -12 -11 -30c44 -96 96 -197 154 -302h2c53 104 121 241 146 301c8 19 6 30 -12 32l-54 5v29h219
v-29c-67 -3 -73 -11 -107 -66c-31 -50 -106 -190 -157 -292c-10 -20 -13 -35 -13 -59v-153c0 -55 3 -58 106 -64v-29h-311v29c103 6 106 9 106 64v149c0 20 -4 37 -15 58c-49 99 -108 210 -164 313c-22 42 -36 48 -89 50z" />
    <glyph glyph-name="ycircumflex" unicode="&#x177;" horiz-adv-x="506" 
d="M109 562l117 133c13 14 24 25 36 25s24 -12 36 -25l117 -133l-19 -21l-103 77c-11 8 -22 15 -31 15c-8 0 -20 -7 -31 -15l-103 -77zM-5 461v29h229v-29l-43 -4c-23 -2 -21 -13 -15 -31c37 -105 77 -214 123 -335h2c44 120 96 271 111 331c5 20 3 32 -14 34l-52 5v29h192
v-29c-50 -3 -56 -11 -74 -51c-31 -70 -123 -314 -185 -492c-51 -148 -102 -160 -142 -160c-42 0 -70 28 -70 52c0 29 25 56 44 56c12 0 20 -5 30 -14c18 -18 27 -21 37 -21c11 0 29 9 44 42c15 32 24 62 24 85c0 17 -2 32 -8 49c-24 69 -107 282 -157 402
c-18 44 -28 50 -76 52z" />
    <glyph glyph-name="Ydieresis" unicode="&#x178;" horiz-adv-x="588" 
d="M150 787c0 28 21 54 58 54c38 0 58 -26 58 -54s-20 -55 -58 -55c-37 0 -58 27 -58 55zM358 787c0 28 21 54 58 54c38 0 58 -26 58 -54s-20 -55 -58 -55c-37 0 -58 27 -58 55zM-12 663v29h259v-29l-59 -6c-15 -2 -19 -12 -11 -30c44 -96 96 -197 154 -302h2
c53 104 121 241 146 301c8 19 6 30 -12 32l-54 5v29h219v-29c-67 -3 -73 -11 -107 -66c-31 -50 -106 -190 -157 -292c-10 -20 -13 -35 -13 -59v-153c0 -55 3 -58 106 -64v-29h-311v29c103 6 106 9 106 64v149c0 20 -4 37 -15 58c-49 99 -108 210 -164 313
c-22 42 -36 48 -89 50z" />
    <glyph glyph-name="Zacute" unicode="&#x179;" horiz-adv-x="610" 
d="M203 764l145 99c35 24 49 30 65 27c15 -3 34 -32 32 -52c-2 -19 -16 -26 -61 -40l-170 -56zM9 13c151 215 301 430 447 644h-179c-137 0 -162 -22 -174 -137h-32v172h511l6 -13c-151 -215 -301 -429 -447 -644h202c154 0 201 18 219 143h32l-10 -178h-570z" />
    <glyph glyph-name="zacute" unicode="&#x17a;" horiz-adv-x="480" 
d="M159 562l119 120c30 31 47 41 64 41c15 0 39 -23 39 -43c0 -21 -26 -38 -56 -54l-151 -84zM19 15c107 147 212 293 315 440h-100c-108 0 -129 -21 -142 -113h-31v148h384l8 -14c-106 -147 -211 -294 -312 -441h129c111 0 145 24 161 118h31l-10 -153h-425z" />
    <glyph glyph-name="Zdotaccent" unicode="&#x17b;" horiz-adv-x="610" 
d="M244 787c0 28 21 54 58 54c38 0 58 -26 58 -54s-20 -55 -58 -55c-37 0 -58 27 -58 55zM9 13c151 215 301 430 447 644h-179c-137 0 -162 -22 -174 -137h-32v172h511l6 -13c-151 -215 -301 -429 -447 -644h202c154 0 201 18 219 143h32l-10 -178h-570z" />
    <glyph glyph-name="zdotaccent" unicode="&#x17c;" horiz-adv-x="480" 
d="M180 627c0 29 21 56 60 56s60 -27 60 -56s-21 -57 -60 -57s-60 28 -60 57zM19 15c107 147 212 293 315 440h-100c-108 0 -129 -21 -142 -113h-31v148h384l8 -14c-106 -147 -211 -294 -312 -441h129c111 0 145 24 161 118h31l-10 -153h-425z" />
    <glyph glyph-name="Zcaron" unicode="&#x17d;" horiz-adv-x="610" 
d="M152 861l13 21l107 -61c13 -7 25 -14 33 -14c9 0 20 7 33 14l107 61l13 -21l-116 -114c-13 -12 -25 -24 -37 -24s-23 11 -37 24zM9 13c151 215 301 430 447 644h-179c-137 0 -162 -22 -174 -137h-32v172h511l6 -13c-151 -215 -301 -429 -447 -644h202
c154 0 201 18 219 143h32l-10 -178h-570z" />
    <glyph glyph-name="zcaron" unicode="&#x17e;" horiz-adv-x="480" 
d="M87 699l19 21l103 -77c11 -8 23 -15 31 -15c9 0 20 7 31 15l103 77l19 -21l-117 -133c-12 -13 -24 -25 -36 -25s-23 11 -36 25zM19 15c107 147 212 293 315 440h-100c-108 0 -129 -21 -142 -113h-31v148h384l8 -14c-106 -147 -211 -294 -312 -441h129
c111 0 145 24 161 118h31l-10 -153h-425z" />
    <glyph glyph-name="longs" unicode="&#x17f;" horiz-adv-x="302" 
d="M25 0v29c69 5 72 7 72 58v438c0 66 10 119 33 154c25 38 72 63 125 63c78 0 120 -41 120 -74c0 -30 -29 -47 -49 -47c-15 0 -22 7 -27 17c-25 58 -45 69 -66 69c-14 0 -51 -10 -47 -105l5 -112v-403c0 -51 4 -53 75 -58v-29h-241z" />
    <glyph glyph-name="uni0186" unicode="&#x186;" horiz-adv-x="684" 
d="M39 182h30c28 -117 100 -162 204 -162c186 0 251 164 251 328c0 121 -43 324 -249 324c-122 0 -171 -65 -196 -179h-30v166c54 26 140 48 220 48c237 0 367 -116 367 -356c0 -234 -140 -366 -373 -366c-91 0 -167 18 -212 39z" />
    <glyph glyph-name="uni0189" unicode="&#x189;" horiz-adv-x="785" 
d="M20 341v38h111v220c0 56 -2 58 -90 64v29h332c120 -1 209 -26 274 -87c61 -59 90 -146 90 -247c0 -150 -56 -243 -130 -294s-165 -64 -254 -64h-312v29c88 6 90 8 90 64v248h-111zM230 125c0 -79 17 -90 104 -90c168 0 291 67 291 319c0 169 -64 299 -279 303
c-107 0 -116 -5 -116 -57v-221h138v-38h-138v-216z" />
    <glyph glyph-name="uni018E" unicode="&#x18e;" horiz-adv-x="606" 
d="M29 173h30c23 -122 68 -138 194 -138c47 0 83 2 104 10c21 9 25 26 25 75v221h-140c-85 0 -89 -24 -98 -87h-30v211h30c9 -62 13 -86 98 -86h140v242c0 32 -5 36 -37 36h-98c-114 0 -137 -25 -151 -129h-30v164h505v-29c-88 -6 -90 -8 -90 -64v-506c0 -56 2 -58 90 -64
v-29h-530z" />
    <glyph glyph-name="uni018F" unicode="&#x18f;" horiz-adv-x="710" 
d="M45 306c0 22 13 38 35 38h470c0 154 -45 328 -216 328c-72 0 -183 -43 -211 -186h-32v170c58 23 162 51 243 51c264 0 328 -200 328 -361s-69 -361 -309 -361c-237 0 -308 186 -308 321zM157 287c0 -134 62 -267 196 -267c132 0 196 152 196 286h-371
c-13 0 -21 -2 -21 -19z" />
    <glyph glyph-name="uni0190" unicode="&#x190;" horiz-adv-x="598" 
d="M51 184c0 98 79 153 181 183v2c-94 30 -152 85 -152 170c0 119 136 168 266 168c78 0 152 -20 197 -41v-170h-32c-22 149 -76 177 -172 177c-75 0 -154 -55 -154 -140c0 -98 105 -146 170 -146h67v-38h-72c-90 0 -192 -69 -192 -172c0 -91 74 -157 192 -157
c132 0 157 69 183 169h30l-12 -160c-48 -26 -115 -44 -195 -44c-242 0 -305 89 -305 199z" />
    <glyph glyph-name="uni0191" unicode="&#x191;" horiz-adv-x="580" 
d="M-118 -137c0 33 36 46 58 46c65 0 24 -116 90 -116c83 0 95 95 95 217v589c0 56 -2 58 -90 64v29h508v-160h-30c-14 102 -37 125 -153 125h-99c-33 0 -37 -3 -37 -36v-256h140c85 0 89 24 98 88h30v-214h-30c-9 64 -13 88 -98 88h-140v-287c0 -202 -88 -282 -189 -282
c-43 0 -77 6 -99 22c-34 24 -54 63 -54 83z" />
    <glyph glyph-name="florin" unicode="&#x192;" horiz-adv-x="530" 
d="M-2 -75c1 26 23 43 40 43c11 0 19 -7 23 -16c19 -38 34 -52 50 -52c21 0 37 16 46 88l49 378h-102v38h109l7 43c10 62 25 116 51 160c31 52 79 84 142 84c67 0 109 -35 109 -72c-1 -22 -22 -40 -45 -40c-11 0 -20 6 -24 15c-20 50 -35 62 -55 62c-31 0 -52 -31 -70 -140
l-18 -112h132v-38h-138l-28 -182c-14 -93 -31 -170 -50 -217c-28 -69 -78 -102 -128 -102c-52 0 -100 24 -100 60z" />
    <glyph glyph-name="uni0194" unicode="&#x194;" horiz-adv-x="589" 
d="M241 80c0 -31 19 -59 49 -59c27 0 45 16 45 60c0 22 -8 50 -41 117h-2c-27 -41 -51 -78 -51 -118zM-8 663v29h257v-29l-57 -6c-15 -2 -19 -12 -11 -30c44 -96 81 -175 143 -307h2c53 104 124 246 149 306c8 19 6 30 -12 32l-52 5v29h215v-29c-64 -3 -71 -11 -105 -66
c-35 -56 -109 -201 -169 -324c47 -86 69 -127 69 -186c0 -83 -70 -101 -123 -101c-61 0 -106 30 -106 101c0 38 24 79 72 161c-62 132 -117 243 -183 365c-22 42 -36 48 -89 50z" />
    <glyph glyph-name="uni0196" unicode="&#x196;" horiz-adv-x="420" 
d="M29 663v29h189v-525c0 -96 26 -128 77 -128c23 0 59 10 100 39l16 -23c-60 -55 -98 -70 -157 -70c-66 0 -135 37 -135 181v433c0 56 -2 58 -90 64z" />
    <glyph glyph-name="uni0197" unicode="&#x197;" horiz-adv-x="361" 
d="M36 341v38h95v220c0 56 -2 58 -90 64v29h279v-29c-87 -6 -90 -8 -90 -64v-220h95v-38h-95v-248c0 -56 3 -58 90 -64v-29h-279v29c88 6 90 8 90 64v248h-95z" />
    <glyph glyph-name="uni019C" unicode="&#x19c;" horiz-adv-x="1097" 
d="M29 663v29h279v-29c-88 -6 -90 -8 -90 -64v-351c0 -144 26 -201 106 -201c32 0 86 4 116 24c47 31 56 51 56 147v381c0 56 -2 58 -90 64v29h279v-29c-88 -6 -90 -8 -90 -64v-411c0 -91 39 -141 94 -141c45 0 84 9 112 28c26 18 72 53 72 152v372c0 56 -2 58 -90 64v29
h279v-29c-88 -6 -90 -8 -90 -64v-506c0 -56 2 -58 90 -64v-29h-189v91c-45 -58 -110 -106 -203 -106c-68 0 -126 20 -156 95c-62 -63 -130 -95 -216 -95c-124 0 -179 74 -179 248v366c0 56 -2 58 -90 64z" />
    <glyph glyph-name="uni019F" unicode="&#x19f;" horiz-adv-x="762" 
d="M48 346c0 222 114 361 333 361s333 -139 333 -361s-114 -361 -333 -361s-333 139 -333 361zM160 341c1 -146 45 -321 221 -321s220 175 221 321h-442zM161 379h440c-6 139 -55 293 -220 293s-214 -154 -220 -293z" />
    <glyph glyph-name="Ohorn" unicode="&#x1a0;" horiz-adv-x="762" 
d="M48 346c0 161 67 361 333 361c92 0 165 -24 219 -69c25 24 33 40 33 49c0 30 -53 42 -53 71c0 8 9 42 46 42c35 0 58 -31 58 -71c0 -54 -36 -90 -62 -112c29 -31 92 -108 92 -271c0 -161 -67 -361 -333 -361s-333 200 -333 361zM160 346c0 -147 43 -326 221 -326
s221 179 221 326s-43 326 -221 326s-221 -179 -221 -326z" />
    <glyph glyph-name="ohorn" unicode="&#x1a1;" horiz-adv-x="577" 
d="M49 245c0 162 79 257 239 257c71 0 126 -19 165 -53c25 24 33 40 33 49c0 30 -53 42 -53 71c0 8 9 42 46 42c35 0 58 -31 58 -71c0 -54 -36 -91 -63 -113c36 -44 54 -105 54 -182c0 -162 -78 -257 -240 -257c-160 0 -239 95 -239 257zM153 245c0 -138 44 -222 135 -222
c93 0 136 84 136 222s-43 222 -136 222c-91 0 -135 -84 -135 -222z" />
    <glyph glyph-name="uni01A7" unicode="&#x1a7;" horiz-adv-x="541" 
d="M36 188c0 118 80 174 197 217l32 12c67 25 123 68 123 128c0 73 -44 127 -128 127c-86 0 -134 -49 -150 -150h-31v141c34 27 102 44 170 44c122 0 230 -61 230 -193c0 -105 -84 -160 -189 -197l-18 -7c-44 -17 -139 -63 -139 -152c0 -86 55 -138 144 -138
c94 0 156 73 181 185h32l-10 -160c-44 -41 -127 -60 -197 -60c-177 0 -247 101 -247 203z" />
    <glyph glyph-name="uni01A8" unicode="&#x1a8;" horiz-adv-x="436" 
d="M36 136c0 88 54 128 157 160c41 13 107 34 107 90c0 52 -40 81 -90 81c-71 0 -105 -55 -112 -116h-29v117c33 24 84 34 129 34c108 0 182 -51 182 -146c0 -83 -68 -120 -151 -145c-45 -14 -108 -37 -108 -105c0 -51 40 -83 93 -83c81 0 126 59 146 144h29l-10 -131
c-36 -32 -97 -48 -156 -48c-119 0 -187 63 -187 148z" />
    <glyph glyph-name="uni01A9" unicode="&#x1a9;" horiz-adv-x="579" 
d="M19 13l229 331l-226 336l5 12h496v-170h-30c-14 104 -33 135 -151 135h-188v-2l179 -265l-216 -312v-2h232c117 0 148 10 168 115h30l-14 -191h-506z" />
    <glyph glyph-name="Uhorn" unicode="&#x1af;" horiz-adv-x="791" 
d="M29 663v29h279v-29c-87 -6 -90 -8 -90 -64v-324c0 -95 15 -155 45 -195c31 -40 75 -60 132 -60c58 0 102 20 133 60c30 40 45 100 45 195v324c0 56 -2 58 -90 64v29h189v-67c26 21 49 45 49 62c0 30 -53 42 -53 71c0 8 9 42 46 42c35 0 58 -31 58 -71
c0 -72 -66 -119 -100 -141v-333c0 -152 -55 -270 -277 -270c-228 0 -274 125 -276 268v346c0 56 -2 58 -90 64z" />
    <glyph glyph-name="uhorn" unicode="&#x1b0;" horiz-adv-x="606" 
d="M621 540c0 -58 -37 -100 -105 -144v-309c0 -51 6 -53 75 -58v-29h-160l-10 60c-29 -14 -98 -72 -183 -72c-74 0 -142 35 -142 150v264c0 36 -6 41 -32 45l-38 5v25l157 25l7 -6v-340c0 -78 43 -114 101 -114c52 0 100 29 123 75c5 10 8 32 8 60v225c0 36 -6 41 -32 45
l-38 5v25l157 25l7 -6v-100l1 37c38 31 53 52 53 65c0 30 -53 42 -53 71c0 8 11 42 46 42s58 -31 58 -71z" />
    <glyph glyph-name="uni01B2" unicode="&#x1b2;" horiz-adv-x="700" 
d="M29 663v29h279v-29c-87 -6 -90 -8 -90 -64v-329c0 -155 52 -250 166 -250c152 0 200 156 200 341c0 117 -35 173 -104 274c-8 11 -16 20 -16 32c0 24 30 40 62 40c53 0 125 -137 125 -289c0 -184 -28 -433 -277 -433c-140 0 -255 61 -255 256v358c0 56 -2 58 -90 64z" />
    <glyph glyph-name="uni01B7" unicode="&#x1b7;" horiz-adv-x="591" 
d="M45 139c0 43 19 67 52 67c45 0 52 -28 52 -51s-13 -50 -13 -71c0 -38 64 -64 136 -64c88 0 162 66 162 168c0 100 -50 158 -139 158c-29 0 -54 -4 -74 -15l-24 32l4 15l217 238h-142c-116 0 -161 -15 -172 -117h-31v193h423l11 -17l-5 -19c-6 -23 -26 -45 -49 -70
l-182 -197l2 -2c6 3 33 6 54 6c121 0 214 -75 214 -198c0 -111 -64 -210 -274 -210c-125 0 -222 53 -222 154z" />
    <glyph glyph-name="uni01CD" unicode="&#x1cd;" horiz-adv-x="635" 
d="M161 861l13 21l107 -61c13 -7 25 -14 33 -14c9 0 20 7 33 14l107 61l13 -21l-116 -114c-13 -12 -25 -24 -37 -24s-23 11 -37 24zM-29 0v29c63 3 72 15 93 69c35 91 77 211 108 298l105 296h74l212 -603c18 -52 29 -55 87 -60v-29h-256v29l45 4c32 3 37 14 27 43l-67 191
h-224c-23 -71 -44 -133 -61 -193c-8 -27 -5 -37 25 -40l52 -5v-29h-220zM188 305h199l-99 286h-3c-30 -88 -65 -186 -97 -286z" />
    <glyph glyph-name="uni01CE" unicode="&#x1ce;" horiz-adv-x="523" 
d="M116 699l19 21l103 -77c11 -8 23 -15 31 -15c9 0 20 7 31 15l103 77l19 -21l-117 -133c-12 -13 -24 -25 -36 -25s-23 11 -36 25zM49 130c0 47 21 97 93 119c79 25 176 50 201 76v42c0 80 -46 100 -85 100c-40 0 -81 -24 -103 -98c-5 -17 -11 -28 -32 -28
c-19 0 -56 15 -56 47c0 55 89 114 202 114c151 0 164 -75 164 -133v-242c0 -63 17 -82 35 -86c15 -4 37 -2 51 1l6 -24c-38 -19 -81 -30 -118 -30c-35 0 -51 23 -65 60c-32 -21 -91 -60 -149 -60c-94 0 -144 67 -144 142zM150 144c0 -59 30 -103 92 -103
c39 0 101 21 101 102v141c-22 -14 -75 -33 -115 -48c-56 -21 -78 -45 -78 -92z" />
    <glyph glyph-name="uni01CF" unicode="&#x1cf;" horiz-adv-x="349" 
d="M21 861l13 21l107 -61c13 -7 25 -14 33 -14c9 0 20 7 33 14l107 61l13 -21l-116 -114c-13 -12 -25 -24 -37 -24s-23 11 -37 24zM35 0v29c88 6 90 8 90 64v506c0 56 -2 58 -90 64v29h279v-29c-87 -6 -90 -8 -90 -64v-506c0 -56 3 -58 90 -64v-29h-279z" />
    <glyph glyph-name="uni01D1" unicode="&#x1d1;" horiz-adv-x="762" 
d="M228 861l13 21l107 -61c13 -7 25 -14 33 -14c9 0 20 7 33 14l107 61l13 -21l-116 -114c-13 -12 -25 -24 -37 -24s-23 11 -37 24zM48 346c0 112 31 204 85 264c56 63 138 97 248 97s192 -34 248 -97c54 -60 85 -152 85 -264s-31 -204 -85 -264c-56 -63 -138 -97 -248 -97
s-192 34 -248 97c-54 60 -85 152 -85 264zM160 346c0 -147 43 -326 221 -326s221 179 221 326s-43 326 -221 326s-221 -179 -221 -326z" />
    <glyph glyph-name="uni01D2" unicode="&#x1d2;" horiz-adv-x="577" 
d="M136 699l19 21l103 -77c11 -8 23 -15 31 -15c9 0 20 7 31 15l103 77l19 -21l-117 -133c-12 -13 -24 -25 -36 -25s-23 11 -36 25zM49 245c0 162 79 257 240 257s240 -95 240 -257s-79 -257 -240 -257s-240 95 -240 257zM153 245c0 -138 44 -222 136 -222s136 84 136 222
s-44 222 -136 222s-136 -84 -136 -222z" />
    <glyph glyph-name="uni01D3" unicode="&#x1d3;" horiz-adv-x="791" 
d="M243 861l13 21l107 -61c13 -7 25 -14 33 -14c9 0 20 7 33 14l107 61l13 -21l-116 -114c-13 -12 -25 -24 -37 -24s-23 11 -37 24zM29 663v29h279v-29c-87 -6 -90 -8 -90 -64v-324c0 -95 15 -155 45 -195c31 -40 75 -60 132 -60c58 0 102 20 133 60c30 40 45 100 45 195
v324c0 56 -2 58 -90 64v29h279v-29c-87 -6 -90 -8 -90 -64v-344c0 -60 -10 -113 -27 -148c-46 -99 -151 -122 -250 -122c-98 0 -203 24 -249 122c-17 34 -27 87 -27 146v346c0 56 -2 58 -90 64z" />
    <glyph glyph-name="uni01D4" unicode="&#x1d4;" horiz-adv-x="606" 
d="M153 699l19 21l103 -77c11 -8 23 -15 31 -15c9 0 20 7 31 15l103 77l19 -21l-117 -133c-12 -13 -24 -25 -36 -25s-23 11 -36 25zM26 452v25l157 25l7 -6v-340c0 -78 43 -114 101 -114c52 0 100 29 123 75c5 10 8 32 8 60v225c0 36 -6 41 -32 45l-38 5v25l157 25l7 -6
v-409c0 -51 6 -53 75 -58v-29h-160l-10 60c-29 -14 -98 -72 -183 -72c-74 0 -142 35 -142 150v264c0 36 -6 41 -32 45z" />
    <glyph glyph-name="uni01DD" unicode="&#x1dd;" horiz-adv-x="514" 
d="M33 189c0 33 19 38 40 38h288c2 104 -23 224 -147 224c-79 0 -117 -48 -145 -106l-30 16c27 79 84 141 195 141c163 0 231 -95 231 -253c0 -150 -74 -261 -230 -261c-183 0 -202 142 -202 201zM137 157c0 -39 11 -134 104 -134c104 0 119 125 119 166h-189
c-28 0 -34 -13 -34 -32z" />
    <glyph glyph-name="uni01E2" unicode="&#x1e2;" horiz-adv-x="876" 
d="M312 759v59h316v-59h-316zM-63 0v29c54 5 68 9 91 48c55 93 100 184 175 321l123 225c13 24 8 33 -12 34l-75 6v29h571v-164h-30c-14 104 -37 129 -151 129h-98c-32 0 -37 -6 -37 -36v-242h140c85 0 89 24 98 86h30v-211h-30c-9 63 -13 87 -98 87h-140v-216
c0 -44 6 -67 27 -77s50 -13 102 -13c124 0 171 16 194 138h30l-12 -173h-528v29c87 6 90 8 90 66v246h-172c-90 -173 -128 -251 -138 -277c-7 -17 -2 -26 15 -28l66 -7v-29h-231zM244 379h153v273h-6c-62 -114 -125 -233 -147 -273z" />
    <glyph glyph-name="uni01E3" unicode="&#x1e3;" horiz-adv-x="797" 
d="M268 597v59h288v-59h-288zM49 130c0 47 21 97 93 119c79 25 176 50 201 76v44c0 78 -46 98 -84 98c-42 0 -83 -24 -105 -98c-5 -17 -11 -28 -30 -28c-21 0 -58 15 -58 47c0 55 89 114 204 114c74 0 117 -25 139 -62c38 41 87 62 153 62c183 0 202 -142 202 -201
c0 -33 -19 -38 -40 -38h-288c-2 -104 23 -224 147 -224c79 0 117 48 145 106l30 -16c-27 -79 -84 -140 -195 -141c-95 -1 -153 32 -185 87l-37 -27c-29 -21 -84 -58 -146 -60c-96 0 -146 67 -146 142zM150 144c0 -59 30 -103 92 -103c39 0 101 23 101 102v141
c-22 -14 -75 -33 -115 -48c-56 -21 -78 -45 -78 -92zM437 301h189c28 0 34 13 34 32c0 39 -11 134 -104 134c-103 0 -119 -125 -119 -166z" />
    <glyph glyph-name="Gcaron" unicode="&#x1e6;" horiz-adv-x="734" 
d="M276 861l13 21l107 -61c13 -7 25 -14 33 -14c9 0 20 7 33 14l107 61l13 -21l-116 -114c-13 -12 -25 -24 -37 -24s-23 11 -37 24zM48 333c0 104 24 184 75 251c57 74 157 123 307 123c80 0 166 -17 215 -41v-157h-30c-21 113 -85 163 -195 163c-197 0 -260 -165 -260 -323
c0 -125 43 -329 273 -329c34 0 62 5 88 15c21 8 34 19 34 54v135c0 49 -5 55 -106 62v29h276v-29c-66 -7 -71 -12 -71 -62v-197c-63 -20 -160 -42 -230 -42c-88 0 -176 11 -252 64c-73 52 -124 155 -124 284z" />
    <glyph glyph-name="gcaron" unicode="&#x1e7;" horiz-adv-x="520" 
d="M101 699l19 21l103 -77c11 -8 23 -15 31 -15c9 0 20 7 31 15l103 77l19 -21l-117 -133c-12 -13 -24 -25 -36 -25s-23 11 -36 25zM42 -96c0 72 72 96 115 110v2c-48 5 -88 43 -88 78c0 39 38 68 92 89v2c-46 12 -108 55 -108 149c0 74 54 168 207 168
c46 0 101 -12 129 -31l128 41l8 -9l-20 -63l-79 -12c17 -17 30 -52 30 -94c0 -121 -107 -163 -202 -163c-11 0 -32 1 -51 3c-13 -4 -51 -20 -51 -49c0 -19 11 -43 83 -43h80c107 0 193 -38 193 -146c0 -62 -33 -109 -79 -137c-48 -29 -111 -41 -171 -41
c-116 0 -216 45 -216 146zM137 -91c0 -72 59 -116 144 -116c71 0 143 38 143 118c0 75 -65 96 -153 96c-48 0 -81 -6 -103 -23c-21 -16 -31 -41 -31 -75zM155 334c0 -84 47 -128 103 -128c58 0 102 44 102 128c0 97 -51 133 -100 133c-53 0 -105 -34 -105 -133z" />
    <glyph glyph-name="uni01E8" unicode="&#x1e8;" horiz-adv-x="658" 
d="M200 861l13 21l107 -61c13 -7 25 -14 33 -14c9 0 20 7 33 14l107 61l13 -21l-116 -114c-13 -12 -25 -24 -37 -24s-23 11 -37 24zM35 0v29c88 6 90 8 90 64v506c0 56 -2 58 -90 64v29h279v-29c-87 -6 -90 -8 -90 -64v-236c72 74 185 192 243 257c22 26 20 38 -1 40l-38 3
v29h243v-29c-85 -5 -105 -16 -157 -62c-61 -53 -138 -129 -204 -202c68 -102 152 -203 241 -298c43 -45 75 -73 116 -82v-24l-63 3c-62 2 -115 20 -173 86c-78 88 -147 182 -204 269l-1 4h-2v-264c0 -56 3 -58 90 -64v-29h-279z" />
    <glyph glyph-name="uni01E9" unicode="&#x1e9;" horiz-adv-x="524" 
d="M126 939l19 21l103 -77c11 -8 23 -15 31 -15c9 0 20 7 31 15l103 77l19 -21l-117 -133c-12 -13 -24 -25 -36 -25s-23 11 -36 25zM20 0v29c72 5 75 7 75 58v555c0 38 -6 43 -32 46l-38 4v25l157 25l7 -6v-468h2c23 34 122 158 151 193c20 24 29 29 63 29h103v-28
c-58 -6 -83 -18 -117 -43s-66 -54 -114 -109c-10 -11 -8 -16 -3 -23c38 -54 116 -149 178 -210c31 -31 56 -46 86 -54v-28l-75 3c-32 2 -71 14 -108 51c-52 53 -123 140 -164 205h-2v-167c0 -51 4 -53 75 -58v-29h-244z" />
    <glyph glyph-name="uni01EE" unicode="&#x1ee;" horiz-adv-x="591" 
d="M140 861l13 21l107 -61c13 -7 25 -14 33 -14c9 0 20 7 33 14l107 61l13 -21l-116 -114c-13 -12 -25 -24 -37 -24s-23 11 -37 24zM45 139c0 43 19 67 52 67c45 0 52 -28 52 -51s-13 -50 -13 -71c0 -38 64 -64 136 -64c88 0 162 66 162 168c0 100 -50 158 -139 158
c-29 0 -54 -4 -74 -15l-24 32l4 15l217 238h-142c-116 0 -161 -15 -172 -117h-31v193h423l11 -17l-5 -19c-6 -23 -26 -45 -49 -70l-182 -197l2 -2c6 3 33 6 54 6c121 0 214 -75 214 -198c0 -111 -64 -210 -274 -210c-125 0 -222 53 -222 154z" />
    <glyph glyph-name="uni01EF" unicode="&#x1ef;" horiz-adv-x="514" 
d="M111 699l19 21l103 -77c11 -8 23 -15 31 -15c9 0 20 7 31 15l103 77l19 -21l-117 -133c-12 -13 -24 -25 -36 -25s-23 11 -36 25zM55 -118c0 40 36 50 55 50c28 0 43 -22 43 -53c0 -38 27 -85 96 -85c93 0 119 94 119 170c0 80 -36 163 -115 163c-18 0 -55 -3 -75 -14
l-21 31l6 15l212 255h-151c-108 0 -123 -10 -132 -102h-31v178h384l8 -14l-5 -19c-3 -17 -24 -48 -46 -75l-180 -212l2 -2c6 3 43 6 54 6c118 0 194 -72 194 -210c0 -130 -86 -205 -221 -205c-75 0 -139 13 -171 58c-12 17 -25 38 -25 65z" />
    <glyph glyph-name="uni01F4" unicode="&#x1f4;" horiz-adv-x="734" 
d="M330 764l145 99c35 24 49 30 65 27c15 -3 34 -32 32 -52c-2 -19 -16 -26 -61 -40l-170 -56zM48 333c0 104 24 184 75 251c57 74 157 123 307 123c80 0 166 -17 215 -41v-157h-30c-21 113 -85 163 -195 163c-197 0 -260 -165 -260 -323c0 -125 43 -329 273 -329
c34 0 62 5 88 15c21 8 34 19 34 54v135c0 49 -5 55 -106 62v29h276v-29c-66 -7 -71 -12 -71 -62v-197c-63 -20 -160 -42 -230 -42c-88 0 -176 11 -252 64c-73 52 -124 155 -124 284z" />
    <glyph glyph-name="uni01F5" unicode="&#x1f5;" horiz-adv-x="520" 
d="M173 562l119 120c30 31 47 41 64 41c15 0 39 -23 39 -43c0 -21 -26 -38 -56 -54l-151 -84zM42 -96c0 72 72 96 115 110v2c-48 5 -88 43 -88 78c0 39 38 68 92 89v2c-46 12 -108 55 -108 149c0 74 54 168 207 168c46 0 101 -12 129 -31l128 41l8 -9l-20 -63l-79 -12
c17 -17 30 -52 30 -94c0 -121 -107 -163 -202 -163c-11 0 -32 1 -51 3c-13 -4 -51 -20 -51 -49c0 -19 11 -43 83 -43h80c107 0 193 -38 193 -146c0 -62 -33 -109 -79 -137c-48 -29 -111 -41 -171 -41c-116 0 -216 45 -216 146zM137 -91c0 -72 59 -116 144 -116
c71 0 143 38 143 118c0 75 -65 96 -153 96c-48 0 -81 -6 -103 -23c-21 -16 -31 -41 -31 -75zM155 334c0 -84 47 -128 103 -128c58 0 102 44 102 128c0 97 -51 133 -100 133c-53 0 -105 -34 -105 -133z" />
    <glyph glyph-name="uni01F8" unicode="&#x1f8;" horiz-adv-x="780" 
d="M226 838c-2 20 17 49 32 52c16 3 30 -3 65 -27l145 -99l-11 -22l-170 56c-45 14 -59 21 -61 40zM35 0v29c52 4 76 8 82 50c5 33 7 71 7 124v396c0 56 -2 58 -90 64v29h192c129 -184 259 -368 390 -552l2 -2v351c0 53 -2 91 -7 124c-6 42 -30 45 -95 50v29h237v-29
c-52 -4 -76 -8 -82 -50c-5 -33 -7 -71 -7 -124v-489h-66c-141 201 -283 401 -426 602h-2v-399c0 -53 2 -91 7 -124c6 -42 30 -45 95 -50v-29h-237z" />
    <glyph glyph-name="uni01F9" unicode="&#x1f9;" horiz-adv-x="619" 
d="M157 680c0 20 24 43 39 43c17 0 34 -10 64 -41l119 -120l-15 -20l-151 84c-30 16 -56 33 -56 54zM32 0v29c72 5 75 7 75 58v315c0 36 -6 41 -32 45l-38 5v25l149 25l14 -76c62 40 108 76 182 76c92 0 147 -58 147 -159v-256c0 -51 4 -53 75 -58v-29h-244v29
c72 5 75 7 75 58v236c0 87 -37 125 -105 125c-53 0 -98 -33 -119 -72c-8 -16 -10 -30 -10 -55v-234c0 -51 4 -53 75 -58v-29h-244z" />
    <glyph glyph-name="AEacute" unicode="&#x1fc;" horiz-adv-x="876" 
d="M371 764l145 99c35 24 49 30 65 27c15 -3 34 -32 32 -52c-2 -19 -16 -26 -61 -40l-170 -56zM-63 0v29c54 5 68 9 91 48c55 93 100 184 175 321l123 225c13 24 8 33 -12 34l-75 6v29h571v-164h-30c-14 104 -37 129 -151 129h-98c-32 0 -37 -6 -37 -36v-242h140
c85 0 89 24 98 86h30v-211h-30c-9 63 -13 87 -98 87h-140v-216c0 -44 6 -67 27 -77s50 -13 102 -13c124 0 171 16 194 138h30l-12 -173h-528v29c87 6 90 8 90 66v246h-172c-90 -173 -128 -251 -138 -277c-7 -17 -2 -26 15 -28l66 -7v-29h-231zM244 379h153v273h-6
c-62 -114 -125 -233 -147 -273z" />
    <glyph glyph-name="aeacute" unicode="&#x1fd;" horiz-adv-x="797" 
d="M331 562l119 120c30 31 47 41 64 41c15 0 39 -23 39 -43c0 -21 -26 -38 -56 -54l-151 -84zM49 130c0 47 21 97 93 119c79 25 176 50 201 76v44c0 78 -46 98 -84 98c-42 0 -83 -24 -105 -98c-5 -17 -11 -28 -30 -28c-21 0 -58 15 -58 47c0 55 89 114 204 114
c74 0 117 -25 139 -62c38 41 87 62 153 62c183 0 202 -142 202 -201c0 -33 -19 -38 -40 -38h-288c-2 -104 23 -224 147 -224c79 0 117 48 145 106l30 -16c-27 -79 -84 -140 -195 -141c-95 -1 -153 32 -185 87l-37 -27c-29 -21 -84 -58 -146 -60c-96 0 -146 67 -146 142z
M150 144c0 -59 30 -103 92 -103c39 0 101 23 101 102v141c-22 -14 -75 -33 -115 -48c-56 -21 -78 -45 -78 -92zM437 301h189c28 0 34 13 34 32c0 39 -11 134 -104 134c-103 0 -119 -125 -119 -166z" />
    <glyph glyph-name="Oslashacute" unicode="&#x1fe;" horiz-adv-x="762" 
d="M370 821l145 99c35 24 49 30 65 27c15 -3 34 -32 32 -52c-2 -19 -16 -26 -61 -40l-170 -56zM48 346c0 113 31 204 85 264c56 63 138 97 248 97c71 0 130 -14 178 -42l46 74l34 -21l-47 -74c14 -10 26 -22 37 -34c55 -60 85 -151 85 -264c0 -112 -30 -204 -85 -264
c-56 -63 -137 -97 -248 -97c-71 0 -130 14 -179 43l-51 -81l-32 24l49 78c-12 9 -24 21 -35 33c-54 60 -85 152 -85 264zM160 346c1 -78 13 -164 51 -229l314 495c-33 37 -79 60 -144 60c-178 0 -219 -179 -221 -326zM236 82c33 -38 80 -62 145 -62c178 0 219 179 221 326
c-1 79 -13 167 -52 231z" />
    <glyph glyph-name="oslashacute" unicode="&#x1ff;" horiz-adv-x="577" 
d="M274 612l118 120c30 31 48 41 64 41s40 -23 40 -43c0 -21 -26 -38 -56 -54l-152 -84zM49 245c0 162 79 257 239 257c46 0 86 -8 119 -23l33 53l32 -21l-32 -51c59 -42 88 -116 88 -215c0 -162 -78 -257 -240 -257c-50 0 -92 9 -125 28l-36 -57l-31 23l34 55
c-55 43 -81 114 -81 208zM148 245c0 -58 8 -107 24 -141l205 327c-22 24 -51 36 -89 36c-94 0 -142 -84 -140 -222zM194 66c24 -29 55 -43 94 -43c98 0 141 84 141 222c0 64 -9 116 -28 152z" />
    <glyph glyph-name="uni0200" unicode="&#x200;" horiz-adv-x="635" 
d="M96 846c0 21 24 48 44 48c21 0 38 -20 53 -39l70 -89l-19 -22l-101 56c-36 21 -47 30 -47 46zM266 846c0 21 24 48 44 48c21 0 38 -20 53 -39l70 -89l-19 -22l-101 56c-36 21 -47 30 -47 46zM-29 0v29c63 3 72 15 93 69c35 91 77 211 108 298l105 296h74l212 -603
c18 -52 29 -55 87 -60v-29h-256v29l45 4c32 3 37 14 27 43l-67 191h-224c-23 -71 -44 -133 -61 -193c-8 -27 -5 -37 25 -40l52 -5v-29h-220zM188 305h199l-99 286h-3c-30 -88 -65 -186 -97 -286z" />
    <glyph glyph-name="uni0201" unicode="&#x201;" horiz-adv-x="523" 
d="M92 712c0 21 23 38 50 38c23 0 32 -20 41 -47l46 -144l-24 -13l-82 104c-19 25 -31 46 -31 62zM234 712c0 21 23 38 50 38c23 0 32 -20 41 -47l46 -144l-24 -13l-82 104c-19 25 -31 46 -31 62zM49 130c0 47 21 97 93 119c79 25 176 50 201 76v42c0 80 -46 100 -85 100
c-40 0 -81 -24 -103 -98c-5 -17 -11 -28 -32 -28c-19 0 -56 15 -56 47c0 55 89 114 202 114c151 0 164 -75 164 -133v-242c0 -63 17 -82 35 -86c15 -4 37 -2 51 1l6 -24c-38 -19 -81 -30 -118 -30c-35 0 -51 23 -65 60c-32 -21 -91 -60 -149 -60c-94 0 -144 67 -144 142z
M150 144c0 -59 30 -103 92 -103c39 0 101 21 101 102v141c-22 -14 -75 -33 -115 -48c-56 -21 -78 -45 -78 -92z" />
    <glyph glyph-name="uni0202" unicode="&#x202;" horiz-adv-x="635" 
d="M164 749c0 56 29 121 150 121s150 -65 150 -121h-28c-2 19 -28 59 -122 59s-120 -40 -122 -59h-28zM-29 0v29c63 3 72 15 93 69c35 91 77 211 108 298l105 296h74l212 -603c18 -52 29 -55 87 -60v-29h-256v29l45 4c32 3 37 14 27 43l-67 191h-224
c-23 -71 -44 -133 -61 -193c-8 -27 -5 -37 25 -40l52 -5v-29h-220zM188 305h199l-99 286h-3c-30 -88 -65 -186 -97 -286z" />
    <glyph glyph-name="uni0203" unicode="&#x203;" horiz-adv-x="523" 
d="M406 568h-24c-2 21 -20 71 -113 71s-111 -50 -113 -71h-24c0 63 12 136 137 136s137 -73 137 -136zM49 130c0 47 21 97 93 119c79 25 176 50 201 76v42c0 80 -46 100 -85 100c-40 0 -81 -24 -103 -98c-5 -17 -11 -28 -32 -28c-19 0 -56 15 -56 47c0 55 89 114 202 114
c151 0 164 -75 164 -133v-242c0 -63 17 -82 35 -86c15 -4 37 -2 51 1l6 -24c-38 -19 -81 -30 -118 -30c-35 0 -51 23 -65 60c-32 -21 -91 -60 -149 -60c-94 0 -144 67 -144 142zM150 144c0 -59 30 -103 92 -103c39 0 101 21 101 102v141c-22 -14 -75 -33 -115 -48
c-56 -21 -78 -45 -78 -92z" />
    <glyph glyph-name="uni0204" unicode="&#x204;" horiz-adv-x="606" 
d="M88 846c0 21 24 48 44 48c21 0 38 -20 53 -39l70 -89l-19 -22l-101 56c-36 21 -47 30 -47 46zM258 846c0 21 24 48 44 48c21 0 38 -20 53 -39l70 -89l-19 -22l-101 56c-36 21 -47 30 -47 46zM35 0v29c88 6 90 8 90 64v506c0 56 -2 58 -90 64v29h505v-164h-30
c-14 104 -37 129 -151 129h-98c-32 0 -37 -4 -37 -36v-242h140c85 0 89 24 98 86h30v-211h-30c-9 63 -13 87 -98 87h-140v-221c0 -49 4 -66 25 -75c21 -8 57 -10 104 -10c126 0 171 16 194 138h30l-12 -173h-530z" />
    <glyph glyph-name="uni0205" unicode="&#x205;" horiz-adv-x="514" 
d="M101 712c0 21 23 38 50 38c23 0 32 -20 41 -47l46 -144l-24 -13l-82 104c-19 25 -31 46 -31 62zM243 712c0 21 23 38 50 38c23 0 32 -20 41 -47l46 -144l-24 -13l-82 104c-19 25 -31 46 -31 62zM49 241c0 150 74 261 230 261c183 0 202 -142 202 -201
c0 -33 -19 -38 -40 -38h-288c-2 -104 23 -224 147 -224c79 0 117 48 145 106l30 -16c-27 -79 -84 -141 -195 -141c-163 0 -231 95 -231 253zM154 301h189c28 0 34 13 34 32c0 39 -11 134 -104 134c-104 0 -119 -125 -119 -166z" />
    <glyph glyph-name="uni0206" unicode="&#x206;" horiz-adv-x="606" 
d="M156 749c0 56 29 121 150 121s150 -65 150 -121h-28c-2 19 -28 59 -122 59s-120 -40 -122 -59h-28zM35 0v29c88 6 90 8 90 64v506c0 56 -2 58 -90 64v29h505v-164h-30c-14 104 -37 129 -151 129h-98c-32 0 -37 -4 -37 -36v-242h140c85 0 89 24 98 86h30v-211h-30
c-9 63 -13 87 -98 87h-140v-221c0 -49 4 -66 25 -75c21 -8 57 -10 104 -10c126 0 171 16 194 138h30l-12 -173h-530z" />
    <glyph glyph-name="uni0207" unicode="&#x207;" horiz-adv-x="514" 
d="M415 568h-24c-2 21 -20 71 -113 71s-111 -50 -113 -71h-24c0 63 12 136 137 136s137 -73 137 -136zM49 241c0 150 74 261 230 261c183 0 202 -142 202 -201c0 -33 -19 -38 -40 -38h-288c-2 -104 23 -224 147 -224c79 0 117 48 145 106l30 -16c-27 -79 -84 -141 -195 -141
c-163 0 -231 95 -231 253zM154 301h189c28 0 34 13 34 32c0 39 -11 134 -104 134c-104 0 -119 -125 -119 -166z" />
    <glyph glyph-name="uni0208" unicode="&#x208;" horiz-adv-x="349" 
d="M-44 846c0 21 24 48 44 48c21 0 38 -20 53 -39l70 -89l-19 -22l-101 56c-36 21 -47 30 -47 46zM126 846c0 21 24 48 44 48c21 0 38 -20 53 -39l70 -89l-19 -22l-101 56c-36 21 -47 30 -47 46zM35 0v29c88 6 90 8 90 64v506c0 56 -2 58 -90 64v29h279v-29
c-87 -6 -90 -8 -90 -64v-506c0 -56 3 -58 90 -64v-29h-279z" />
    <glyph glyph-name="uni0209" unicode="&#x209;" horiz-adv-x="291" 
d="M-23 712c0 21 23 38 50 38c23 0 32 -20 41 -47l46 -144l-24 -13l-82 104c-19 25 -31 46 -31 62zM119 712c0 21 23 38 50 38c23 0 32 -20 41 -47l46 -144l-24 -13l-82 104c-19 25 -31 46 -31 62zM32 0v29c72 5 75 7 75 58v315c0 36 -6 41 -32 45l-38 5v25l157 25l7 -6
v-409c0 -51 4 -53 75 -58v-29h-244z" />
    <glyph glyph-name="uni020A" unicode="&#x20a;" horiz-adv-x="349" 
d="M24 749c0 56 29 121 150 121s150 -65 150 -121h-28c-2 19 -28 59 -122 59s-120 -40 -122 -59h-28zM35 0v29c88 6 90 8 90 64v506c0 56 -2 58 -90 64v29h279v-29c-87 -6 -90 -8 -90 -64v-506c0 -56 3 -58 90 -64v-29h-279z" />
    <glyph glyph-name="uni020B" unicode="&#x20b;" horiz-adv-x="291" 
d="M291 568h-24c-2 21 -20 71 -113 71s-111 -50 -113 -71h-24c0 63 12 136 137 136s137 -73 137 -136zM32 0v29c72 5 75 7 75 58v315c0 36 -6 41 -32 45l-38 5v25l157 25l7 -6v-409c0 -51 4 -53 75 -58v-29h-244z" />
    <glyph glyph-name="uni020C" unicode="&#x20c;" horiz-adv-x="762" 
d="M163 846c0 21 24 48 44 48c21 0 38 -20 53 -39l70 -89l-19 -22l-101 56c-36 21 -47 30 -47 46zM333 846c0 21 24 48 44 48c21 0 38 -20 53 -39l70 -89l-19 -22l-101 56c-36 21 -47 30 -47 46zM48 346c0 112 31 204 85 264c56 63 138 97 248 97s192 -34 248 -97
c54 -60 85 -152 85 -264s-31 -204 -85 -264c-56 -63 -138 -97 -248 -97s-192 34 -248 97c-54 60 -85 152 -85 264zM160 346c0 -147 43 -326 221 -326s221 179 221 326s-43 326 -221 326s-221 -179 -221 -326z" />
    <glyph glyph-name="uni020D" unicode="&#x20d;" horiz-adv-x="577" 
d="M112 712c0 21 23 38 50 38c23 0 32 -20 41 -47l46 -144l-24 -13l-82 104c-19 25 -31 46 -31 62zM254 712c0 21 23 38 50 38c23 0 32 -20 41 -47l46 -144l-24 -13l-82 104c-19 25 -31 46 -31 62zM49 245c0 162 79 257 240 257s240 -95 240 -257s-79 -257 -240 -257
s-240 95 -240 257zM153 245c0 -138 44 -222 136 -222s136 84 136 222s-44 222 -136 222s-136 -84 -136 -222z" />
    <glyph glyph-name="uni020E" unicode="&#x20e;" horiz-adv-x="762" 
d="M231 749c0 56 29 121 150 121s150 -65 150 -121h-28c-2 19 -28 59 -122 59s-120 -40 -122 -59h-28zM48 346c0 112 31 204 85 264c56 63 138 97 248 97s192 -34 248 -97c54 -60 85 -152 85 -264s-31 -204 -85 -264c-56 -63 -138 -97 -248 -97s-192 34 -248 97
c-54 60 -85 152 -85 264zM160 346c0 -147 43 -326 221 -326s221 179 221 326s-43 326 -221 326s-221 -179 -221 -326z" />
    <glyph glyph-name="uni020F" unicode="&#x20f;" horiz-adv-x="577" 
d="M426 568h-24c-2 21 -20 71 -113 71s-111 -50 -113 -71h-24c0 63 12 136 137 136s137 -73 137 -136zM49 245c0 162 79 257 240 257s240 -95 240 -257s-79 -257 -240 -257s-240 95 -240 257zM153 245c0 -138 44 -222 136 -222s136 84 136 222s-44 222 -136 222
s-136 -84 -136 -222z" />
    <glyph glyph-name="uni0210" unicode="&#x210;" horiz-adv-x="644" 
d="M72 846c0 21 24 48 44 48c21 0 38 -20 53 -39l70 -89l-19 -22l-101 56c-36 21 -47 30 -47 46zM242 846c0 21 24 48 44 48c21 0 38 -20 53 -39l70 -89l-19 -22l-101 56c-36 21 -47 30 -47 46zM35 0v29c88 6 90 8 90 64v506c0 56 -2 58 -90 64v29h292
c175 0 235 -75 235 -171c0 -95 -69 -158 -163 -176v-2c106 -26 124 -93 136 -182c9 -68 25 -124 103 -132v-29h-81c-59 0 -97 22 -112 86c-11 46 -22 125 -29 153c-17 68 -63 87 -123 87h-69v-233c0 -43 0 -44 3 -48c7 -12 30 -12 72 -16v-29h-264zM224 361h79
c97 0 152 46 152 151c0 118 -84 145 -158 145c-66 0 -73 -8 -73 -50v-246z" />
    <glyph glyph-name="uni0211" unicode="&#x211;" horiz-adv-x="389" 
d="M60 712c0 21 23 38 50 38c23 0 32 -20 41 -47l46 -144l-24 -13l-82 104c-19 25 -31 46 -31 62zM202 712c0 21 23 38 50 38c23 0 32 -20 41 -47l46 -144l-24 -13l-82 104c-19 25 -31 46 -31 62zM32 0v29c70 5 75 7 75 58v315c0 36 -6 41 -32 45l-38 5v25l152 25l12 -80
c66 58 96 80 132 80c39 0 53 -27 53 -49c0 -31 -22 -56 -46 -56c-5 0 -13 1 -20 5c-29 16 -46 22 -62 22c-23 0 -57 -26 -57 -103v-234c0 -51 6 -53 95 -58v-29h-264z" />
    <glyph glyph-name="uni0212" unicode="&#x212;" horiz-adv-x="644" 
d="M140 749c0 56 29 121 150 121s150 -65 150 -121h-28c-2 19 -28 59 -122 59s-120 -40 -122 -59h-28zM35 0v29c88 6 90 8 90 64v506c0 56 -2 58 -90 64v29h292c175 0 235 -75 235 -171c0 -95 -69 -158 -163 -176v-2c106 -26 124 -93 136 -182c9 -68 25 -124 103 -132v-29
h-81c-59 0 -97 22 -112 86c-11 46 -22 125 -29 153c-17 68 -63 87 -123 87h-69v-233c0 -43 0 -44 3 -48c7 -12 30 -12 72 -16v-29h-264zM224 361h79c97 0 152 46 152 151c0 118 -84 145 -158 145c-66 0 -73 -8 -73 -50v-246z" />
    <glyph glyph-name="uni0213" unicode="&#x213;" horiz-adv-x="389" 
d="M32 0v29c70 5 75 7 75 58v315c0 36 -6 41 -32 45l-38 5v25l152 25l12 -80c66 58 96 80 132 80c39 0 53 -27 53 -49c0 -31 -22 -56 -46 -56c-5 0 -13 1 -20 5c-29 16 -46 22 -62 22c-23 0 -57 -26 -57 -103v-234c0 -51 6 -53 95 -58v-29h-264zM374 568h-24
c-2 21 -20 71 -113 71s-111 -50 -113 -71h-24c0 63 12 136 137 136s137 -73 137 -136z" />
    <glyph glyph-name="uni0214" unicode="&#x214;" horiz-adv-x="791" 
d="M178 846c0 21 24 48 44 48c21 0 38 -20 53 -39l70 -89l-19 -22l-101 56c-36 21 -47 30 -47 46zM348 846c0 21 24 48 44 48c21 0 38 -20 53 -39l70 -89l-19 -22l-101 56c-36 21 -47 30 -47 46zM29 663v29h279v-29c-87 -6 -90 -8 -90 -64v-324c0 -95 15 -155 45 -195
c31 -40 75 -60 132 -60c58 0 102 20 133 60c30 40 45 100 45 195v324c0 56 -2 58 -90 64v29h279v-29c-87 -6 -90 -8 -90 -64v-344c0 -60 -10 -113 -27 -148c-46 -99 -151 -122 -250 -122c-98 0 -203 24 -249 122c-17 34 -27 87 -27 146v346c0 56 -2 58 -90 64z" />
    <glyph glyph-name="uni0215" unicode="&#x215;" horiz-adv-x="606" 
d="M129 712c0 21 23 38 50 38c23 0 32 -20 41 -47l46 -144l-24 -13l-82 104c-19 25 -31 46 -31 62zM271 712c0 21 23 38 50 38c23 0 32 -20 41 -47l46 -144l-24 -13l-82 104c-19 25 -31 46 -31 62zM26 452v25l157 25l7 -6v-340c0 -78 43 -114 101 -114c52 0 100 29 123 75
c5 10 8 32 8 60v225c0 36 -6 41 -32 45l-38 5v25l157 25l7 -6v-409c0 -51 6 -53 75 -58v-29h-160l-10 60c-29 -14 -98 -72 -183 -72c-74 0 -142 35 -142 150v264c0 36 -6 41 -32 45z" />
    <glyph glyph-name="uni0216" unicode="&#x216;" horiz-adv-x="791" 
d="M246 749c0 56 29 121 150 121s150 -65 150 -121h-28c-2 19 -28 59 -122 59s-120 -40 -122 -59h-28zM29 663v29h279v-29c-87 -6 -90 -8 -90 -64v-324c0 -95 15 -155 45 -195c31 -40 75 -60 132 -60c58 0 102 20 133 60c30 40 45 100 45 195v324c0 56 -2 58 -90 64v29h279
v-29c-87 -6 -90 -8 -90 -64v-344c0 -60 -10 -113 -27 -148c-46 -99 -151 -122 -250 -122c-98 0 -203 24 -249 122c-17 34 -27 87 -27 146v346c0 56 -2 58 -90 64z" />
    <glyph glyph-name="uni0217" unicode="&#x217;" horiz-adv-x="606" 
d="M26 452v25l157 25l7 -6v-340c0 -78 43 -114 101 -114c52 0 100 29 123 75c5 10 8 32 8 60v225c0 36 -6 41 -32 45l-38 5v25l157 25l7 -6v-409c0 -51 6 -53 75 -58v-29h-160l-10 60c-29 -14 -98 -72 -183 -72c-74 0 -142 35 -142 150v264c0 36 -6 41 -32 45zM443 568h-24
c-2 21 -20 71 -113 71s-111 -50 -113 -71h-24c0 63 12 136 137 136s137 -73 137 -136z" />
    <glyph glyph-name="Scommaaccent" unicode="&#x218;" horiz-adv-x="541" 
d="M50 205h32c25 -112 87 -185 181 -185c89 0 144 52 144 138c0 89 -95 135 -139 152l-18 7c-105 37 -189 92 -189 197c0 132 108 193 230 193c68 0 136 -17 170 -44v-141h-31c-16 101 -64 150 -150 150c-84 0 -128 -54 -128 -127c0 -60 56 -103 123 -128l32 -12
c117 -43 197 -99 197 -217c0 -102 -70 -203 -247 -203c-70 0 -153 19 -197 60zM214 -246c29 30 45 52 45 84c0 31 -31 46 -31 75c0 24 18 43 41 43c34 0 57 -30 57 -72c0 -62 -50 -105 -96 -145z" />
    <glyph glyph-name="scommaaccent" unicode="&#x219;" horiz-adv-x="436" 
d="M47 167h29c20 -85 65 -144 146 -144c53 0 93 32 93 83c0 68 -63 91 -108 105c-83 25 -151 62 -151 145c0 95 74 146 182 146c45 0 96 -10 129 -34v-117h-29c-7 61 -41 116 -112 116c-50 0 -90 -29 -90 -81c0 -56 66 -77 107 -90c103 -32 157 -72 157 -160
c0 -85 -68 -148 -187 -148c-59 0 -120 16 -156 48zM166 -246c29 30 45 52 45 84c0 31 -31 46 -31 75c0 24 18 43 41 43c34 0 57 -30 57 -72c0 -62 -50 -105 -96 -145z" />
    <glyph glyph-name="uni021A" unicode="&#x21a;" horiz-adv-x="621" 
d="M22 526v166h577v-166h-30c-12 109 -33 131 -150 131h-59v-564c0 -56 3 -58 110 -64v-29h-319v29c107 6 110 8 110 64v564h-59c-117 0 -138 -22 -150 -131h-30zM249 -246c29 30 45 52 45 84c0 31 -31 46 -31 75c0 24 18 43 41 43c34 0 57 -30 57 -72
c0 -62 -50 -105 -96 -145z" />
    <glyph glyph-name="uni021B" unicode="&#x21b;" horiz-adv-x="344" 
d="M31 450v40h76l61 126h29v-126h129v-40h-129v-310c0 -76 32 -100 66 -100c25 0 47 3 71 13l8 -21c-29 -18 -77 -44 -128 -44c-35 0 -111 12 -111 114v348h-72zM115 -246c29 30 45 52 45 84c0 31 -31 46 -31 75c0 24 18 43 41 43c34 0 57 -30 57 -72
c0 -62 -50 -105 -96 -145z" />
    <glyph glyph-name="uni021E" unicode="&#x21e;" horiz-adv-x="798" 
d="M246 861l13 21l107 -61c13 -7 25 -14 33 -14c9 0 20 7 33 14l107 61l13 -21l-116 -114c-13 -12 -25 -24 -37 -24s-23 11 -37 24zM35 0v29c88 6 90 8 90 64v506c0 56 -2 58 -90 64v29h279v-29c-87 -6 -90 -8 -90 -64v-220h350v220c0 56 -2 58 -90 64v29h279v-29
c-87 -6 -90 -8 -90 -64v-506c0 -56 3 -58 90 -64v-29h-279v29c88 6 90 8 90 64v248h-350v-248c0 -56 3 -58 90 -64v-29h-279z" />
    <glyph glyph-name="uni021F" unicode="&#x21f;" horiz-adv-x="607" 
d="M153 939l19 21l103 -77c11 -8 23 -15 31 -15c9 0 20 7 31 15l103 77l19 -21l-117 -133c-12 -13 -24 -25 -36 -25s-23 11 -36 25zM21 0v29c70 5 74 9 74 58v555c0 36 -6 41 -32 45l-38 5v25l156 25l7 -6v-310c63 42 108 76 181 76c93 0 148 -58 148 -159v-256
c0 -49 6 -53 75 -58v-29h-244v29c70 5 75 9 75 58v236c0 87 -37 125 -105 125c-53 0 -99 -33 -120 -73c-8 -15 -9 -29 -9 -54v-234c0 -49 6 -53 75 -58v-29h-243z" />
    <glyph glyph-name="uni0226" unicode="&#x226;" horiz-adv-x="635" 
d="M256 787c0 28 21 54 58 54c38 0 58 -26 58 -54s-20 -55 -58 -55c-37 0 -58 27 -58 55zM-29 0v29c63 3 72 15 93 69c35 91 77 211 108 298l105 296h74l212 -603c18 -52 29 -55 87 -60v-29h-256v29l45 4c32 3 37 14 27 43l-67 191h-224c-23 -71 -44 -133 -61 -193
c-8 -27 -5 -37 25 -40l52 -5v-29h-220zM188 305h199l-99 286h-3c-30 -88 -65 -186 -97 -286z" />
    <glyph glyph-name="uni0227" unicode="&#x227;" horiz-adv-x="523" 
d="M209 627c0 29 21 56 60 56s60 -27 60 -56s-21 -57 -60 -57s-60 28 -60 57zM49 130c0 47 21 97 93 119c79 25 176 50 201 76v42c0 80 -46 100 -85 100c-40 0 -81 -24 -103 -98c-5 -17 -11 -28 -32 -28c-19 0 -56 15 -56 47c0 55 89 114 202 114c151 0 164 -75 164 -133
v-242c0 -63 17 -82 35 -86c15 -4 37 -2 51 1l6 -24c-38 -19 -81 -30 -118 -30c-35 0 -51 23 -65 60c-32 -21 -91 -60 -149 -60c-94 0 -144 67 -144 142zM150 144c0 -59 30 -103 92 -103c39 0 101 21 101 102v141c-22 -14 -75 -33 -115 -48c-56 -21 -78 -45 -78 -92z" />
    <glyph glyph-name="uni022E" unicode="&#x22e;" horiz-adv-x="762" 
d="M323 787c0 28 21 54 58 54c38 0 58 -26 58 -54s-20 -55 -58 -55c-37 0 -58 27 -58 55zM48 346c0 112 31 204 85 264c56 63 138 97 248 97s192 -34 248 -97c54 -60 85 -152 85 -264s-31 -204 -85 -264c-56 -63 -138 -97 -248 -97s-192 34 -248 97c-54 60 -85 152 -85 264z
M160 346c0 -147 43 -326 221 -326s221 179 221 326s-43 326 -221 326s-221 -179 -221 -326z" />
    <glyph glyph-name="uni022F" unicode="&#x22f;" horiz-adv-x="577" 
d="M229 627c0 29 21 56 60 56s60 -27 60 -56s-21 -57 -60 -57s-60 28 -60 57zM49 245c0 162 79 257 240 257s240 -95 240 -257s-79 -257 -240 -257s-240 95 -240 257zM153 245c0 -138 44 -222 136 -222s136 84 136 222s-44 222 -136 222s-136 -84 -136 -222z" />
    <glyph glyph-name="uni0232" unicode="&#x232;" horiz-adv-x="588" 
d="M144 759v59h316v-59h-316zM-12 663v29h259v-29l-59 -6c-15 -2 -19 -12 -11 -30c44 -96 96 -197 154 -302h2c53 104 121 241 146 301c8 19 6 30 -12 32l-54 5v29h219v-29c-67 -3 -73 -11 -107 -66c-31 -50 -106 -190 -157 -292c-10 -20 -13 -35 -13 -59v-153
c0 -55 3 -58 106 -64v-29h-311v29c103 6 106 9 106 64v149c0 20 -4 37 -15 58c-49 99 -108 210 -164 313c-22 42 -36 48 -89 50z" />
    <glyph glyph-name="uni0233" unicode="&#x233;" horiz-adv-x="506" 
d="M118 597v59h288v-59h-288zM-5 461v29h229v-29l-43 -4c-23 -2 -21 -13 -15 -31c37 -105 77 -214 123 -335h2c44 120 96 271 111 331c5 20 3 32 -14 34l-52 5v29h192v-29c-50 -3 -56 -11 -74 -51c-31 -70 -123 -314 -185 -492c-51 -148 -102 -160 -142 -160
c-42 0 -70 28 -70 52c0 29 25 56 44 56c12 0 20 -5 30 -14c18 -18 27 -21 37 -21c11 0 29 9 44 42c15 32 24 62 24 85c0 17 -2 32 -8 49c-24 69 -107 282 -157 402c-18 44 -28 50 -76 52z" />
    <glyph glyph-name="uni0237" unicode="&#x237;" horiz-adv-x="280" 
d="M-33 -218c61 15 95 36 113 71c21 41 26 111 26 183v366c0 34 -6 41 -32 45l-38 5v25l157 25l7 -6v-489c0 -125 -30 -212 -157 -240c-28 -6 -56 -9 -74 -9z" />
    <glyph glyph-name="uni0241" unicode="&#x241;" horiz-adv-x="492" 
d="M40 594c0 36 44 113 196 113c145 0 213 -67 213 -174c0 -115 -170 -157 -170 -284v-156c0 -56 3 -58 110 -64v-29h-319v29c107 6 110 8 110 64v112c0 175 162 205 162 328c0 77 -33 139 -111 139c-57 0 -80 -32 -92 -98c-3 -16 -17 -29 -34 -29c-23 0 -65 11 -65 49z" />
    <glyph glyph-name="uni0244" unicode="&#x244;" horiz-adv-x="809" 
d="M33 341v38h95v220c0 56 -2 58 -90 64v29h279v-29c-87 -6 -90 -8 -90 -64v-220h355v220c0 56 -2 58 -90 64v29h279v-29c-87 -6 -90 -8 -90 -64v-220h95v-38h-95v-86c0 -60 -10 -113 -27 -148c-46 -99 -151 -122 -250 -122c-98 0 -203 24 -249 122c-17 34 -27 87 -27 146
v88h-95zM227 275c0 -95 15 -155 45 -195c31 -40 75 -60 132 -60c58 0 102 20 133 60c30 40 45 100 45 195v66h-355v-66z" />
    <glyph glyph-name="uni0245" unicode="&#x245;" horiz-adv-x="630" 
d="M-29 0v29c55 3 71 11 87 52c25 63 57 150 98 266l121 345h71l211 -604c19 -53 30 -56 86 -59v-29h-256v29l52 5c24 2 27 11 19 36l-175 521h-2l-97 -294c-31 -93 -64 -195 -74 -232c-5 -19 -4 -29 22 -31l57 -5v-29h-220z" />
    <glyph glyph-name="uni0250" unicode="&#x250;" horiz-adv-x="523" 
d="M-1 472c38 19 81 30 118 30c35 0 51 -23 65 -60c32 21 91 60 149 60c94 0 144 -67 144 -142c0 -47 -21 -97 -93 -119c-79 -25 -176 -50 -201 -76v-42c0 -80 46 -100 85 -100c40 0 81 24 103 98c5 17 11 28 32 28c19 0 56 -15 56 -47c0 -55 -89 -114 -202 -114
c-151 0 -164 75 -164 133v242c0 63 -17 82 -35 86c-15 4 -37 2 -51 -1zM181 206c22 14 75 33 115 48c56 21 78 45 78 92c0 59 -30 103 -92 103c-39 0 -101 -21 -101 -102v-141z" />
    <glyph glyph-name="uni0251" unicode="&#x251;" horiz-adv-x="588" 
d="M49 231c0 163 93 271 252 271c45 0 89 -10 127 -31l43 31h27v-415c0 -51 4 -53 75 -58v-29h-161l-8 7v46c-50 -41 -94 -65 -152 -65c-118 0 -203 90 -203 243zM153 246c0 -113 45 -204 137 -204c56 0 114 26 114 129v169c0 66 -24 127 -111 127c-91 0 -140 -98 -140 -221
z" />
    <glyph glyph-name="uni0252" unicode="&#x252;" horiz-adv-x="588" 
d="M20 452v25l149 25l15 -65c50 41 94 65 152 65c118 0 203 -90 203 -243c0 -163 -93 -271 -252 -271c-45 0 -89 10 -127 31l-43 -31h-27v414c0 36 -6 41 -32 45zM184 150c0 -66 24 -127 111 -127c91 0 140 98 140 221c0 113 -45 204 -137 204c-56 0 -114 -26 -114 -129
v-169z" />
    <glyph glyph-name="uni0253" unicode="&#x253;" horiz-adv-x="598" 
d="M90 -4v457c0 203 101 295 215 295c113 0 179 -47 179 -81c0 -26 -31 -53 -50 -53c-20 0 -31 6 -45 31c-16 29 -40 68 -92 68c-78 0 -113 -121 -113 -211v-71c37 22 96 71 172 71c180 0 193 -184 193 -246c0 -204 -116 -268 -249 -268c-75 0 -117 19 -152 39l-40 -39z
M184 163c0 -24 1 -45 7 -63c18 -50 57 -77 110 -77c99 0 144 80 144 227c0 174 -88 198 -129 198c-56 0 -98 -22 -122 -70c-8 -16 -10 -32 -10 -57v-158z" />
    <glyph glyph-name="uni0254" unicode="&#x254;" horiz-adv-x="496" 
d="M23 358c28 107 122 144 192 144c150 0 232 -85 232 -252c0 -133 -61 -262 -243 -262c-108 0 -174 51 -174 97c0 38 39 51 59 51c19 0 25 -10 31 -26c20 -54 49 -87 95 -87c69 0 128 60 128 209c0 94 -28 218 -147 218c-73 0 -113 -36 -144 -106z" />
    <glyph glyph-name="uni0255" unicode="&#x255;" horiz-adv-x="496" 
d="M49 240c0 133 61 262 243 262c108 0 174 -51 174 -97c0 -38 -39 -51 -59 -51c-19 0 -25 10 -31 26c-20 54 -49 87 -95 87c-69 0 -128 -60 -128 -209c0 -74 18 -167 84 -203c20 96 60 166 142 166c70 0 89 -47 89 -87c0 -78 -94 -146 -187 -146c-7 0 -14 1 -21 1
c-5 -34 -9 -74 -11 -119l-32 3c2 40 4 81 9 119c-115 19 -177 103 -177 248zM270 43c9 -2 19 -3 30 -3c54 0 128 30 128 98c0 19 -4 48 -56 48c-38 0 -77 -35 -102 -143z" />
    <glyph glyph-name="uni0256" unicode="&#x256;" horiz-adv-x="598" 
d="M49 235c0 158 87 267 254 267c46 0 83 -9 111 -24v164c0 38 -6 43 -32 46l-38 4v25l157 25l7 -6v-659l-6 -179c-3 -95 26 -105 40 -105c21 0 43 10 68 68c5 10 12 17 27 17c20 0 47 -16 47 -49c0 -32 -44 -71 -122 -71c-55 0 -93 25 -118 63c-23 35 -31 88 -31 154v81
c-54 -44 -101 -68 -155 -68c-132 0 -209 99 -209 247zM153 247c0 -115 46 -205 138 -205c52 0 96 20 116 72c6 17 7 34 7 56v176c0 27 -1 41 -9 58c-18 41 -56 63 -103 63c-102 0 -149 -90 -149 -220z" />
    <glyph glyph-name="uni0257" unicode="&#x257;" horiz-adv-x="598" 
d="M49 235c0 87 26 153 69 198c42 43 103 69 185 69c46 0 83 -9 111 -24v47c0 66 10 119 33 154c25 38 64 63 116 63c75 0 119 -39 119 -74c0 -33 -24 -49 -47 -49c-15 0 -23 7 -27 17c-23 59 -47 71 -65 71c-11 0 -44 -10 -40 -105l5 -112v-403c0 -51 4 -53 75 -58v-29
h-162l-8 7v49c-54 -44 -101 -68 -155 -68c-132 0 -209 99 -209 247zM153 247c0 -115 46 -205 138 -205c52 0 96 20 116 72c6 17 7 34 7 56v176c0 27 -1 41 -9 58c-18 41 -56 63 -103 63c-102 0 -149 -90 -149 -220z" />
    <glyph glyph-name="uni0258" unicode="&#x258;" horiz-adv-x="514" 
d="M33 301c0 59 19 201 202 201c156 0 230 -111 230 -261c0 -158 -68 -253 -231 -253c-111 0 -168 62 -195 141l30 16c28 -58 66 -106 145 -106c124 0 149 120 147 224h-288c-21 0 -40 5 -40 38zM137 333c0 -19 6 -32 34 -32h189c0 41 -15 166 -119 166
c-93 0 -104 -95 -104 -134z" />
    <glyph glyph-name="uni0259" unicode="&#x259;" horiz-adv-x="514" 
d="M33 189c0 33 19 38 40 38h288c2 104 -23 224 -147 224c-79 0 -117 -48 -145 -106l-30 16c27 79 84 141 195 141c163 0 231 -95 231 -253c0 -150 -74 -261 -230 -261c-183 0 -202 142 -202 201zM137 157c0 -39 11 -134 104 -134c104 0 119 125 119 166h-189
c-28 0 -34 -13 -34 -32z" />
    <glyph glyph-name="uni025A" unicode="&#x25a;" horiz-adv-x="706" 
d="M53 143c0 31 3 36 39 52l283 123c-15 56 -49 133 -134 133c-82 0 -128 -48 -156 -106l-30 16c27 79 84 141 195 141c115 0 188 -52 218 -143l165 71l14 -15c-14 -18 -30 -51 -30 -84c0 -27 15 -41 41 -41c18 0 49 9 49 9l9 -18s-47 -43 -92 -43c-42 0 -61 32 -61 64
c0 28 23 59 39 73l-124 -54c4 -22 6 -46 6 -72c0 -150 -74 -261 -226 -261c-186 0 -205 126 -205 155zM153 143c0 -49 23 -120 106 -120c119 0 121 189 121 254l-199 -86c-26 -11 -28 -23 -28 -48z" />
    <glyph glyph-name="uni025B" unicode="&#x25b;" horiz-adv-x="482" 
d="M50 123c0 58 45 119 128 140v3c-59 18 -104 54 -104 111c0 77 90 125 184 125c120 0 189 -48 189 -94c0 -38 -37 -50 -57 -50c-19 0 -25 10 -31 26c-20 54 -42 83 -90 83c-64 0 -96 -43 -96 -97c0 -52 33 -94 97 -94h36v-35h-36c-73 0 -116 -55 -116 -111
c0 -66 53 -93 122 -93c73 0 122 33 152 94l29 -14c-29 -96 -118 -129 -188 -129c-110 0 -219 44 -219 135z" />
    <glyph glyph-name="uni025C" unicode="&#x25c;" horiz-adv-x="482" 
d="M25 117l29 14c30 -61 79 -94 152 -94c69 0 122 27 122 93c0 56 -43 111 -116 111h-36v35h36c64 0 97 42 97 94c0 54 -32 97 -96 97c-48 0 -70 -29 -90 -83c-6 -16 -12 -26 -31 -26c-20 0 -57 12 -57 50c0 46 69 94 189 94c94 0 184 -48 184 -125c0 -57 -45 -93 -104 -111
v-3c83 -21 128 -82 128 -140c0 -91 -109 -135 -219 -135c-70 0 -159 33 -188 129z" />
    <glyph glyph-name="uni025D" unicode="&#x25d;" horiz-adv-x="591" 
d="M25 117l29 14c30 -61 79 -94 152 -94c69 0 122 27 122 93c0 56 -43 111 -116 111h-36v35h36c64 0 97 42 97 94c0 54 -32 97 -96 97c-48 0 -70 -29 -90 -83c-6 -16 -12 -26 -31 -26c-20 0 -57 12 -57 50c0 46 69 94 189 94c88 0 172 -42 183 -110l111 38l14 -15
c-14 -18 -30 -51 -30 -84c0 -27 15 -41 41 -41c18 0 49 9 49 9l9 -18s-47 -43 -92 -43c-42 0 -61 32 -61 64c0 30 23 61 39 75l-83 -28c-12 -41 -51 -68 -100 -83v-3c83 -21 128 -82 128 -140c0 -91 -109 -135 -219 -135c-70 0 -159 33 -188 129z" />
    <glyph glyph-name="uni025E" unicode="&#x25e;" horiz-adv-x="580" 
d="M49 245c0 162 79 257 240 257c104 0 217 -26 217 -129c0 -55 -45 -89 -104 -107v-3c83 -21 128 -82 128 -134c0 -121 -157 -141 -241 -141c-161 0 -240 95 -240 257zM153 245c0 -138 41 -222 144 -222c69 0 129 29 129 102c0 64 -43 116 -116 116h-36v35h36
c64 0 97 42 97 94c0 67 -46 97 -110 97c-103 0 -144 -84 -144 -222z" />
    <glyph glyph-name="uni025F" unicode="&#x25f;" horiz-adv-x="315" 
d="M-26 -242l-2 24c105 26 139 61 139 254v199h-90v35h90v132c0 34 -6 41 -32 45l-38 5v25l157 25l7 -6v-226h90v-35h-90v-228c0 -125 -30 -212 -157 -240c-28 -6 -56 -9 -74 -9z" />
    <glyph glyph-name="uni0260" unicode="&#x260;" horiz-adv-x="588" 
d="M49 233c0 167 92 269 254 269c46 0 83 -9 111 -24v47c0 66 10 119 33 154c25 38 64 63 116 63c75 0 119 -39 119 -74c0 -33 -24 -49 -47 -49c-15 0 -23 7 -27 17c-23 59 -47 71 -65 71c-11 0 -44 -10 -40 -105l5 -112v-486c0 -161 -81 -245 -226 -245
c-158 0 -200 56 -200 93c0 30 31 52 52 52c58 0 37 -110 146 -110c97 0 134 95 134 171v97c-52 -38 -101 -65 -157 -65c-121 0 -208 83 -208 236zM153 246c0 -107 43 -195 142 -195c59 0 119 26 119 129v160c0 66 -23 127 -116 127c-102 0 -145 -98 -145 -221z" />
    <glyph glyph-name="uni0261" unicode="&#x261;" horiz-adv-x="588" 
d="M134 -96c58 0 37 -110 146 -110c97 0 134 95 134 171v97c-52 -38 -101 -65 -157 -65c-121 0 -208 83 -208 236c0 167 92 269 257 269c43 0 94 -10 132 -31l43 31h27v-498c0 -161 -81 -245 -226 -245c-158 0 -200 56 -200 93c0 30 31 52 52 52zM153 246
c0 -107 43 -195 142 -195c59 0 119 26 119 129v160c0 66 -23 127 -116 127c-102 0 -145 -98 -145 -221z" />
    <glyph glyph-name="uni0262" unicode="&#x262;" horiz-adv-x="607" 
d="M49 245c0 129 72 257 291 257c63 0 131 -13 170 -36v-106h-28c-16 76 -63 107 -144 107c-135 0 -183 -103 -183 -222c0 -81 30 -222 184 -222c24 0 43 3 62 10c15 5 24 15 24 33v91c0 32 -4 36 -75 41v29h219v-29c-46 -5 -50 -8 -50 -41v-132c-50 -19 -127 -37 -182 -37
c-250 0 -288 136 -288 257z" />
    <glyph glyph-name="uni0263" unicode="&#x263;" horiz-adv-x="493" 
d="M1 461v29h224v-29l-45 -5c-19 -2 -22 -10 -16 -29c18 -54 36 -107 58 -164l55 -143h2l64 160c29 72 41 117 49 149c4 14 1 25 -15 27l-49 5v29h190v-29c-46 -2 -58 -8 -72 -43l-143 -350c52 -115 66 -158 66 -210c0 -77 -61 -99 -114 -99c-60 0 -97 35 -97 106
c0 38 29 113 63 179l-75 177c-96 226 -60 233 -145 240zM198 -147c0 -27 16 -59 46 -59c27 0 54 14 54 58c0 22 -20 76 -49 151h-2c-20 -52 -49 -111 -49 -150z" />
    <glyph glyph-name="uni0264" unicode="&#x264;" horiz-adv-x="493" 
d="M1 461v29h220v-29l-38 -5c-19 -2 -26 -12 -16 -29c44 -74 58 -98 112 -183h2c50 81 78 129 107 185c7 13 1 25 -15 27l-40 5v29h185v-29c-46 -2 -56 -12 -76 -43l-135 -209c47 -60 55 -86 55 -135c0 -57 -52 -86 -109 -86c-44 0 -86 25 -86 78c0 36 17 75 56 117
l-138 214c-35 53 -39 57 -84 64zM207 60c0 -21 19 -37 45 -37c27 0 36 21 36 38c0 21 -6 43 -37 91h-2c-32 -36 -42 -59 -42 -92z" />
    <glyph glyph-name="uni0265" unicode="&#x265;" horiz-adv-x="601" 
d="M26 452v25l157 25l7 -6v-329c0 -87 37 -125 105 -125c53 0 99 33 120 73c8 15 9 29 9 54v233c0 36 -6 41 -32 45l-38 5v25l157 25l7 -6v-639c0 -51 6 -53 75 -58v-29h-248v29c75 5 80 7 80 58v207c-63 -42 -108 -76 -181 -76c-93 0 -148 58 -148 159v255
c0 36 -6 41 -32 45z" />
    <glyph glyph-name="uni0266" unicode="&#x266;" horiz-adv-x="607" 
d="M21 0v29c70 5 74 9 74 58v366c0 203 101 295 215 295c113 0 179 -47 179 -81c0 -26 -31 -53 -50 -53c-20 0 -31 6 -45 31c-16 29 -40 68 -92 68c-78 0 -114 -121 -114 -211v-83c57 46 108 83 181 83c93 0 148 -58 148 -159v-256c0 -49 6 -53 75 -58v-29h-244v29
c70 5 75 9 75 58v236c0 87 -37 125 -105 125c-52 0 -96 -40 -120 -80c-9 -15 -9 -29 -9 -54v-227c0 -49 6 -53 75 -58v-29h-243z" />
    <glyph glyph-name="uni0267" unicode="&#x267;" horiz-adv-x="597" 
d="M21 0v29c70 5 74 9 74 58v366c0 203 101 295 215 295c113 0 179 -47 179 -81c0 -26 -31 -53 -50 -53c-20 0 -31 6 -45 31c-16 29 -40 68 -92 68c-78 0 -114 -121 -114 -211v-83c57 46 108 83 181 83c93 0 148 -58 148 -159v-368c0 -66 -8 -119 -31 -154
c-25 -38 -63 -63 -118 -63c-78 0 -122 39 -122 71c0 33 27 49 47 49c15 0 22 -7 27 -17c25 -58 47 -68 68 -68c14 0 45 10 40 105l-5 102v323c0 87 -37 125 -105 125c-52 0 -96 -40 -120 -80c-9 -15 -9 -29 -9 -54v-227c0 -49 6 -53 75 -58v-29h-243z" />
    <glyph glyph-name="uni0268" unicode="&#x268;" horiz-adv-x="316" 
d="M22 235v35h90v132c0 36 -6 41 -32 45l-38 5v25l157 25l7 -6v-226h90v-35h-90v-148c0 -51 4 -53 75 -58v-29h-244v29c72 5 75 7 75 58v148h-90zM97 654c0 36 25 61 61 61s61 -25 61 -61s-25 -61 -61 -61s-61 25 -61 61z" />
    <glyph glyph-name="uni0269" unicode="&#x269;" horiz-adv-x="336" 
d="M25 452v25l157 25l7 -6v-356c0 -76 32 -100 66 -100c25 0 47 3 71 13l8 -21c-29 -18 -77 -44 -128 -44c-35 0 -111 12 -111 114v300c0 36 -6 41 -32 45z" />
    <glyph glyph-name="uni026A" unicode="&#x26a;" horiz-adv-x="308" 
d="M32 0v29c72 5 75 7 75 58v316c0 51 -3 53 -75 58v29h244v-29c-72 -5 -75 -7 -75 -58v-316c0 -51 3 -53 75 -58v-29h-244z" />
    <glyph glyph-name="uni026B" unicode="&#x26b;" horiz-adv-x="375" 
d="M10 339c20 40 48 98 112 98c7 0 15 -1 23 -2v207c0 38 -6 43 -32 46l-38 4v25l157 25l7 -6v-330c14 -4 27 -7 38 -7c28 0 40 11 68 46l20 -11c-14 -28 -28 -52 -44 -69c-17 -16 -35 -26 -60 -26c-7 0 -14 1 -22 3v-255c0 -51 4 -53 75 -58v-29h-244v29c72 5 75 7 75 58
v282c-16 4 -31 8 -44 8c-33 0 -50 -16 -72 -51z" />
    <glyph glyph-name="uni026C" unicode="&#x26c;" horiz-adv-x="400" 
d="M15 407c0 57 39 103 103 103c17 0 35 -4 52 -11v143c0 38 -6 43 -32 46l-38 4v25l157 25l7 -6v-422c39 12 76 33 113 54l13 -29c-52 -31 -91 -51 -126 -62v-190c0 -51 4 -53 75 -58v-29h-244v29c72 5 75 7 75 58v181c-92 8 -155 55 -155 139zM55 403
c0 -50 37 -93 115 -100v150c-17 14 -36 23 -53 23c-43 0 -62 -41 -62 -73z" />
    <glyph glyph-name="uni026D" unicode="&#x26d;" horiz-adv-x="280" 
d="M25 692v25l157 25l7 -6v-736l-5 -102c-5 -95 26 -105 40 -105c21 0 43 10 68 68c5 10 12 17 27 17c20 0 47 -16 47 -49c0 -32 -44 -71 -122 -71c-55 0 -93 25 -118 63c-23 35 -31 88 -31 154v667c0 38 -6 43 -32 46z" />
    <glyph glyph-name="uni026E" unicode="&#x26e;" horiz-adv-x="611" 
d="M20 0v29c72 5 75 7 75 58v555c0 38 -6 43 -32 46l-38 4v25l157 25l7 -6v-246h353l8 -14l-5 -19c-3 -17 -24 -48 -46 -75l-180 -212l2 -2c6 3 43 6 54 6c118 0 194 -72 194 -210c0 -130 -86 -205 -221 -205c-75 0 -139 13 -171 58c-12 17 -25 38 -25 65c0 40 36 50 55 50
c28 0 43 -22 43 -53c0 -38 27 -85 96 -85c93 0 119 94 119 170c0 80 -36 163 -115 163c-18 0 -55 -3 -75 -14l-21 31l6 15l212 255h-151c-108 0 -123 -10 -132 -102v-225c0 -51 4 -53 75 -58v-29h-244z" />
    <glyph glyph-name="uni026F" unicode="&#x26f;" horiz-adv-x="912" 
d="M26 452v25l157 25l7 -6v-329c0 -89 38 -125 101 -125c56 0 99 32 114 72c6 16 7 30 7 55v233c0 36 -6 41 -32 45l-38 5v25l157 25l7 -6v-329c0 -62 10 -125 96 -125c55 0 99 34 118 74c7 14 8 28 8 53v233c0 36 -6 41 -32 45l-38 5v25l157 25l7 -6v-409
c0 -51 6 -53 75 -58v-29h-160l-9 64c-35 -26 -98 -76 -175 -76c-70 0 -108 30 -132 77c-35 -22 -94 -77 -176 -77c-95 0 -149 58 -149 159v255c0 36 -6 41 -32 45z" />
    <glyph glyph-name="uni0270" unicode="&#x270;" horiz-adv-x="923" 
d="M21 452v25l157 25l7 -6v-329c0 -89 38 -125 101 -125c56 0 99 32 114 72c6 16 7 30 7 55v233c0 36 -6 41 -32 45l-38 5v25l157 25l7 -6v-329c0 -62 10 -125 96 -125c55 0 99 34 118 74c7 14 8 28 8 53v233c0 36 -6 41 -32 45l-38 5v25l157 25l7 -6v-638
c0 -36 6 -41 32 -45l38 -5v-25l-156 -25l-7 6v300c-36 -26 -99 -76 -176 -76c-70 0 -108 30 -132 77c-35 -22 -94 -77 -176 -77c-95 0 -149 58 -149 159v255c0 36 -6 41 -32 45z" />
    <glyph glyph-name="uni0271" unicode="&#x271;" horiz-adv-x="913" 
d="M32 0v29c72 5 75 7 75 58v315c0 36 -6 41 -32 45l-38 5v25l155 25l9 -76c35 26 98 76 175 76c70 0 108 -30 132 -77c35 22 94 77 176 77c95 0 149 -58 149 -159v-368c0 -66 -8 -119 -31 -154c-25 -38 -63 -63 -118 -63c-78 0 -122 39 -122 71c0 33 27 49 47 49
c15 0 22 -7 27 -17c25 -58 47 -68 68 -68c14 0 45 10 40 105l-5 102v323c0 89 -38 125 -101 125c-56 0 -99 -32 -114 -72c-6 -16 -7 -30 -7 -55v-234c0 -51 4 -53 75 -58v-29h-244v29c72 5 75 7 75 58v236c0 62 -10 125 -96 125c-55 0 -99 -34 -118 -74
c-7 -14 -8 -28 -8 -53v-234c0 -51 4 -53 75 -58v-29h-244z" />
    <glyph glyph-name="uni0272" unicode="&#x272;" horiz-adv-x="619" 
d="M-70 -171c0 33 27 49 47 49c15 0 22 -7 27 -17c25 -58 47 -68 68 -68c14 0 45 10 40 105l-5 102v402c0 36 -6 41 -32 45l-38 5v25l149 25l14 -76c62 40 108 76 182 76c92 0 147 -58 147 -159v-256c0 -51 4 -53 75 -58v-29h-244v29c72 5 75 7 75 58v236
c0 87 -37 125 -105 125c-53 0 -98 -33 -119 -72c-8 -16 -10 -30 -10 -55v-346c0 -66 -8 -119 -31 -154c-25 -38 -63 -63 -118 -63c-78 0 -122 39 -122 71z" />
    <glyph glyph-name="uni0273" unicode="&#x273;" horiz-adv-x="620" 
d="M32 0v29c72 5 75 7 75 58v315c0 36 -6 41 -32 45l-38 5v25l149 25l14 -76c62 40 108 76 182 76c92 0 147 -58 147 -159v-343l-5 -102c-5 -95 26 -105 40 -105c21 0 43 10 68 68c5 10 12 17 27 17c20 0 47 -16 47 -49c0 -32 -44 -71 -122 -71c-55 0 -93 25 -118 63
c-23 35 -31 88 -31 154v348c0 87 -37 125 -105 125c-53 0 -98 -33 -119 -72c-8 -16 -10 -30 -10 -55v-234c0 -51 4 -53 75 -58v-29h-244z" />
    <glyph glyph-name="uni0274" unicode="&#x274;" horiz-adv-x="629" 
d="M32 0v29c72 5 75 7 75 58v316c0 51 -3 53 -75 58v29h161l299 -374h1v287c0 51 -14 53 -79 57v29h194v-29c-72 -5 -75 -7 -75 -58v-402h-58l-326 407h-2v-321c0 -51 14 -53 79 -57v-29h-194z" />
    <glyph glyph-name="uni0275" unicode="&#x275;" horiz-adv-x="577" 
d="M49 245c0 162 79 257 240 257s240 -95 240 -257s-79 -257 -240 -257s-240 95 -240 257zM153 235c2 -132 46 -212 136 -212s134 80 136 212h-272zM154 270h270c-5 123 -49 197 -135 197s-130 -74 -135 -197z" />
    <glyph glyph-name="uni0276" unicode="&#x276;" horiz-adv-x="828" 
d="M49 245c0 200 164 245 314 245h397v-113h-28c-8 60 -27 78 -111 78h-75c-23 0 -27 -5 -27 -23v-158h89c61 0 64 15 70 55h28v-145h-28c-6 42 -9 55 -70 55h-89v-144c0 -50 12 -60 97 -60c93 0 129 11 146 92h28l-11 -127h-416c-150 0 -314 45 -314 245zM153 245
c0 -98 40 -210 190 -210c50 0 82 6 82 35v350c0 29 -30 35 -80 35c-150 0 -192 -106 -192 -210z" />
    <glyph glyph-name="uni0277" unicode="&#x277;" horiz-adv-x="754" 
d="M49 207c0 189 107 295 328 295s328 -106 328 -295c0 -117 -52 -219 -175 -219c-56 0 -126 22 -152 98h-2c-26 -76 -96 -98 -152 -98c-123 0 -175 102 -175 219zM153 227c0 -132 38 -182 101 -182c65 0 93 70 93 120s-17 43 -17 99c0 27 11 63 47 63s47 -36 47 -63
c0 -56 -17 -49 -17 -99s28 -120 93 -120c63 0 101 50 101 182c0 115 -39 240 -224 240s-224 -125 -224 -240z" />
    <glyph glyph-name="uni0278" unicode="&#x278;" horiz-adv-x="688" 
d="M49 245c0 195 114 241 248 251v146c0 38 -6 43 -32 46l-38 4v25l157 25l7 -6v-240c134 -10 248 -56 248 -251s-114 -241 -248 -251v-137c0 -51 7 -53 91 -58v-29h-276v29c84 5 91 7 91 58v137c-134 10 -248 56 -248 251zM153 245c0 -125 37 -199 144 -216v432
c-107 -17 -144 -91 -144 -216zM391 29c107 17 144 91 144 216s-37 199 -144 216v-432z" />
    <glyph glyph-name="uni0279" unicode="&#x279;" horiz-adv-x="389" 
d="M2 37c0 31 22 56 46 56c5 0 13 -1 20 -5c29 -16 46 -22 62 -22c23 0 57 26 57 103v233c0 36 -6 41 -32 45l-38 5v25l157 25l7 -6v-408c0 -36 6 -41 32 -45l38 -5v-25l-152 -25l-12 80c-66 -58 -96 -80 -132 -80c-39 0 -53 27 -53 49z" />
    <glyph glyph-name="uni027A" unicode="&#x27a;" horiz-adv-x="389" 
d="M2 37c0 31 22 56 46 56c5 0 13 -1 20 -5c29 -16 46 -22 62 -22c23 0 57 26 57 103v473c0 36 -6 41 -32 45l-38 5v25l157 25l7 -6v-648c0 -36 6 -41 32 -45l38 -5v-25l-152 -25l-12 80c-66 -58 -96 -80 -132 -80c-39 0 -53 27 -53 49z" />
    <glyph glyph-name="uni027B" unicode="&#x27b;" horiz-adv-x="372" 
d="M2 37c0 31 22 56 46 56c5 0 13 -1 20 -5c29 -16 46 -22 62 -22c23 0 57 26 57 103v233c0 36 -6 41 -32 45l-38 5v25l157 25l7 -6v-496l-5 -102c-5 -95 26 -105 40 -105c21 0 43 10 68 68c5 10 12 17 27 17c20 0 47 -16 47 -49c0 -32 -44 -71 -122 -71
c-55 0 -93 25 -118 63c-23 35 -31 88 -31 154v93c-66 -58 -96 -80 -132 -80c-39 0 -53 27 -53 49z" />
    <glyph glyph-name="uni027C" unicode="&#x27c;" horiz-adv-x="389" 
d="M32 -230v29c70 5 75 7 75 58v545c0 36 -6 41 -32 45l-38 5v25l152 25l12 -80c66 58 96 80 132 80c39 0 53 -27 53 -49c0 -31 -22 -56 -46 -56c-23 0 -47 27 -82 27c-23 0 -57 -26 -57 -103v-464c0 -51 6 -53 95 -58v-29h-264z" />
    <glyph glyph-name="uni027D" unicode="&#x27d;" horiz-adv-x="392" 
d="M340 397c-23 0 -47 27 -82 27c-23 0 -57 -26 -57 -103v-321l-5 -102c-5 -95 26 -105 40 -105c21 0 43 10 68 68c5 10 12 17 27 17c20 0 47 -16 47 -49c0 -32 -44 -71 -122 -71c-55 0 -93 25 -118 63c-23 35 -31 88 -31 154v427c0 36 -6 41 -32 45l-38 5v25l152 25l12 -80
c66 58 96 80 132 80c39 0 53 -27 53 -49c0 -31 -22 -56 -46 -56z" />
    <glyph glyph-name="uni027E" unicode="&#x27e;" horiz-adv-x="378" 
d="M21 0v29c70 5 75 7 75 58v113c0 173 63 234 107 262c42 27 89 40 119 40c39 0 53 -27 53 -49c0 -31 -22 -56 -46 -56c-26 0 -48 31 -74 31c-45 0 -65 -38 -65 -147v-194c0 -51 6 -53 95 -58v-29h-264z" />
    <glyph glyph-name="uni027F" unicode="&#x27f;" horiz-adv-x="378" 
d="M3 453c0 22 14 49 53 49c30 0 77 -13 119 -40c44 -28 107 -89 107 -262v-343c0 -51 5 -53 75 -58v-29h-264v29c89 5 95 7 95 58v424c0 109 -20 147 -65 147c-26 0 -48 -31 -74 -31c-24 0 -46 25 -46 56z" />
    <glyph glyph-name="uni0280" unicode="&#x280;" horiz-adv-x="542" 
d="M32 0v29c72 5 75 7 75 58v316c0 51 -3 53 -75 58v29h246c141 0 191 -54 191 -122s-62 -112 -144 -124v-3c87 -17 103 -64 111 -123c6 -46 21 -84 85 -89v-29h-76c-80 0 -92 46 -106 118c-11 58 -22 106 -105 106h-33v-137c0 -51 3 -53 75 -58v-29h-244zM201 260h56
c69 0 108 30 108 99c0 78 -60 96 -112 96c-47 0 -52 -5 -52 -33v-162z" />
    <glyph glyph-name="uni0281" unicode="&#x281;" horiz-adv-x="542" 
d="M32 0v29c72 5 75 7 75 58v315c0 36 -6 41 -32 45l-38 5v25l157 25l7 -6v-230h33c83 0 94 48 105 106c14 72 26 118 106 118h76v-29c-64 -5 -79 -43 -85 -89c-8 -59 -24 -106 -111 -123v-3c82 -12 144 -56 144 -124s-50 -122 -191 -122h-246zM201 68c0 -28 5 -33 52 -33
c52 0 112 18 112 96c0 69 -39 99 -108 99h-56v-162z" />
    <glyph glyph-name="uni0282" unicode="&#x282;" horiz-adv-x="436" 
d="M47 167h29c20 -85 65 -144 146 -144c53 0 93 32 93 83c0 68 -63 91 -108 105c-83 25 -151 62 -151 145c0 95 74 146 182 146c45 0 96 -10 129 -34v-117h-29c-7 61 -41 116 -112 116c-50 0 -90 -29 -90 -81c0 -56 66 -77 107 -90c103 -32 157 -72 157 -160
c0 -85 -68 -148 -187 -148c-35 0 -67 4 -103 18c-7 2 -12 -2 -12 -11v-87c0 -85 31 -100 43 -100c50 0 36 70 78 70c20 0 47 -17 47 -46c0 -31 -35 -74 -112 -74c-79 0 -96 55 -96 159v83c0 8 0 20 -1 36z" />
    <glyph glyph-name="uni0283" unicode="&#x283;" horiz-adv-x="350" 
d="M-28 -171c0 33 27 49 47 49c15 0 22 -7 27 -17c25 -58 47 -68 68 -68c14 0 45 10 40 105l-5 102v525c0 66 10 119 33 154c25 38 64 63 119 63c78 0 122 -42 122 -74c0 -33 -27 -49 -47 -49c-15 0 -22 7 -27 17c-25 58 -47 71 -68 71c-14 0 -47 -10 -43 -105l5 -112v-515
c0 -66 -8 -119 -31 -154c-25 -38 -63 -63 -118 -63c-78 0 -122 39 -122 71z" />
    <glyph glyph-name="uni0284" unicode="&#x284;" horiz-adv-x="315" 
d="M-26 -242l-2 24c105 26 139 61 139 254v199h-90v35h90v255c0 66 10 119 33 154c25 38 64 63 116 63c75 0 119 -39 119 -74c0 -33 -24 -49 -47 -49c-15 0 -23 7 -27 17c-23 59 -47 71 -65 71c-11 0 -44 -10 -40 -105l5 -112v-220h90v-35h-90v-228
c0 -125 -30 -212 -157 -240c-28 -6 -56 -9 -74 -9z" />
    <glyph glyph-name="uni0285" unicode="&#x285;" horiz-adv-x="373" 
d="M3 453c0 22 14 49 53 49c30 0 77 -13 119 -40c44 -28 107 -89 107 -262v-200l-5 -102c-5 -95 26 -105 40 -105c21 0 43 10 68 68c5 10 12 17 27 17c20 0 47 -16 47 -49c0 -32 -44 -71 -122 -71c-55 0 -93 25 -118 63c-23 35 -31 88 -31 154v306c0 109 -20 147 -65 147
c-26 0 -48 -31 -74 -31c-24 0 -46 25 -46 56z" />
    <glyph glyph-name="uni0286" unicode="&#x286;" horiz-adv-x="350" 
d="M-104 -133c0 65 63 110 145 110c40 0 74 -6 105 -22h1c2 24 2 52 2 81v489c0 66 10 119 33 154c25 38 64 63 119 63c78 0 122 -42 122 -74c0 -33 -27 -49 -47 -49c-15 0 -22 7 -27 17c-25 58 -47 71 -68 71c-14 0 -47 -10 -43 -105l5 -112v-483c0 -43 -3 -79 -14 -115
c25 -27 60 -66 86 -114l-28 -17c-19 30 -49 67 -74 92h-1c-29 -55 -86 -95 -174 -95c-78 0 -142 36 -142 109zM-62 -134c0 -34 25 -72 92 -72c72 0 101 43 112 116c-29 20 -61 32 -95 32c-68 0 -109 -31 -109 -76z" />
    <glyph glyph-name="uni0287" unicode="&#x287;" horiz-adv-x="344" 
d="M2 458c29 18 77 44 128 44c35 0 111 -12 111 -114v-348h72v-40h-76l-61 -126h-29v126h-129v40h129v310c0 76 -32 100 -66 100c-25 0 -47 -3 -71 -13z" />
    <glyph glyph-name="uni0288" unicode="&#x288;" horiz-adv-x="352" 
d="M31 450v40h76l61 126h29v-126h129v-40h-129v-450l-5 -102c-5 -95 26 -105 40 -105c21 0 43 10 68 68c5 10 12 17 27 17c20 0 47 -16 47 -49c0 -32 -44 -71 -122 -71c-55 0 -93 25 -118 63c-23 35 -31 88 -31 154v475h-72z" />
    <glyph glyph-name="uni0289" unicode="&#x289;" horiz-adv-x="642" 
d="M22 235v35h90v132c0 36 -6 41 -32 45l-38 5v25l157 25l7 -6v-226h232v132c0 36 -6 41 -32 45l-38 5v25l157 25l7 -6v-226h90v-35h-90v-148c0 -51 6 -53 75 -58v-29h-160l-10 60c-29 -14 -98 -72 -183 -72c-74 0 -142 35 -142 150v97h-90zM206 156c0 -78 43 -114 101 -114
c52 0 100 29 123 75c5 10 8 32 8 60v58h-232v-79z" />
    <glyph glyph-name="uni028A" unicode="&#x28a;" horiz-adv-x="590" 
d="M40 461v29h174l8 -14c-64 -84 -69 -174 -69 -262c0 -104 37 -191 142 -191s142 87 142 191c0 88 -5 178 -69 262l8 14h174v-29c-72 -5 -83 -16 -83 -45c0 -57 71 -78 71 -218c0 -71 -43 -210 -243 -210s-243 139 -243 210c0 140 71 161 71 218c0 29 -11 40 -83 45z" />
    <glyph glyph-name="uni028B" unicode="&#x28b;" horiz-adv-x="546" 
d="M26 452v25l157 25l7 -6v-327c0 -138 45 -146 100 -146c87 0 145 127 145 267c0 93 -53 107 -53 173c0 26 34 39 56 39c26 0 58 -21 58 -144c0 -148 -60 -370 -217 -370c-108 0 -183 19 -183 159v255c0 36 -6 41 -32 45z" />
    <glyph glyph-name="uni028C" unicode="&#x28c;" horiz-adv-x="500" 
d="M-22 0v29c44 3 54 9 70 43c17 36 42 98 70 176l88 242h72l150 -416c14 -37 24 -41 71 -45v-29h-224v29l45 5c19 2 23 10 16 29l-118 337h-2l-66 -185c-23 -66 -41 -122 -49 -154c-4 -14 -1 -25 18 -27l49 -5v-29h-190z" />
    <glyph glyph-name="uni028D" unicode="&#x28d;" horiz-adv-x="768" 
d="M-24 0v29c50 3 61 7 78 58c25 78 84 256 126 403h76c40 -127 81 -254 123 -381h3l118 381h76c42 -151 86 -286 128 -418c12 -38 25 -41 66 -43v-29h-211v29l35 3c18 2 24 11 18 30c-32 108 -63 224 -99 339h-2l-116 -389h-76c-41 130 -82 259 -125 389h-2
c-31 -113 -77 -275 -90 -334c-4 -18 -3 -31 14 -33l57 -5v-29h-197z" />
    <glyph glyph-name="uni028E" unicode="&#x28e;" horiz-adv-x="506" 
d="M-22 0v29c50 3 56 11 74 51c31 70 123 314 185 492c51 148 102 160 142 160c42 0 70 -28 70 -52c0 -29 -25 -56 -44 -56c-12 0 -20 5 -30 14c-18 18 -27 21 -37 21c-11 0 -29 -9 -44 -42c-15 -32 -24 -62 -24 -85c0 -17 2 -32 8 -49c24 -69 107 -282 157 -402
c18 -44 28 -50 76 -52v-29h-229v29l43 4c23 2 21 13 15 31c-37 105 -77 214 -123 335h-2c-44 -120 -96 -271 -111 -331c-5 -20 -3 -32 14 -34l52 -5v-29h-192z" />
    <glyph glyph-name="uni028F" unicode="&#x28f;" horiz-adv-x="502" 
d="M110 0v29c84 5 91 7 91 58v63c0 18 -8 35 -12 41c-52 89 -70 125 -120 225c-18 36 -25 38 -71 45v29h224v-29l-41 -5c-19 -2 -25 -16 -16 -34c49 -97 55 -111 105 -203h2c54 93 73 127 115 206c7 13 3 29 -13 31l-46 5v29h180v-29c-42 -6 -52 -14 -72 -46
c-48 -77 -80 -129 -133 -225c-5 -9 -8 -23 -8 -40v-63c0 -51 7 -53 91 -58v-29h-276z" />
    <glyph glyph-name="uni0290" unicode="&#x290;" horiz-adv-x="536" 
d="M495 -192c50 0 36 70 78 70c20 0 47 -17 47 -46c0 -31 -35 -74 -112 -74c-79 0 -96 55 -96 159v83h-385l-8 15l315 440h-100c-108 0 -129 -21 -142 -113h-31v148h384l8 -14l-312 -441h129c111 0 145 24 161 118h31l-10 -153v-92c0 -85 31 -100 43 -100z" />
    <glyph glyph-name="uni0291" unicode="&#x291;" horiz-adv-x="505" 
d="M19 15l315 440h-100c-108 0 -129 -21 -142 -113h-31v148h384l8 -14l-312 -441h108c24 102 70 178 149 178c65 0 81 -55 81 -88c0 -83 -65 -125 -191 -125h-13c-7 -36 -12 -79 -15 -130l-32 3c2 44 7 87 14 127h-215zM284 35h6c78 0 149 18 149 94c0 16 -4 49 -48 49
c-30 0 -77 -33 -107 -143z" />
    <glyph glyph-name="uni0292" unicode="&#x292;" horiz-adv-x="514" 
d="M55 -118c0 40 36 50 55 50c28 0 43 -22 43 -53c0 -38 27 -85 96 -85c93 0 119 94 119 170c0 80 -36 163 -115 163c-18 0 -55 -3 -75 -14l-21 31l6 15l212 255h-151c-108 0 -123 -10 -132 -102h-31v178h384l8 -14l-5 -19c-3 -17 -24 -48 -46 -75l-180 -212l2 -2
c6 3 43 6 54 6c118 0 194 -72 194 -210c0 -130 -86 -205 -221 -205c-75 0 -139 13 -171 58c-12 17 -25 38 -25 65z" />
    <glyph glyph-name="uni0293" unicode="&#x293;" horiz-adv-x="514" 
d="M60 -119c0 92 93 116 172 116c49 0 94 -14 136 -41v8c0 80 -36 163 -115 163c-18 0 -55 -3 -75 -14l-21 31l6 15l212 255h-151c-108 0 -123 -10 -132 -102h-31v178h384l8 -14l-5 -19c-3 -17 -24 -48 -46 -75l-180 -212l2 -2c6 3 43 6 54 6c118 0 194 -72 194 -210
c0 -34 -6 -65 -17 -91c21 -28 41 -59 60 -96l-26 -16c-15 25 -32 53 -53 79c-38 -53 -104 -82 -187 -82c-86 0 -189 33 -189 123zM364 -88c-38 30 -81 50 -126 50c-64 0 -136 -14 -136 -82c0 -60 70 -86 145 -86c72 0 106 57 117 118z" />
    <glyph glyph-name="uni0294" unicode="&#x294;" horiz-adv-x="453" 
d="M34 633c0 39 42 109 191 109c145 0 198 -75 198 -174c0 -119 -164 -150 -164 -295v-186c0 -51 3 -53 75 -58v-29h-244v29c72 5 75 7 75 58v142c0 175 159 206 159 339c0 75 -26 139 -104 139c-56 0 -83 -30 -103 -104c-5 -15 -17 -21 -31 -21c-18 0 -52 18 -52 51z" />
    <glyph glyph-name="uni0295" unicode="&#x295;" horiz-adv-x="453" 
d="M29 568c0 99 53 174 198 174c149 0 191 -70 191 -109c0 -33 -34 -51 -52 -51c-14 0 -26 6 -31 21c-20 74 -47 104 -103 104c-78 0 -104 -64 -104 -139c0 -133 159 -164 159 -339v-142c0 -51 3 -53 75 -58v-29h-244v29c72 5 75 7 75 58v186c0 145 -164 176 -164 295z" />
    <glyph glyph-name="uni0296" unicode="&#x296;" horiz-adv-x="453" 
d="M29 162c0 119 164 150 164 295v186c0 51 -3 53 -75 58v29h244v-29c-72 -5 -75 -7 -75 -58v-142c0 -175 -159 -206 -159 -339c0 -75 26 -139 104 -139c56 0 83 30 103 104c5 15 17 21 31 21c18 0 52 -18 52 -51c0 -39 -42 -109 -191 -109c-145 0 -198 75 -198 174z" />
    <glyph glyph-name="uni0297" unicode="&#x297;" horiz-adv-x="488" 
d="M51 92c0 51 2 140 31 223c26 75 96 187 201 187c113 0 183 -51 183 -97c0 -38 -39 -51 -59 -51c-19 0 -25 10 -31 26c-20 54 -49 87 -95 87c-60 0 -110 -53 -128 -157c-8 -44 -8 -138 -8 -195c0 -91 1 -143 36 -221c24 -53 59 -84 119 -84c73 0 113 36 144 106l29 -14
c-28 -107 -122 -144 -192 -144c-88 0 -144 33 -178 92c-21 36 -52 150 -52 242z" />
    <glyph glyph-name="uni0298" unicode="&#x298;" horiz-adv-x="762" 
d="M48 346c0 112 31 204 85 264c56 63 138 97 248 97s192 -34 248 -97c54 -60 85 -152 85 -264s-31 -204 -85 -264c-56 -63 -138 -97 -248 -97s-192 34 -248 97c-54 60 -85 152 -85 264zM160 346c0 -147 43 -326 221 -326s221 179 221 326s-43 326 -221 326
s-221 -179 -221 -326zM318 346c0 37 25 65 63 65c39 0 63 -28 63 -65c-1 -36 -24 -63 -63 -63c-38 0 -63 27 -63 63z" />
    <glyph glyph-name="uni0299" unicode="&#x299;" horiz-adv-x="557" 
d="M32 0v29c72 5 75 7 75 58v316c0 51 -3 53 -75 58v29h254c95 0 196 -32 196 -126c0 -60 -42 -85 -103 -102v-3c76 -19 128 -55 128 -123c0 -101 -89 -136 -186 -136h-289zM201 90c0 -51 0 -52 75 -55h7c85 0 120 37 120 101c0 63 -49 101 -128 101h-74v-147zM201 272h80
c65 0 102 46 102 92c0 44 -30 91 -95 91h-12c-75 0 -75 -4 -75 -55v-128z" />
    <glyph glyph-name="uni029A" unicode="&#x29a;" horiz-adv-x="580" 
d="M50 129c0 52 45 113 128 134v3c-59 18 -104 52 -104 107c0 103 113 129 217 129c161 0 240 -95 240 -257s-79 -257 -240 -257c-84 0 -241 20 -241 141zM154 125c0 -73 60 -102 129 -102c103 0 144 84 144 222s-41 222 -144 222c-64 0 -110 -30 -110 -97
c0 -52 33 -94 97 -94h36v-35h-36c-73 0 -116 -52 -116 -116z" />
    <glyph glyph-name="uni029B" unicode="&#x29b;" horiz-adv-x="625" 
d="M339 23c37 0 86 5 86 43v91c0 32 -4 36 -75 41v29h219v-29c-46 -5 -50 -8 -50 -41v-132c-50 -19 -127 -37 -182 -37c-250 0 -288 136 -288 257c0 129 72 257 291 257c36 0 84 -6 124 -17v60c0 77 12 150 55 179c20 14 39 18 71 18c75 0 119 -39 119 -74
c0 -33 -24 -49 -47 -49c-15 0 -23 7 -27 17c-23 59 -47 71 -65 71c-11 0 -60 -1 -60 -135v-212h-28c-16 76 -63 107 -144 107c-135 0 -183 -103 -183 -222c0 -81 30 -222 184 -222z" />
    <glyph glyph-name="uni029C" unicode="&#x29c;" horiz-adv-x="624" 
d="M32 0v29c72 5 75 7 75 58v316c0 51 -3 53 -75 58v29h244v-29c-72 -5 -75 -7 -75 -58v-133h222v133c0 51 -3 53 -75 58v29h244v-29c-72 -5 -75 -7 -75 -58v-316c0 -51 3 -53 75 -58v-29h-244v29c72 5 75 7 75 58v148h-222v-148c0 -51 3 -53 75 -58v-29h-244z" />
    <glyph glyph-name="uni029D" unicode="&#x29d;" horiz-adv-x="360" 
d="M-61 -133c0 70 57 110 139 110c40 0 74 -6 105 -22h1c2 24 2 52 2 81v366c0 34 -6 41 -32 45l-38 5v25l157 25l7 -6v-489c0 -43 -5 -83 -16 -119c24 -28 49 -64 77 -108l-26 -19c-19 29 -42 60 -67 88h-1c-29 -55 -84 -91 -172 -91c-78 0 -136 30 -136 109zM-19 -134
c0 -38 19 -72 86 -72c72 0 101 43 112 116c-29 20 -61 32 -95 32c-68 0 -103 -29 -103 -76zM172 654c0 36 25 61 61 61s61 -25 61 -61s-25 -61 -61 -61s-61 25 -61 61z" />
    <glyph glyph-name="uni029E" unicode="&#x29e;" horiz-adv-x="536" 
d="M-2 467v28l75 -3c32 -2 71 -14 108 -51c52 -53 123 -140 164 -205h2v167c0 51 -4 53 -75 58v29h244v-29c-72 -5 -75 -7 -75 -58v-545c0 -38 6 -43 32 -46l38 -4v-25l-157 -25l-7 6v458h-2c-23 -34 -122 -158 -151 -193c-20 -24 -29 -29 -63 -29h-103v28
c58 6 83 18 117 43s66 54 114 109c10 11 8 16 3 23c-38 54 -116 149 -178 210c-31 31 -56 46 -86 54z" />
    <glyph glyph-name="uni029F" unicode="&#x29f;" horiz-adv-x="468" 
d="M32 0v29c72 5 75 7 75 58v316c0 51 -3 53 -75 58v29h264v-29c-91 -4 -95 -6 -95 -57v-314c0 -51 0 -52 75 -55h1c108 0 125 24 138 100h31l-9 -135h-405z" />
    <glyph glyph-name="uni02A0" unicode="&#x2a0;" horiz-adv-x="591" 
d="M49 233c0 167 92 269 254 269c46 0 83 -9 111 -24v47c0 66 10 119 33 154c25 38 64 63 116 63c75 0 119 -39 119 -74c0 -33 -24 -49 -47 -49c-15 0 -23 7 -27 17c-23 59 -47 71 -65 71c-11 0 -44 -10 -40 -105l5 -112v-633c0 -51 6 -53 75 -58v-29h-249v29
c75 5 80 7 80 58v196c-52 -38 -101 -65 -157 -65c-121 0 -208 85 -208 245zM153 246c0 -113 43 -204 142 -204c55 0 93 21 112 74c6 16 7 33 7 55v169c0 24 -2 42 -8 58c-19 51 -56 69 -108 69c-102 0 -145 -98 -145 -221z" />
    <glyph glyph-name="uni02A1" unicode="&#x2a1;" horiz-adv-x="453" 
d="M34 633c0 39 42 109 191 109c145 0 198 -75 198 -174c0 -119 -164 -150 -164 -295v-50h110v-35h-110v-101c0 -51 3 -53 75 -58v-29h-244v29c72 5 75 7 75 58v101h-110v35h110v6c0 175 159 206 159 339c0 75 -26 139 -104 139c-56 0 -83 -30 -103 -104
c-5 -15 -17 -21 -31 -21c-18 0 -52 18 -52 51z" />
    <glyph glyph-name="uni02A2" unicode="&#x2a2;" horiz-adv-x="453" 
d="M29 568c0 99 53 174 198 174c149 0 191 -70 191 -109c0 -33 -34 -51 -52 -51c-14 0 -26 6 -31 21c-20 74 -47 104 -103 104c-78 0 -104 -64 -104 -139c0 -133 159 -164 159 -339v-6h110v-35h-110v-101c0 -51 3 -53 75 -58v-29h-244v29c72 5 75 7 75 58v101h-110v35h110
v50c0 145 -164 176 -164 295z" />
    <glyph glyph-name="uni02A3" unicode="&#x2a3;" horiz-adv-x="937" 
d="M49 235c0 87 26 153 69 198c42 43 103 69 185 69c46 0 83 -9 111 -24v164c0 38 -6 43 -32 46l-38 4v25l157 25l7 -6v-246h394l8 -14l-312 -441h129c111 0 145 24 161 118h31l-10 -153h-488l-8 7v49c-54 -44 -101 -68 -155 -68c-132 0 -209 99 -209 247zM153 247
c0 -115 46 -205 138 -205c52 0 96 20 116 72c6 17 7 34 7 56v176c0 27 -1 41 -9 58c-18 41 -56 63 -103 63c-102 0 -149 -90 -149 -220zM508 342v-282l283 395h-141c-108 0 -129 -21 -142 -113z" />
    <glyph glyph-name="uni02A4" unicode="&#x2a4;" horiz-adv-x="930" 
d="M49 235c0 87 26 153 69 198c42 43 103 69 185 69c46 0 83 -9 111 -24v164c0 38 -6 43 -32 46l-38 4v25l157 25l7 -6v-246h353l8 -14l-5 -19c-3 -17 -24 -48 -46 -75l-180 -212l2 -2c6 3 43 6 54 6c118 0 194 -72 194 -210c0 -130 -86 -205 -221 -205
c-75 0 -139 13 -171 58c-12 17 -25 38 -25 65c0 40 36 50 55 50c28 0 43 -22 43 -53c0 -38 27 -85 96 -85c93 0 119 94 119 170c0 80 -36 163 -115 163c-18 0 -55 -3 -75 -14l-21 31l6 15l212 255h-151c-108 0 -123 -10 -132 -102v-225c0 -51 4 -53 75 -58v-29h-162l-8 7v49
c-54 -44 -101 -68 -155 -68c-132 0 -209 99 -209 247zM153 247c0 -115 46 -205 138 -205c52 0 96 20 116 72c6 17 7 34 7 56v176c0 27 -1 41 -9 58c-18 41 -56 63 -103 63c-102 0 -149 -90 -149 -220z" />
    <glyph glyph-name="uni02A5" unicode="&#x2a5;" horiz-adv-x="962" 
d="M49 235c0 87 26 153 69 198c42 43 103 69 185 69c46 0 83 -9 111 -24v164c0 38 -6 43 -32 46l-38 4v25l157 25l7 -6v-246h394l8 -14l-312 -441h108c24 102 70 178 149 178c65 0 81 -55 81 -88c0 -83 -65 -125 -191 -125h-13c-7 -36 -12 -79 -15 -130l-32 3
c2 44 7 87 14 127h-278l-8 7v49c-54 -44 -101 -68 -155 -68c-132 0 -209 99 -209 247zM153 247c0 -115 46 -205 138 -205c52 0 96 20 116 72c6 17 7 34 7 56v176c0 27 -1 41 -9 58c-18 41 -56 63 -103 63c-102 0 -149 -90 -149 -220zM508 60l283 395h-141
c-108 0 -129 -21 -142 -113v-282zM741 35h6c78 0 149 18 149 94c0 16 -4 49 -48 49c-30 0 -77 -33 -107 -143z" />
    <glyph glyph-name="uni02A6" unicode="&#x2a6;" horiz-adv-x="643" 
d="M31 450v40h76l61 126h29v-126h166c24 8 52 12 82 12c45 0 96 -10 129 -34v-117h-29c-7 61 -41 116 -112 116c-50 0 -90 -29 -90 -81c0 -56 66 -77 107 -90c103 -33 157 -72 157 -160c0 -85 -68 -148 -187 -148h-186c-44 0 -131 12 -131 114v348h-72zM197 140
c0 -76 35 -117 104 -117h128c53 0 93 32 93 83c0 68 -63 91 -108 105c-83 26 -151 62 -151 145c0 39 12 69 34 93v1h-100v-310z" />
    <glyph glyph-name="uni02A7" unicode="&#x2a7;" horiz-adv-x="502" 
d="M31 450v40h76l61 126h29v-126h104v35c0 66 10 119 33 154c25 38 64 63 119 63c78 0 122 -42 122 -74c0 -33 -27 -49 -47 -49c-15 0 -22 7 -27 17c-25 58 -47 71 -68 71c-14 0 -47 -10 -43 -105l5 -112v-515c0 -66 -8 -119 -31 -154c-25 -38 -63 -63 -118 -63
c-78 0 -122 39 -122 71c0 33 27 49 47 49c15 0 22 -7 27 -17c25 -58 47 -68 68 -68c14 0 45 10 40 105l-5 102v10c-25 -12 -56 -22 -87 -22c-35 0 -111 12 -111 114v348h-72zM197 140c0 -76 32 -100 66 -100c13 0 26 1 38 3v407h-104v-310z" />
    <glyph glyph-name="uni02A8" unicode="&#x2a8;" horiz-adv-x="752" 
d="M31 450v40h76l61 126h29v-126h129v-40h-129v-310c0 -76 32 -100 66 -100c32 0 60 19 82 37c-27 41 -40 94 -40 163c0 133 61 262 243 262c108 0 174 -51 174 -97c0 -38 -39 -51 -59 -51c-19 0 -25 10 -31 26c-20 54 -49 87 -95 87c-69 0 -128 -60 -128 -209
c0 -37 4 -75 16 -112c57 46 106 75 190 75c88 0 109 -47 109 -87c0 -78 -94 -146 -187 -146c-74 0 -132 21 -171 62c-36 -30 -94 -62 -152 -62c-35 0 -111 12 -111 114v348h-72zM437 113c23 -43 61 -73 119 -73c54 0 128 30 128 98c0 19 -10 48 -71 48
c-59 0 -114 -22 -176 -73z" />
    </font>
</defs>
</svg>
